<svg xmlns="http://www.w3.org/2000/svg" xmlns:xlink="http://www.w3.org/1999/xlink" version="1.1" id="Layer_1" x="0px" y="0px" style="enable-background:new 0 0 2400 1700;" xml:space="preserve" viewBox="350.7 279.21 1537.22 1248.39">
<style type="text/css">
	.st0{fill:#B29C6B;}
	.st1{fill:#DBD2D2;}
	.st2{fill:#8C754D;}
	.st3{fill:#212A33;}
	.st4{fill:#090C0F;}
	.st5{fill:#C94141;}
	.st6{fill:#FFFFFF;}
	.st7{fill:#151C28;}
	.st8{fill:#527BEF;}
	.st9{opacity:0.3;fill:#293657;enable-background:new    ;}
	.st10{fill:#D84848;}
</style>
<g>
	<path class="st0" d="M1730.6,422.5l-15.2-2.9l-83.9-16.1l2.2,89.4c1,39.5,29.2,72.9,67.9,80.5l0.3-1.8l-0.2,1.9   c38.8,7.3,77.4-13.3,92.9-49.6l35.2-82.2L1730.6,422.5L1730.6,422.5z"/>
	<g>
		<path class="st0" d="M1638.2,443.7c0,0-11.1-5.7-19.5-3.8c-8.5,1.9-14,20.2-7.3,37.9c6.7,17.7,20.4,41.6,32.8,40.4    s17.5,12,17.5,12l-10.3,19.2c-1.5,2.8-4.2,4.7-7.2,5.2l-2.6,0.4c0,0,5.5,20.6-4.5,23.5c-10,2.8,2.1-5.7-8.1-42.1    c-10.8-38.4-63.2-80.7-63.7-115.3c-0.4-27.9,24.1-38.6,40.8-29.6c21.4,11.5,12.3,38.1,12.3,38.1l18.6,5.3L1638.2,443.7    L1638.2,443.7z"/>
		<path class="st1" d="M1594.8,463.2c-11.1-15.1-19.1-29.2-19.3-42.4c-0.3-18.4,16-25.5,27-19.5c14.2,7.6,6.7,25.6,3.5,31.4    C1593,456.3,1600.5,471.6,1594.8,463.2L1594.8,463.2z"/>
		<path class="st0" d="M1808.7,476.4c0,0,12.4-1.2,19.5,3.8s5.5,24-7.3,37.9c-12.8,13.9-34.3,31.1-45.4,25.4    c-11.1-5.7-20.7,4.7-20.7,4.7l2.4,21.6c0.3,3.1,2.1,5.9,4.8,7.5l2.3,1.4c0,0-12.8,17.1-4.5,23.5c8.2,6.3,0.2-6,23.1-36.1    c24.2-31.7,88.6-51.5,101.9-83.5c10.7-25.7-8.1-44.8-27-42.6c-24.2,2.8-25.5,30.9-25.5,30.9l-19.2-2L1808.7,476.4L1808.7,476.4z"/>
		<path class="st1" d="M1841.8,510.6c15.9-9.9,28.5-20.1,33.6-32.2c7.1-17-5.4-29.6-17.8-28.2c-16,1.8-15.7,21.3-14.9,27.9    C1846,504.9,1833.4,516.3,1841.8,510.6L1841.8,510.6z"/>
	</g>
	
		<ellipse transform="matrix(0.1886 -0.9821 0.9821 0.1886 1090.7975 1987.0699)" class="st0" cx="1747.9" cy="333.4" rx="46.3" ry="45.9"/>
	
		<ellipse transform="matrix(0.1886 -0.9821 0.9821 0.1886 1090.755 1987.0287)" class="st2" cx="1747.8" cy="333.4" rx="33.7" ry="33.3"/>
	
		<rect x="1627.9" y="798.1" transform="matrix(0.1886 -0.9821 0.9821 0.1886 519.7335 2299.5186)" class="st3" width="47.1" height="74.3"/>
	<polygon class="st0" points="1715,562.9 1693.2,558.7 1655.2,593.8 1737.3,609.5  "/>
	<polygon class="st3" points="1692.4,819.1 1619.4,805.1 1654.3,773.3 1671.7,776.6  "/>
	<polygon class="st3" points="1671.6,776.8 1654.3,773.5 1655.2,593.8 1737.3,609.5  "/>
	
		<rect x="1611.3" y="821.3" transform="matrix(0.1886 -0.9821 0.9821 0.1886 463.0669 2330.5654)" class="st3" width="61.2" height="127.6"/>
	
		<rect x="1620.2" y="830.9" transform="matrix(0.1886 -0.9821 0.9821 0.1886 463.0563 2330.5701)" class="st0" width="43.4" height="108.4"/>
	<path class="st2" d="M1713.7,515.9l-0.6-1.8c-12.4-37.7-42.3-67.3-80-79.2l0.6-2c37.8,11.9,67.8,41.3,80.8,78.8   c25.5-29.5,63.6-45.7,102.4-43.4l-0.1,2.1c-38.8-2.3-76.9,14.1-101.9,44L1713.7,515.9L1713.7,515.9z"/>
	<path class="st0" d="M1739.4,377c-31.9-5.5-52.5,20-107.8,26.5l99.1,19l99.1,19C1780.8,415,1771.1,383.6,1739.4,377L1739.4,377z"/>
	
		<rect x="1729.9" y="330.8" transform="matrix(0.1886 -0.9821 0.9821 0.1886 989.5383 2042.7655)" class="st2" width="2.1" height="183.5"/>
	
		<rect x="1701" y="557.2" transform="matrix(0.1886 -0.9821 0.9821 0.1886 819.4434 2135.4985)" class="st2" width="2.1" height="29.4"/>
	
		<rect x="1662.1" y="768.1" transform="matrix(0.1886 -0.9821 0.9821 0.1886 588.2769 2262.1875)" class="st4" width="2.1" height="14"/>
	
		<rect x="1654.9" y="780.5" transform="matrix(0.1886 -0.9821 0.9821 0.1886 546.2134 2285.1372)" class="st4" width="2.1" height="63"/>
	
		<rect x="1646.6" y="823.5" transform="matrix(0.1886 -0.9821 0.9821 0.1886 497.2867 2311.8953)" class="st4" width="2.1" height="63"/>
	
		<rect x="1738.4" y="371.1" transform="matrix(0.1886 -0.9821 0.9821 0.1886 1039.8375 2015.3147)" class="st2" width="2.1" height="14.5"/>
	<path class="st2" d="M1651.7,543.5c-10.8-12.1-13.8-24-13.9-24.5l2-0.5c0,0.1,2.9,11.8,13.4,23.6L1651.7,543.5L1651.7,543.5z"/>
	<path class="st2" d="M1759.4,564.2l-0.9-1.9c14-7,21.1-16.8,21.2-16.9l1.7,1.2C1781,547,1773.9,556.9,1759.4,564.2L1759.4,564.2z"/>
	<path class="st0" d="M1748.4,352.9c0.1,0.5,0.4,1.1,0.8,1.5c0.4,0.5,1.1,0.8,2,1l-15.5-3c0.9,0.2,1.6,0.1,2.2-0.2   c0.6-0.3,1-0.7,1.3-1.1c0.4-0.5,0.6-1.1,0.8-1.9l5.4-28c0.1-0.5,0-1.1-0.2-1.6c-0.2-0.4-0.5-0.9-1-1.3s-1.3-0.7-2.3-0.9l0.2-0.9   c1.7-0.1,3.3-0.5,5-1c1.4-0.5,3-1.1,4.6-2s3.2-2,4.5-3.6l-7.8,40.9C1748.2,351.6,1748.3,352.3,1748.4,352.9L1748.4,352.9z"/>
	<path class="st2" d="M1604.5,888.5c8-3.3,16.1-6.6,24.1-9.9c2.3-0.9,4.6-1.9,6.8-2.8c0.7-0.3,0.7-1.3-0.1-1.5   c-5.1-1.1-9.9,1.3-13.7,4.6c-1,0.8-1.9,1.7-2.8,2.7c-0.9,0.9-2.1,2-1.9,3.4c0.2,1.2,1.4,2,2.5,2.4c1.3,0.5,2.6,0.7,4,0.6   c3.2-0.1,6.3-1.5,9.1-3c0.9-0.4,0.4-1.9-0.5-1.5c-2.3,1.2-2.9,4.5-1.2,6.4c2,2.3,5.7,1.6,7.5-0.6c-0.5-0.2-0.9-0.3-1.4-0.5   c0.2,1.7,1.3,3,2.9,3.7c1.7,0.7,3.3,0.4,4.8-0.7c0.8-0.6,1.5-1.1,2.4-0.3c0.8,0.6,1.3,1.4,2.2,1.9c1.5,0.9,3.3,1.2,5.1,1   c2-0.2,3.9-1.2,5.2-2.7c-0.4,0-0.7,0-1.1,0.1c4.3,4.5,10.3,7.2,16.5,7.5c1,0,0.9-1.5-0.1-1.6c-5.8-0.3-11.4-2.9-15.4-7.1   c-0.3-0.3-0.9-0.2-1.1,0.1c-1.9,2.4-5.6,2.9-8.2,1.4c-1.5-0.8-2.4-2.9-4.3-2.5c-1.6,0.2-2.5,1.9-4.1,1.8c-1.5,0-2.9-1.1-3.1-2.6   c-0.1-0.6-0.9-1-1.4-0.5c-1.1,1.4-3.6,2.1-5,0.7c-1-1-1-3.3,0.4-4c-0.2-0.5-0.3-1-0.5-1.5c-2.2,1.1-4.5,2.2-7,2.7   c-1.1,0.2-2.3,0.3-3.4,0.1c-0.9-0.2-2.4-0.5-2.9-1.3s1.1-2.1,1.6-2.7c0.7-0.8,1.5-1.5,2.3-2.2c1.7-1.4,3.5-2.7,5.5-3.5   c2.2-0.9,4.6-1.2,6.9-0.7c0-0.5-0.1-1-0.1-1.5c-8,3.3-16.1,6.6-24.1,9.9l-6.8,2.8C1603,887.4,1603.5,888.8,1604.5,888.5   L1604.5,888.5L1604.5,888.5z"/>
</g>
<path class="st5" d="M587.8,695.3c2.5-1.1,5-2.2,7.5-3.3c0.1-0.1,0.3-0.1,0.4-0.2c-0.2,0.1-0.3,0.1-0.5,0.2c-0.1,0,3.8-1.6,1.8-0.8  c-0.4,0.2-0.9,0.4-1.3,0.6c1.4-0.6,2.8-1.2,4.2-1.7c5.1-2.1,10.2-4,15.3-6c20.9-7.8,42.2-14.3,63.8-19.8  c21.7-5.5,43.7-9.8,65.8-13.2c2.7-0.4,5.4-0.8,8.2-1.2c1-0.1,1.9-0.3,2.9-0.4c-0.4,0-0.8,0.1-1.2,0.2c-0.1,0,4.3-0.6,2-0.3  c-0.3,0-0.6,0.1-0.9,0.1c0.4-0.1,0.9-0.1,1.3-0.2c5.7-0.7,11.4-1.4,17-2c11.2-1.2,22.4-2.2,33.6-3c46.3-3.2,92.9-2.8,139.2-0.2  c49.7,2.8,99.3,8,148.7,13.9c49.5,5.9,98.9,12.5,148.4,17.9c6.1,0.7,12.2,1.3,18.2,2c4.7,0.5,10.6-2.5,13.8-5.7  c3.4-3.4,5.9-9,5.7-13.8c-0.5-11.5-8.6-18.4-19.6-19.6c-50-5.2-99.9-11.8-149.9-17.8c-49.7-6-99.4-11.6-149.3-15  c-47.1-3.1-94.3-4.2-141.4-1.7c-46.5,2.5-93,8.3-138.5,18.7c-26,5.9-51.6,13.4-76.6,22.6l-22.3,51.2  C585.6,696.4,586.7,695.8,587.8,695.3L587.8,695.3z"/>
<g>
	<path class="st6" d="M1100.2,663.3c4.1,101.5,90.5,180.5,192.9,176.4c102.4-4.2,182.1-89.8,178-191.4   c-4.1-101.5-90.5-180.5-192.9-176.3C1175.7,476.1,1096.1,561.8,1100.2,663.3L1100.2,663.3z"/>
	<path class="st6" d="M1212.5,645.4c1-0.2,1.9-0.5,2.9-0.9c17.5-8.1,30.9-22.7,37.8-41.1c6.8-18.4,6.2-38.5-1.7-56.5l-30.8-70   c-7.9-18-22.2-31.8-40.2-38.8s-37.6-6.4-55.1,1.6c-5.8,2.7-8.4,9.7-5.8,15.6s9.5,8.6,15.3,6c11.9-5.5,25.2-5.9,37.4-1.1   c12.2,4.8,21.9,14.1,27.3,26.3l30.8,70c5.4,12.2,5.8,25.8,1.2,38.4c-4.6,12.5-13.7,22.4-25.6,27.9c-5.8,2.7-8.4,9.7-5.8,15.7   C1202.3,643.5,1207.4,646.2,1212.5,645.4L1212.5,645.4z"/>
	<g>
		<path class="st7" d="M1192,621.7c7.2,45.4,69,73.1,138,61.7c69-11.3,119.1-57.4,111.9-102.8s-69-73.1-138-61.7    C1235,530.2,1184.8,576.3,1192,621.7L1192,621.7z"/>
		<g>
			<path class="st8" d="M1406.3,583.2c0.6,3.6,3.9,6,7.4,5.5c3.5-0.6,5.9-4,5.3-7.6s-3.9-6.1-7.4-5.5S1405.8,579.6,1406.3,583.2z"/>
			<path class="st8" d="M1365.6,591.8c0.6,3.6,3.9,6,7.4,5.5c3.5-0.6,5.9-4,5.3-7.6s-3.9-6.1-7.4-5.5S1365,588.2,1365.6,591.8     L1365.6,591.8z"/>
			<path class="st8" d="M1375.1,575.2c0.6,3.6,3.9,6.1,7.4,5.5s5.9-4,5.3-7.6s-3.9-6-7.4-5.5     C1376.9,568.2,1374.5,571.6,1375.1,575.2z"/>
			<path class="st8" d="M1391.1,571.7c0.6,3.6,3.9,6,7.4,5.5c3.5-0.6,5.9-4,5.3-7.6s-3.9-6-7.4-5.5     C1392.9,564.7,1390.5,568.1,1391.1,571.7z"/>
		</g>
		<g>
			<path class="st8" d="M1282.2,603.6c0.6,3.6,3.9,6,7.4,5.5c3.5-0.6,5.9-4,5.3-7.6s-3.9-6-7.4-5.5     C1284,596.6,1281.6,600,1282.2,603.6z"/>
			<path class="st8" d="M1241.4,612.2c0.6,3.6,3.9,6,7.4,5.5s5.9-4,5.3-7.6s-3.9-6-7.4-5.5C1243.2,605.2,1240.8,608.6,1241.4,612.2z     "/>
			<path class="st8" d="M1250.9,595.6c0.6,3.6,3.9,6.1,7.4,5.5s5.9-4,5.3-7.6s-3.9-6-7.4-5.5C1252.8,588.6,1250.4,592,1250.9,595.6     L1250.9,595.6z"/>
			<path class="st8" d="M1266.9,592.1c0.6,3.6,3.9,6,7.4,5.5c3.5-0.6,5.9-4,5.3-7.6s-3.9-6.1-7.4-5.5     C1268.7,585.1,1266.3,588.5,1266.9,592.1L1266.9,592.1z"/>
		</g>
	</g>
	<path class="st1" d="M1150.9,782.5c6.4-6.1,11.8-14.6,15.6-25c7.2-19.5,8.6-43.8,3.8-68.3s-15.1-46.5-29.1-61.9   c-10.7-11.8-22.6-18.7-34.5-20.1l-1.5,5c10.9,1,22.1,7.4,32.2,18.5c13.4,14.7,23.2,35.8,27.8,59.5c4.6,23.7,3.3,47-3.6,65.6   c-3.6,9.7-8.5,17.5-14.3,23.1L1150.9,782.5L1150.9,782.5z"/>
	<path class="st1" d="M1202.1,491.4c0,0,4.6-3,17-6.4l-1.3-4.9c-13.4,3.6-18.4,7-18.6,7.1L1202.1,491.4L1202.1,491.4z"/>
</g>
<path class="st9" d="M1457.8,1509.9c0,9.8-46.3,17.7-241.4,17.7s-465-7.9-465-17.7s269.9-17.7,465-17.7S1457.8,1500.2,1457.8,1509.9  z"/>
<g>
	<path class="st6" d="M1288.6,713.8c-0.2,0-0.3,0-0.5,0.1C1288,713.9,1288.1,713.9,1288.6,713.8z"/>
	<path class="st6" d="M1431.6,678.6c0.1,0,0.4-0.2,1-0.4C1432.2,678.3,1431.9,678.5,1431.6,678.6z"/>
	<path class="st10" d="M1029.5,717.7c-82.3-5.4-164.4-14.3-246.8-18.5c-78.5-4.1-157.1-3.4-235.1,7.6c-59.4,8.3-118,23.2-173.1,46.5   l-23.8,54.4c10.1-5.3,20.3-10.3,30.7-15c1.9-0.8,3.7-1.7,5.6-2.5c1.1-0.5,2.2-1,3.3-1.4c-1.4,0.6,0,0,0.4-0.2   c-0.1,0.1-0.3,0.1-0.4,0.2c0.1,0,0.3-0.1,0.4-0.2c4.4-1.8,8.8-3.6,13.2-5.3c8.5-3.3,17.1-6.4,25.8-9.3   c34.9-11.7,70.7-20.2,107-26.3c4-0.7,8.1-1.3,12.2-1.9c2.4-0.4,4.7-0.7,7.1-1c0.7-0.1,3.9-0.5,4.5-0.6c-0.2,0-0.4,0-0.6,0.1   c0.8-0.1,0.8-0.1,0.6-0.1c9-1.2,17.9-2.2,26.9-3.1c18.4-1.8,36.8-3.2,55.3-4c40.1-1.8,80.4-1.3,120.5,0.3   c82.5,3.5,164.6,12.2,246.8,18.1c41,3,82.2,5.2,123.4,5.7c-8.6-12.2-15.7-25.4-21.2-39.5C1084.6,720.9,1057,719.5,1029.5,717.7   L1029.5,717.7z"/>
	<path class="st10" d="M1471.1,656.3c-0.6,0.5-1.2,0.9-1.4,1.1c-1.9,1.3-3.8,2.7-5.7,3.9c-3.9,2.5-7.8,5-11.9,7.2   c-3.8,2.1-7.6,4.1-11.5,6c-1.8,0.9-3.6,1.7-5.4,2.5c-0.9,0.4-1.8,0.8-2.7,1.2c-0.7,0.3-1,0.4-0.9,0.4c0.3-0.1,0.7-0.3,1-0.4   c-0.6,0.2-0.9,0.4-1,0.4c-0.3,0.1-0.6,0.2-0.9,0.4c-16.7,6.8-34,12.1-51.4,16.8c-19.1,5.1-38.4,9.4-57.9,12.9   c-9.7,1.8-19.5,3.3-29.3,4.7c-0.5,0.1-3.5,0.5-4,0.5c0.2,0,0.3,0,0.5-0.1c-0.5,0.1-0.6,0.1-0.5,0.1c-2.4,0.3-4.8,0.6-7.2,0.9   c-5.1,0.6-10.2,1.2-15.3,1.7c-51,5.4-102.3,6.4-153.5,5.1c5.4,14.1,12.6,27.4,21.2,39.5c38.7,0.5,77.3-0.5,115.9-3.9   c40-3.5,80-9.3,119.1-18.5c32.5-7.6,65.7-16.9,95.6-32.3C1468.6,690.5,1471.1,673.7,1471.1,656.3L1471.1,656.3z"/>
</g>
</svg>