<?xml version="1.0" encoding="utf-8"?>
<!-- Generator: Adobe Illustrator 26.3.1, SVG Export Plug-In . SVG Version: 6.00 Build 0)  -->
<svg version="1.1" id="Layer_1" xmlns="http://www.w3.org/2000/svg" xmlns:xlink="http://www.w3.org/1999/xlink" x="0px" y="0px"
	 viewBox="0 0 1440.9 1063.3" style="enable-background:new 0 0 1440.9 1063.3;" xml:space="preserve">
<style type="text/css">
	.st0{fill:#FFFFFF;}
	.st1{fill:#151C28;}
	.st2{fill:#DBD2D2;}
	.st3{fill:#527BEF;}
	.st4{opacity:0.7;fill:#527BEF;enable-background:new    ;}
	.st5{opacity:0.9;fill:#527BEF;enable-background:new    ;}
	.st6{opacity:0.15;fill:#527BEF;enable-background:new    ;}
	.st7{opacity:0.3;fill:#527BEF;enable-background:new    ;}
	.st8{opacity:0.6;fill:#527BEF;enable-background:new    ;}
	.st9{opacity:0.4;fill:#527BEF;enable-background:new    ;}
	.st10{fill:#D84848;}
	.st11{fill:#10161E;}
	.st12{fill:#394149;}
	.st13{opacity:0.55;fill:#FFFFFF;enable-background:new    ;}
	.st14{fill:#BAA090;}
	.st15{fill:#A58A7C;}
	.st16{fill:#967B6F;}
	.st17{fill:#493A32;}
	.st18{fill:#56453A;}
	.st19{fill:#3D302A;}
	.st20{fill:#3F3B3B;}
	.st21{opacity:0.7;fill:#3F3B3B;enable-background:new    ;}
	.st22{opacity:0.9;fill:#3F3B3B;enable-background:new    ;}
	.st23{opacity:0.7;fill:#FFFFFF;enable-background:new    ;}
	.st24{opacity:0.9;fill:#FFFFFF;enable-background:new    ;}
	.st25{opacity:0.6;fill:#3F3B3B;enable-background:new    ;}
	.st26{opacity:0.4;fill:#3F3B3B;enable-background:new    ;}
</style>
<g>
	<g>
		<g>
			<path class="st0" d="M917,821.2c-2.1,135.8-114.8,244.2-251.8,242.1c-136.9-2.1-246.3-113.9-244.2-249.7s114.8-244.2,251.8-242.1
				C809.7,573.6,919.1,685.4,917,821.2L917,821.2z"/>
			<g>
				<path class="st0" d="M766.3,801c-1.3-0.2-2.6-0.5-3.9-1.1c-23.7-10.2-42.1-29.2-51.8-53.6c-9.7-24.4-9.6-51.2,0.4-75.5
					l38.8-94.6c10-24.3,28.6-43.2,52.4-53.2s50-9.8,73.7,0.3c7.9,3.4,11.6,12.7,8.2,20.7c-3.3,8.1-12.3,11.8-20.2,8.5
					c-16.1-6.9-33.9-7-50-0.2s-28.8,19.6-35.6,36.1L739.5,683c-6.8,16.5-6.9,34.7-0.3,51.3s19.1,29.5,35.2,36.4
					c7.9,3.4,11.6,12.7,8.2,20.7C779.9,798.2,773.1,801.9,766.3,801L766.3,801z"/>
				<path class="st1" d="M796.6,768.6c-8.1,61-89.7,99.9-182.3,87.1c-92.6-12.8-161.1-72.7-153-133.6S551,622.2,643.6,635
					C736.2,647.8,804.7,707.6,796.6,768.6L796.6,768.6z"/>
			</g>
			<path class="st2" d="M853.2,982.2c-8.8-7.9-16.2-19.1-21.7-32.9c-10.3-25.8-12.9-58.2-7.3-91.1c5.6-33,18.6-62.7,36.8-83.7
				c13.9-16.1,29.6-25.7,45.4-28l2.1,6.6c-14.5,1.8-29.2,10.7-42.4,25.9c-17.4,20.1-29.9,48.6-35.2,80.4
				c-5.3,31.8-2.9,62.8,6.9,87.5c5.1,12.8,11.9,23.1,19.9,30.3L853.2,982.2L853.2,982.2z"/>
			<path class="st2" d="M775,594.9c0,0-6.3-3.9-23-8l1.6-6.6c18,4.4,24.8,8.7,25.1,8.9L775,594.9L775,594.9z"/>
		</g>
		<g>
			<path class="st3" d="M540.3,768.1L540.3,768.1c-5.2,0-10.3-1-15.1-3l7.3-17.7c2.5,1,5.1,1.5,7.8,1.5L540.3,768.1L540.3,768.1z"/>
			<path class="st4" d="M555.4,765.1l-7.3-17.7c2.5-1,4.7-2.5,6.6-4.4l13.5,13.6C564.6,760.2,560.2,763.1,555.4,765.1L555.4,765.1z"
				/>
			<path class="st5" d="M512.3,756.6c-3.7-3.7-6.6-8-8.6-12.8l17.7-7.4c1,2.5,2.5,4.7,4.4,6.6L512.3,756.6L512.3,756.6z"/>
			<path class="st6" d="M576.8,743.7l-17.7-7.3c1-2.5,1.5-5.1,1.5-7.8v-0.1l19.2-0.1v0.2C579.8,733.8,578.8,738.9,576.8,743.7
				L576.8,743.7z"/>
			<path class="st4" d="M500.7,728.7L500.7,728.7c0-5.3,1-10.4,3-15.2l17.7,7.3c-1,2.5-1.5,5.1-1.5,7.8v0.1H500.7l7.9-0.1
				L500.7,728.7L500.7,728.7z"/>
			<path class="st7" d="M559.1,720.7c-1-2.5-2.5-4.7-4.5-6.6l13.5-13.6c3.7,3.7,6.6,8,8.6,12.8L559.1,720.7z"/>
			<path class="st8" d="M525.8,714.2l-13.6-13.5c3.7-3.7,8-6.6,12.8-8.6l7.4,17.7C529.9,710.8,527.7,712.3,525.8,714.2L525.8,714.2z
				"/>
			<path class="st9" d="M548.4,709.7c-2.5-1-5.1-1.5-7.8-1.5h-0.1V689h0.1c5.2,0,10.2,1,15,2.9L548.4,709.7L548.4,709.7z"/>
		</g>
		<g>
			<path class="st3" d="M700.1,797.2L700.1,797.2c-5.2,0-10.3-1-15.1-3l7.3-17.7c2.5,1,5.1,1.5,7.8,1.5L700.1,797.2L700.1,797.2z"/>
			<path class="st4" d="M715.2,794.2l-7.3-17.7c2.5-1,4.7-2.5,6.6-4.4l13.5,13.6C724.4,789.4,720,792.2,715.2,794.2L715.2,794.2z"/>
			<path class="st5" d="M672.1,785.7c-3.7-3.7-6.6-8-8.6-12.8l17.7-7.4c1,2.5,2.5,4.7,4.4,6.6L672.1,785.7L672.1,785.7z"/>
			<path class="st6" d="M736.6,772.8l-17.7-7.3c1-2.5,1.5-5.1,1.5-7.8v-0.1l19.2-0.1v0.2C739.7,763,738.6,768.1,736.6,772.8
				L736.6,772.8z"/>
			<path class="st4" d="M660.5,757.8L660.5,757.8c0-5.3,1-10.4,3-15.2l17.7,7.3c-1,2.5-1.5,5.1-1.5,7.8v0.1H660.5l7.9-0.1
				L660.5,757.8L660.5,757.8z"/>
			<path class="st7" d="M718.9,749.8c-1-2.5-2.5-4.7-4.5-6.6l13.5-13.6c3.7,3.7,6.6,8,8.6,12.8L718.9,749.8z"/>
			<path class="st8" d="M685.6,743.3L672,729.8c3.7-3.7,8-6.6,12.8-8.6l7.4,17.7C689.7,739.9,687.5,741.4,685.6,743.3L685.6,743.3z"
				/>
			<path class="st9" d="M708.2,738.9c-2.5-1-5.1-1.5-7.8-1.5h-0.1v-19.2h0.1c5.2,0,10.2,1,15,2.9L708.2,738.9L708.2,738.9z"/>
		</g>
	</g>
	<g>
		<path class="st10" d="M690.1,238.4h-78.5c-10.4,0-18.9-8.4-18.9-18.9v-50.3c0-10.4,8.4-18.9,18.9-18.9h78.5
			c10.4,0,18.9,8.4,18.9,18.9v50.3C708.9,229.9,700.5,238.4,690.1,238.4z"/>
		<polygon class="st10" points="650.8,255.1 670.8,226.6 650.8,198.1 630.9,226.6 		"/>
		<path class="st0" d="M650.8,214.7l19.9-19.9c4.3-4.3,4.3-11.2,0-15.5s-11.2-4.3-15.5,0l-4.3,4.3l-4.2-4.2
			c-4.3-4.3-11.2-4.3-15.6,0c-4.3,4.3-4.3,11.2,0,15.5L650.8,214.7L650.8,214.7z"/>
	</g>
	<g>
		<g>
			<path class="st10" d="M790.8,341.2h-78.5c-10.4,0-18.9-8.4-18.9-18.9V272c0-10.4,8.4-18.9,18.9-18.9h78.5
				c10.4,0,18.9,8.4,18.9,18.9v50.3C809.7,332.7,801.2,341.2,790.8,341.2z"/>
			<polygon class="st10" points="751.6,357.9 771.5,329.4 751.6,300.9 731.6,329.4 			"/>
		</g>
		<circle class="st0" cx="751.6" cy="287.7" r="7.5"/>
		<path class="st0" d="M730.8,317.9h41.5v0.3c0-11.5-9.3-20.7-20.7-20.7l0,0c-11.4,0-20.7,9.3-20.7,20.7L730.8,317.9L730.8,317.9z"
			/>
	</g>
	<g>
		<g>
			<path class="st10" d="M1167.2,401.8h78.5c10.4,0,18.9,8.4,18.9,18.9V471c0,10.4-8.4,18.9-18.9,18.9h-78.5
				c-10.4,0-18.9-8.4-18.9-18.9v-50.3C1148.4,410.3,1156.8,401.8,1167.2,401.8z"/>
			<polygon class="st10" points="1206.5,506.6 1226.4,478.1 1206.5,449.6 1186.5,478.1 			"/>
		</g>
		<ellipse class="st0" cx="1206.5" cy="444.6" rx="23" ry="17"/>
		<polygon class="st0" points="1206.4,454.7 1190.3,466.2 1192.9,450.6 		"/>
		<path class="st10" d="M1212.7,444.8c0,1.7,1.4,3.2,3.2,3.2s3.2-1.4,3.2-3.2s-1.4-3.2-3.2-3.2S1212.7,443.1,1212.7,444.8z"/>
		<path class="st10" d="M1203.3,444.8c0,1.7,1.4,3.2,3.2,3.2s3.2-1.4,3.2-3.2s-1.4-3.2-3.2-3.2S1203.3,443.1,1203.3,444.8z"/>
		<path class="st10" d="M1193.8,444.8c0,1.7,1.4,3.2,3.2,3.2s3.2-1.4,3.2-3.2s-1.4-3.2-3.2-3.2S1193.8,443.1,1193.8,444.8z"/>
	</g>
	<path class="st11" d="M276.5,33.5h444c21.2,0,38.4,17.2,38.4,38.4l0,0c0,21.2-17.2,38.4-38.4,38.4h-444
		c-21.2,0-38.4-17.2-38.4-38.4l0,0C238,50.7,255.2,33.5,276.5,33.5z"/>
	<path class="st10" d="M631.1,69.4c-2.4,0-4.4,2-4.4,4.5s1.9,4.5,4.4,4.5h35.2v-9H631.1L631.1,69.4z"/>
	<path class="st12" d="M727.5,73.9c0-2.5-0.7-4.5-1.6-4.5h-65.4v9h65.4C726.7,78.4,727.5,76.4,727.5,73.9L727.5,73.9z"/>
	<g>
		<rect x="948.7" y="537.7" class="st0" width="142.7" height="93.2"/>
		<path class="st2" d="M1021.6,590.9c-9,0-18.5-4-29-12.1c-11.8-9.1-44.3-40-44.6-40.3l1.5-1.5c0.3,0.3,32.7,31.2,44.4,40.2
			c20,15.4,36.1,15.4,52.3,0.1c10.8-10.2,44.2-40,44.5-40.3l1.4,1.6c-0.3,0.3-33.7,30-44.5,40.2
			C1039.1,586.8,1030.6,590.9,1021.6,590.9L1021.6,590.9z"/>
		<circle class="st10" cx="1090.5" cy="538.3" r="28.5"/>

			<rect x="1060.1" y="572.6" transform="matrix(0.5771 -0.8166 0.8166 0.5771 -49.1753 1124.3655)" class="st2" width="2.1" height="74.1"/>

			<rect x="941.8" y="608.3" transform="matrix(0.8164 -0.5774 0.5774 0.8164 -172.1044 677.3068)" class="st2" width="75" height="2.1"/>
	</g>
	<g>
		<g>
			<path class="st11" d="M970,73.2c-20.2,0-36.6-16.4-36.6-36.6S949.8,0,970,0s36.6,16.4,36.6,36.6S990.2,73.2,970,73.2z M970,2.6
				c-18.7,0-34,15.2-34,34s15.2,34,34,34s34-15.2,34-34S988.7,2.6,970,2.6z"/>
			<rect x="952.4" y="24.5" class="st11" width="26.9" height="24.3"/>
			<polygon class="st11" points="989.1,47.6 979.3,39.6 979.3,33.6 989.1,25.6 			"/>
		</g>
		<g>
			<path class="st0" d="M1302.8,213.6H1000v-121h302.8V213.6z M1002.7,210.9h297.4V95.3h-297.4V210.9L1002.7,210.9z"/>
			<g>
				<rect x="1068.3" y="116.4" class="st0" width="93.4" height="9.9"/>
				<rect x="1145.6" y="136.1" class="st0" width="61.8" height="9.9"/>
				<rect x="1098.8" y="136.1" class="st0" width="42.2" height="9.9"/>
				<rect x="1098.8" y="155.7" class="st0" width="139.1" height="9.9"/>
				<rect x="1098.8" y="175.4" class="st0" width="73.7" height="9.9"/>
			</g>
		</g>
		<g>
			<path class="st11" d="M1224.6,289.3c-26,0-47.1-21.1-47.1-47.1s21.2-47.1,47.1-47.1s47.1,21.1,47.1,47.1
				S1250.6,289.3,1224.6,289.3z M1224.6,198.2c-24.2,0-43.9,19.7-43.9,44s19.7,44,43.9,44s43.9-19.7,43.9-44
				S1248.8,198.2,1224.6,198.2z"/>
			<path class="st11" d="M1233.3,239c0,4.8-3.9,8.6-8.7,8.6l0,0c-4.8,0-8.7-3.9-8.7-8.6v-18.3c0-4.8,3.9-8.6,8.7-8.6l0,0
				c4.8,0,8.7,3.9,8.7,8.6V239z"/>
			<path class="st11" d="M1224.6,258c-10.3,0-18.7-8.4-18.7-18.7h5.7c0,7.2,5.8,13,13,13s13-5.8,13-13h5.7
				C1243.3,249.6,1234.9,258,1224.6,258z"/>
			<rect x="1221.8" y="255.2" class="st11" width="5.7" height="17.1"/>
		</g>
		<g>
			<circle class="st13" cx="875.4" cy="128.8" r="73.9"/>
			<g>
				<g>
					<polygon class="st14" points="855.9,161.4 865.9,156.1 886.8,155.8 898,161.6 873.5,181.6 					"/>
					<path class="st14" d="M887.8,160.7c0,4.2-7.8,8.3-11.7,8.3c-3.9,0-11.7-4.1-11.7-8.3c0.3-6.3,1.2-26.1,1.2-26.1h20.9
						C886.6,134.6,887.8,153.6,887.8,160.7L887.8,160.7z"/>
					<path class="st15" d="M866.4,141.5c0,0,2.7,9.9,9.6,10.2c6.9,0.3,9.8-10.2,9.8-10.2l-9.6-2L866.4,141.5L866.4,141.5z"/>
				</g>
				<path class="st11" d="M927.7,181c-0.1-0.2-0.2-0.4-0.3-0.5c-3.5-5.7-30.4-20-34.5-21.9c-5,18.8-26.4,17.6-33.4,0.3
					c-4.2,1.9-31.5,16.8-35.1,22.5c-0.1,0.1-0.2,0.3-0.3,0.5c13.3,12.9,31.4,20.8,51.3,20.8S914.3,194.4,927.7,181L927.7,181z"/>
				<g>
					<g id="head">
						<g id="head-2">
							<path class="st15" d="M858.8,115.2c0,0-2.3-1.5-4.2,0.9c-1.8,2.4-0.6,11.5,3.9,11.5S858.8,115.2,858.8,115.2L858.8,115.2z"/>
							<path class="st15" d="M894,115.2c0,0,2.3-1.5,4.2,0.9c1.8,2.4,0.6,11.5-3.9,11.5S894,115.2,894,115.2L894,115.2z"/>
							<path class="st14" d="M894.7,112.7c0-10.2-8.2-16.9-18.4-16.9s-18.4,6.7-18.4,16.9c0,0,0.1,13,0.1,13.6c0,4.7,2.3,11,6,15.3
								c2.9,3.4,6,6.6,9.2,7.5c1.1,0.3,5.3,0.3,6.4,0c3.3-1,6.3-4.4,9.1-7.9c3.7-4.7,6-11.1,6-14.8
								C894.6,125.7,894.7,112.7,894.7,112.7L894.7,112.7z"/>
						</g>
						<g id="face">
							<g id="eyebrows">
								<path class="st11" d="M880.1,113c0,0,7.6-0.8,9-0.6c2.4,0.2,3,1.8,3.3,2.7c0.1,0.3-9.9,1.3-11.3,0.8
									C879.7,115.3,880.1,113,880.1,113L880.1,113z"/>
								<path class="st11" d="M872.6,113c0,0-7.6-0.8-9-0.6c-2.4,0.2-3,1.8-3.3,2.7c-0.1,0.3,9.9,1.3,11.3,0.8
									C873,115.3,872.6,113,872.6,113L872.6,113z"/>
							</g>
							<g>
								<path class="st16" d="M878.5,132.3c0.7,0,1.4,1,1.4,1l-2.7,0.2C877.7,132.8,877.9,132.3,878.5,132.3z"/>
								<path class="st16" d="M874.6,132.3c-0.7,0-1.4,1-1.4,1l2.7,0.2C875.5,132.8,875.3,132.3,874.6,132.3z"/>
								<path class="st16" d="M874.5,128.1c0.5-4.7,0-10,0-10.1l-1.1,0.1c0,0,0.5,5.3,0,9.9L874.5,128.1L874.5,128.1z"/>
							</g>
							<g>
								<path class="st16" d="M871.9,138.1c-0.7,0-1.5-0.2-2.4-0.8c-0.2-0.2-0.3-0.5-0.2-0.8c0.2-0.2,0.5-0.3,0.8-0.1
									c1.3,0.9,2.5,0.5,3.5,0.2c0.5-0.2,1-0.3,1.4-0.2c0.6,0.1,1.1,0.2,1.7,0.2c0.7,0,1.1-0.1,1.6-0.2s1,0,1.6,0.2
									c1,0.3,2.1,0.6,3.4-0.2c0.2-0.2,0.6-0.1,0.8,0.1c0.2,0.2,0.1,0.6-0.2,0.8c-1.7,1.2-3.3,0.7-4.3,0.4c-0.4-0.1-0.8-0.2-1-0.2
									c-0.6,0.1-1,0.2-1.8,0.2s-1.3-0.1-2-0.2c-0.2,0-0.5,0.1-0.9,0.2C873.4,137.8,872.7,138,871.9,138.1L871.9,138.1z"/>
								<path class="st16" d="M876.8,141.1c-1.9,0-3.3-0.7-3.4-0.7c-0.3-0.1-0.4-0.5-0.2-0.7c0.1-0.3,0.5-0.4,0.7-0.2
									c0.1,0,2.9,1.4,5.6,0c0.3-0.1,0.6,0,0.7,0.2c0.1,0.3,0,0.6-0.2,0.7C878.9,140.9,877.8,141.1,876.8,141.1L876.8,141.1z"/>
							</g>
						</g>
					</g>
					<g>
						<g>
							<g id="face-2">
								<path class="st11" d="M869.6,120.8c-0.2,1.6-1,2.9-2.4,3s-2.6-1.2-2.6-2.8s0.7-0.4,2.1-0.4S869.7,120,869.6,120.8z"/>
							</g>
							<path class="st11" d="M870.9,121.7c-3.3-1.2-5.1-1.2-7.2-1.1c-0.5,0-1.1,0-1.7,0v-0.9c0.6,0,1.1,0,1.6,0c2.2,0,4-0.1,7.5,1.2
								L870.9,121.7L870.9,121.7z"/>
						</g>
						<g>
							<g id="face-3">
								<path class="st11" d="M883,120.8c0.2,1.6,1,2.9,2.4,3s2.6-1.2,2.6-2.8c0.1-1.6-0.7-0.4-2.1-0.4S883,120,883,120.8z"/>
							</g>
							<path class="st11" d="M881.7,121.7l-0.3-0.8c3.5-1.3,5.3-1.2,7.5-1.2c0.5,0,1.1,0,1.7,0v0.9c-0.6,0-1.1,0-1.7,0
								C886.7,120.5,885.1,120.5,881.7,121.7L881.7,121.7z"/>
						</g>
					</g>
					<path class="st11" d="M877.4,101.5c0,0-2.5-3.3-6.9,1c-3.2,3.2-11.3,20.4-11.3,20.4s-10-16.5-6.5-26.4
						c3.9-11.4,13.7-16,23.8-13c0,0,16.9-6.1,23.6,12.3c4.3,11.9-6.6,26.2-6.6,26.2s-6.3-13.2-7.4-16.5
						C883.9,99.1,878.2,98.4,877.4,101.5L877.4,101.5z"/>
				</g>
			</g>
		</g>
		<circle class="st13" cx="1344" cy="324.1" r="73.9"/>
		<g>
			<polygon class="st11" points="1322.7,298.3 1314.9,327.8 1321.8,373 1366.3,359.6 1369.2,328 1363.7,290.5 1350.7,280.1 			"/>
			<g>
				<g>
					<g>
						<g>
							<path class="st11" d="M1368.1,391.4v-0.2c0.1-0.8-0.2-1.5-0.7-2c0.6-0.4,1-1,1-1.8v-0.2c0.1-0.8-0.2-1.5-0.7-2
								c0.6-0.4,1-1.1,1-1.8v-0.2c0.1-0.8-0.2-1.5-0.7-2c0.6-0.4,0.9-1.1,1-1.8v-0.2c0.1-0.8-0.2-1.5-0.7-2c0.6-0.4,0.9-1.1,1-1.8
								v-0.2c0.1-0.8-0.2-1.5-0.7-2c0.6-0.4,0.9-1.1,1-1.8v-0.2c0.1-0.8-0.2-1.5-0.7-2c0.6-0.4,0.9-1.1,1-1.8v-0.2
								c0.1-0.8-0.2-1.5-0.7-2c0.6-0.4,0.9-1.1,1-1.9v-0.2c0.1-0.8-0.2-1.5-0.8-2c0.6-0.4,0.9-1.1,0.9-1.9V359
								c0-0.8-0.3-1.5-0.8-1.9c0.6-0.4,0.9-1.1,0.9-1.9V355c0-0.8-0.3-1.5-0.8-1.9c0.5-0.5,0.9-1.1,0.9-1.9V351
								c0-0.8-0.3-1.4-0.8-1.9c0.5-0.5,0.9-1.1,0.9-1.9v-0.6c0-0.8-0.3-1.4-0.8-1.9c0.5-0.5,0.9-1.1,0.9-1.9v-0.2
								c0-0.8-0.3-1.4-0.9-1.9c0.5-0.5,0.8-1.2,0.8-1.9v-0.2c0-0.8-0.4-1.4-0.9-1.9c0.5-0.5,0.8-1.2,0.8-1.9v-0.2
								c0-0.8-0.4-1.4-0.9-1.9c0.5-0.5,0.8-1.2,0.8-2v-0.2c-0.1-0.8-0.4-1.4-1-1.9c0.5-0.5,0.8-1.2,0.7-2v-0.2
								c-0.1-0.8-0.4-1.4-1-1.8c0.5-0.5,0.8-1.2,0.7-2v-0.2c-0.1-0.8-0.5-1.4-1.1-1.8c0.5-0.5,0.7-1.2,0.6-2v-0.2
								c-0.1-0.8-0.5-1.4-1.1-1.8c0.5-0.5,0.7-1.3,0.6-2v-0.2c-0.1-0.8-0.6-1.4-1.2-1.8c0.4-0.6,0.7-1.3,0.5-2.1l-0.1-0.2
								c-0.2-0.8-0.6-1.4-1.3-1.7c0.4-0.6,0.6-1.4,0.4-2.1c0-0.1,0-0.2-0.1-0.2c-0.2-0.8-0.7-1.3-1.4-1.6c0.4-0.6,0.5-1.4,0.2-2.1
								c0-0.1-0.1-0.2-0.1-0.2c-0.3-0.8-0.8-1.3-1.5-1.5c0.3-0.7,0.4-1.5,0-2.2c0-0.1-0.1-0.2-0.1-0.2c-0.3-0.7-1-1.2-1.7-1.4
								c0.2-0.7,0.2-1.5-0.3-2.2c-0.1-0.1-0.1-0.1-0.2-0.2c-0.5-0.7-1.2-1.1-2-1.1c0.1-0.8-0.2-1.6-0.8-2.2
								c-0.1-0.1-0.1-0.1-0.2-0.2c-0.6-0.5-1.3-0.7-2.1-0.6c0-0.7-0.3-1.5-1-1.9c-0.1,0-0.1-0.1-0.2-0.2c-0.6-0.5-1.4-0.6-2.1-0.5
								c-0.1-0.7-0.5-1.4-1.2-1.9c-0.1,0-0.2-0.1-0.2-0.1c-0.7-0.4-1.5-0.5-2.2-0.2c-0.2-0.7-0.7-1.4-1.5-1.7
								c-0.1,0-0.2-0.1-0.2-0.1c-0.8-0.3-1.7-0.2-2.3,0.3c-0.4-0.7-1.1-1.2-1.9-1.4c-0.1,0-0.2,0-0.3,0c-0.9-0.1-1.7,0.3-2.2,1
								c-0.6-0.6-1.5-0.9-2.4-0.6c-0.1,0-0.2,0.1-0.3,0.1c-0.9,0.3-1.6,1-1.7,1.9c-0.9-0.3-1.9-0.1-2.6,0.6
								c-0.2,0.2-0.3,0.3-0.3,0.4l3.9,3.2l0,0l0,0c0.3-0.4,0.6-0.8,0.7-1.2c0.5,0.1,1,0.2,1.5,0c0.1,0,0.1,0,0.2,0
								c0.6-0.1,1-0.5,1.3-0.9c0.4,0.4,0.9,0.6,1.5,0.7c0.1,0,0.1,0,0.2,0c0.6,0.1,1.2-0.1,1.7-0.4c0.3,0.5,0.7,1,1.3,1.2
								c0.1,0,0.1,0,0.2,0.1c0.6,0.2,1.3,0.2,1.9,0c0.2,0.6,0.6,1.2,1.1,1.5c0.1,0,0.1,0.1,0.2,0.1c0.6,0.4,1.3,0.5,1.9,0.3
								c0.1,0.6,0.4,1.3,1,1.7c0.1,0,0.1,0.1,0.2,0.1c0.6,0.4,1.3,0.6,1.9,0.5c0,0.7,0.3,1.3,0.8,1.8c0.1,0,0.1,0.1,0.2,0.1
								c0.5,0.4,1.1,0.7,1.7,0.7c-0.1,0.6,0.1,1.2,0.4,1.8c0,0.1,0.1,0.1,0.1,0.2c0.4,0.6,0.9,0.9,1.6,1.1c-0.2,0.6-0.2,1.3,0.1,1.9
								c0,0.1,0.1,0.1,0.1,0.2c0.3,0.6,0.8,1.1,1.4,1.3c-0.3,0.6-0.4,1.3-0.1,2c0,0.1,0.1,0.1,0.1,0.2c0.2,0.7,0.7,1.2,1.3,1.5
								c-0.3,0.6-0.5,1.3-0.3,2c0,0.1,0,0.1,0.1,0.2c0.2,0.7,0.7,1.3,1.2,1.6c-0.4,0.5-0.6,1.3-0.4,2l0.1,0.2
								c0.2,0.7,0.6,1.3,1.2,1.7c-0.4,0.5-0.6,1.2-0.5,2v0.2c0.1,0.7,0.5,1.3,1.1,1.7c-0.4,0.5-0.7,1.2-0.6,2v0.2
								c0.1,0.7,0.5,1.4,1.1,1.8c-0.5,0.5-0.7,1.2-0.7,1.9v0.2c0.1,0.7,0.4,1.4,1,1.8c-0.5,0.5-0.8,1.2-0.7,1.9v0.2
								c0.1,0.7,0.4,1.4,1,1.8c-0.5,0.5-0.8,1.2-0.7,1.9v0.2c0.1,0.8,0.4,1.4,0.9,1.8c-0.5,0.5-0.8,1.2-0.8,1.9v0.2
								c0,0.8,0.4,1.4,0.9,1.9c-0.5,0.5-0.8,1.1-0.8,1.9v0.2c0,0.8,0.3,1.4,0.9,1.9c-0.5,0.5-0.8,1.1-0.8,1.9v0.2
								c0,0.8,0.3,1.4,0.8,1.9c-0.5,0.5-0.9,1.1-0.9,1.9v0.2c0,0.8,0.3,1.4,0.8,1.9c-0.5,0.5-0.9,1.1-0.9,1.9v0.2
								c0,0.8,0.3,1.4,0.8,1.9c-0.5,0.4-0.9,1.1-0.9,1.9v0.2c0,0.8,0.3,1.4,0.8,1.9c-0.5,0.4-0.9,1.1-0.9,1.8v0.2
								c0,0.8,0.3,1.4,0.8,1.9c-0.6,0.4-0.9,1.1-0.9,1.8v0.2c-0.1,0.8,0.2,1.4,0.7,1.9c-0.6,0.4-0.9,1.1-1,1.8v0.2
								c-0.1,0.8,0.2,1.4,0.7,1.9c-0.6,0.4-0.9,1.1-1,1.8v0.2c-0.1,0.8,0.2,1.5,0.7,1.9c-0.6,0.4-0.9,1.1-1,1.8v0.2
								c-0.1,0.8,0.2,1.5,0.7,2c-0.6,0.4-0.9,1.1-1,1.8v0.2c-0.1,0.8,0.2,1.5,0.7,2c-0.6,0.4-0.9,1.1-1,1.8v0.2
								c-0.1,0.8,0.2,1.5,0.7,2c-0.6,0.4-1,1-1,1.8v0.2c-0.1,0.8,0.2,1.5,0.7,2c-0.6,0.4-1,1-1,1.8v0.2c-0.1,0.8,0.2,1.5,0.7,2
								C1363.2,393.2,1368.1,392.1,1368.1,391.4L1368.1,391.4z"/>
							<path class="st11" d="M1370.2,388.5c0.5-0.5,0.9-1.1,0.9-1.9v-0.2c0-0.8-0.3-1.4-0.8-1.9c0.5-0.5,0.9-1.1,0.9-1.9v-0.2
								c0-0.8-0.3-1.4-0.8-1.9c0.5-0.5,0.9-1.1,0.9-1.9v-0.2c0-0.8-0.3-1.4-0.8-1.9c0.5-0.5,0.9-1.1,0.9-1.9v-0.2
								c0-0.8-0.3-1.4-0.8-1.9c0.5-0.5,0.9-1.1,0.9-1.9v-0.2c0-0.8-0.3-1.4-0.8-1.9c0.5-0.5,0.9-1.1,0.9-1.9v-0.2
								c0-0.8-0.3-1.4-0.8-1.9c0.5-0.4,0.9-1.1,0.9-1.9v-0.2c0-0.8-0.3-1.4-0.8-1.9c0.5-0.4,0.9-1.1,0.9-1.9v-0.2
								c0-0.8-0.3-1.4-0.8-1.9c0.5-0.4,0.9-1.1,0.9-1.8v-0.2c0-0.8-0.3-1.4-0.8-1.9c0.5-0.4,0.9-1.1,0.9-1.8v-0.2
								c0-0.8-0.3-1.4-0.8-1.9c0.5-0.4,0.9-1.1,0.9-1.8v-0.2c0.1-0.8-0.2-1.4-0.8-1.9c0.6-0.4,0.9-1.1,0.9-1.8v-0.2
								c0-0.8-0.3-1.5-0.8-1.9c0.5-0.5,0.9-1.1,0.9-1.9v-0.2c0-0.8-0.3-1.5-0.8-1.9c0.5-0.5,0.9-1.1,0.9-1.9v-0.2
								c0-0.8-0.3-1.5-0.8-1.9c0.5-0.5,0.9-1.2,0.8-1.9v-0.2c0-0.8-0.4-1.4-0.9-1.9c0.5-0.5,0.8-1.2,0.8-1.9v-0.2
								c0-0.8-0.4-1.4-1-1.9c0.5-0.5,0.8-1.2,0.8-2v-0.2c-0.1-0.8-0.4-1.4-1-1.9c0.5-0.5,0.8-1.2,0.7-2v-0.2
								c-0.1-0.8-0.5-1.4-1.1-1.8c0.5-0.5,0.7-1.3,0.6-2v-0.2c-0.1-0.8-0.6-1.4-1.2-1.8c0.4-0.6,0.6-1.3,0.5-2.1l-0.1-0.2
								c-0.2-0.8-0.7-1.4-1.3-1.7c0.4-0.6,0.6-1.4,0.3-2.1c0-0.1-0.1-0.2-0.1-0.2c-0.2-0.8-0.8-1.3-1.5-1.6c0.4-0.6,0.4-1.4,0.1-2.2
								c0-0.1-0.1-0.2-0.1-0.2c-0.3-0.7-0.9-1.3-1.7-1.5c0.3-0.7,0.3-1.5-0.1-2.2c0-0.1-0.1-0.1-0.1-0.2c-0.4-0.7-1.1-1.1-1.8-1.2
								c0.2-0.7,0.1-1.5-0.4-2.2c-0.1-0.1-0.1-0.1-0.2-0.2c-0.5-0.6-1.2-1-2-1l0,0c0.1-0.8-0.2-1.5-0.8-2.1
								c-0.1-0.1-0.1-0.1-0.2-0.2c-0.6-0.5-1.4-0.8-2.1-0.6c0-0.8-0.4-1.5-1.1-1.9c-0.1,0-0.2-0.1-0.2-0.1c-0.7-0.5-1.5-0.5-2.2-0.3
								c-0.1-0.7-0.6-1.4-1.3-1.8c-0.1,0-0.2-0.1-0.2-0.1c-0.7-0.4-1.5-0.4-2.2-0.1c-0.2-0.7-0.7-1.3-1.4-1.6
								c-0.1,0-0.2-0.1-0.2-0.1c-0.8-0.3-1.6-0.2-2.2,0.1c-0.3-0.7-0.9-1.3-1.7-1.5c-0.1,0-0.2,0-0.3-0.1c-0.9-0.2-1.8,0.1-2.4,0.7
								c-0.6-0.8-1.7-1.1-2.6-0.8c-0.1,0-0.3,0.1-0.4,0.1c-1.2,0.5-1.9,1.8-1.6,3c-1.1,0.4-1.9,1.5-1.7,2.7c0,0.2,0.1,0.4,0.1,0.5
								l4.9-1.1l0,0l0,0c0-0.1,0-0.2-0.1-0.4h0.1c0,0,0,0,0.1,0c0.4-0.1,0.8-0.4,1.1-0.7c0.3,0.4,0.8,0.7,1.4,0.8c0.1,0,0.1,0,0.2,0
								c0.7,0.2,1.3,0.1,1.9-0.2c0.2,0.6,0.7,1.1,1.4,1.4c0.1,0,0.1,0.1,0.2,0.1c0.7,0.3,1.4,0.2,2,0c0.2,0.6,0.6,1.2,1.2,1.5
								c0.1,0,0.1,0.1,0.2,0.1c0.6,0.3,1.3,0.4,1.9,0.2c0.1,0.6,0.5,1.2,1.1,1.6c0.1,0,0.1,0.1,0.2,0.1c0.6,0.4,1.2,0.5,1.9,0.4
								c0,0.6,0.3,1.3,0.8,1.7c0.1,0,0.1,0.1,0.2,0.1c0.5,0.5,1.1,0.7,1.8,0.7c-0.1,0.6,0.1,1.3,0.5,1.8c0.1,0.1,0.1,0.1,0.1,0.2
								c0.4,0.5,1,0.9,1.7,1c-0.2,0.6-0.1,1.3,0.2,1.9c0,0.1,0.1,0.1,0.1,0.2c0.3,0.6,0.9,1,1.5,1.2c-0.2,0.6-0.3,1.3,0,1.9
								c0,0.1,0.1,0.1,0.1,0.2c0.3,0.6,0.8,1.1,1.4,1.4c-0.3,0.6-0.4,1.3-0.2,2c0,0.1,0,0.1,0.1,0.2c0.2,0.7,0.7,1.2,1.3,1.5
								c-0.4,0.5-0.5,1.2-0.4,2l0.1,0.2c0.2,0.7,0.6,1.3,1.2,1.6c-0.4,0.5-0.6,1.2-0.5,2v0.2c0.1,0.7,0.5,1.3,1.1,1.7
								c-0.4,0.5-0.7,1.2-0.6,1.9v0.2c0.1,0.7,0.5,1.4,1,1.8c-0.5,0.5-0.7,1.2-0.7,1.9v0.2c0.1,0.7,0.4,1.4,0.9,1.8
								c-0.5,0.5-0.8,1.2-0.8,1.9v0.2c0,0.7,0.4,1.4,0.9,1.8c-0.5,0.5-0.8,1.1-0.8,1.9v0.2c0,0.7,0.3,1.4,0.9,1.9
								c-0.5,0.5-0.8,1.1-0.8,1.9v0.2c0,0.8,0.3,1.4,0.8,1.9c-0.5,0.5-0.9,1.1-0.9,1.9v0.2c0,0.8,0.3,1.4,0.8,1.9
								c-0.5,0.4-0.9,1.1-0.9,1.8v0.2c0,0.8,0.2,1.4,0.8,1.9c-0.5,0.4-0.9,1.1-0.9,1.8v0.2c-0.1,0.8,0.2,1.5,0.8,1.9
								c-0.5,0.4-0.9,1.1-0.9,1.9v0.2c0,0.8,0.3,1.4,0.8,1.9c-0.5,0.4-0.9,1.1-0.9,1.9v0.2c0,0.8,0.3,1.5,0.8,1.9
								c-0.5,0.4-0.9,1.1-0.9,1.9v0.2c0,0.8,0.3,1.5,0.8,1.9c-0.5,0.4-0.9,1.1-0.9,1.9v0.2c0,0.8,0.3,1.4,0.8,1.9
								c-0.5,0.5-0.9,1.1-0.9,1.9v0.2c0,0.8,0.3,1.4,0.8,1.9c-0.5,0.5-0.9,1.1-0.9,1.9v0.2c0,0.8,0.3,1.4,0.8,1.9
								c-0.5,0.5-0.9,1.1-0.9,1.9v0.2c0,0.8,0.3,1.4,0.8,1.9c-0.5,0.5-0.9,1.1-0.9,1.9v0.2c0,0.8,0.3,1.4,0.8,1.9
								c-0.5,0.5-0.9,1.1-0.9,1.9v0.2c0,0.8,0.3,1.4,0.8,1.9c-0.5,0.5-0.9,1.1-0.9,1.9v0.2C1366.1,387.2,1370.8,388.9,1370.2,388.5
								L1370.2,388.5z"/>
							<path class="st11" d="M1377.6,386.5c0.5-0.5,0.9-1.1,0.9-1.9v-0.2c0-0.8-0.3-1.4-0.8-1.9c0.5-0.5,0.9-1.1,0.9-1.9v-0.2
								c0-0.8-0.3-1.4-0.8-1.9c0.5-0.5,0.9-1.1,0.9-1.9v-0.2c0-0.8-0.3-1.4-0.9-1.9c0.5-0.5,0.8-1.1,0.8-1.9v-0.2
								c0-0.8-0.3-1.4-0.9-1.9c0.5-0.5,0.8-1.2,0.8-1.9v-0.2c0-0.8-0.3-1.4-0.9-1.9c0.5-0.5,0.8-1.2,0.8-1.9v-0.2
								c0-0.8-0.4-1.4-0.9-1.9c0.5-0.5,0.8-1.2,0.8-1.9v-0.2c0-0.8-0.4-1.4-0.9-1.9c0.5-0.5,0.8-1.2,0.8-1.9v-0.2
								c0-0.8-0.4-1.4-0.9-1.9c0.5-0.5,0.8-1.2,0.8-1.9v-0.2c0-0.8-0.4-1.4-0.9-1.9c0.5-0.5,0.8-1.2,0.8-1.9v-0.2
								c-0.1-0.8-0.4-1.4-1-1.8c0.5-0.5,0.8-1.2,0.8-2v-0.2c-0.1-0.8-0.4-1.4-1-1.8c0.5-0.5,0.8-1.2,0.7-2v-0.2
								c-0.1-0.8-0.4-1.4-1-1.8c0.5-0.5,0.8-1.2,0.7-2v-0.2c-0.1-0.8-0.4-1.4-1-1.8c0.5-0.5,0.8-1.2,0.7-2v-0.2
								c-0.1-0.8-0.5-1.4-1.1-1.8c0.5-0.5,0.7-1.2,0.7-2v-0.2c-0.1-0.8-0.5-1.4-1.1-1.8c0.5-0.5,0.7-1.2,0.6-2v-0.2
								c-0.1-0.8-0.5-1.4-1.1-1.8c0.5-0.5,0.7-1.3,0.6-2v-0.2c-0.1-0.8-0.6-1.4-1.2-1.8c0.4-0.5,0.7-1.3,0.5-2v-0.2
								c-0.1-0.8-0.6-1.4-1.2-1.7c0.4-0.6,0.6-1.3,0.5-2l-0.1-0.2c-0.2-0.8-0.6-1.4-1.2-1.7c0.4-0.6,0.6-1.3,0.4-2.1l-0.1-0.2
								c-0.2-0.8-0.7-1.3-1.3-1.7c0.4-0.6,0.6-1.4,0.3-2.1l-0.1-0.2c-0.2-0.8-0.8-1.3-1.4-1.6c0.4-0.6,0.5-1.4,0.2-2.1l-0.1-0.2
								c-0.3-0.7-0.8-1.3-1.5-1.5c0.3-0.6,0.4-1.5,0.1-2.2c0-0.1-0.1-0.2-0.1-0.2c-0.3-0.7-1-1.2-1.7-1.4c0.3-0.7,0.2-1.5-0.2-2.2
								c-0.1-0.1-0.1-0.1-0.1-0.2c-0.4-0.7-1.2-1.1-1.9-1.2c0.2-0.7,0-1.5-0.5-2.1l-0.2-0.2c-0.5-0.6-1.2-0.9-1.9-0.9l0,0
								c0.1-0.7-0.2-1.5-0.7-2c-0.1-0.1-0.1-0.1-0.2-0.2c-0.6-0.6-1.3-0.8-2.1-0.7c0-0.8-0.3-1.5-1-2c-0.1,0-0.1-0.1-0.2-0.2
								c-0.7-0.5-1.5-0.6-2.2-0.4c-0.1-0.8-0.6-1.5-1.3-1.8c-0.1,0-0.2-0.1-0.2-0.1c-0.7-0.4-1.6-0.4-2.3,0
								c-0.3-0.7-0.9-1.4-1.7-1.6c-0.1,0-0.2,0-0.3-0.1c-0.8-0.2-1.7,0-2.3,0.5c-0.4-0.7-1.2-1.1-2-1.2c-0.1,0-0.2,0-0.3,0
								c-0.9,0-1.6,0.4-2.1,1c-0.6-0.5-1.4-0.8-2.3-0.6c-0.1,0-0.2,0-0.3,0.1c-0.8,0.2-1.5,0.8-1.8,1.5c-0.7-0.4-1.6-0.4-2.3-0.1
								c-0.1,0-0.2,0.1-0.2,0.1c-0.8,0.4-1.2,1.1-1.4,1.8c-0.7-0.2-1.6-0.1-2.2,0.4c-0.1,0.1-0.2,0.1-0.2,0.2c-0.7,0.5-1,1.3-1,2
								c-0.8-0.1-1.6,0.2-2.2,0.8c-0.2,0.2-0.2,0.3-0.2,0.3c-0.9,1.1-0.7,2.7,0.4,3.5c1.1,0.9,2.7,0.7,3.5-0.4c0,0,0.1,0,0.1-0.1
								c0.4-0.5,0.6-1.1,0.6-1.7c0.6,0.1,1.3-0.1,1.8-0.5c0.1,0,0.1-0.1,0.2-0.1c0.5-0.4,0.9-1,1-1.6c0.6,0.2,1.2,0.1,1.8-0.2
								c0.1,0,0.1-0.1,0.2-0.1c0.6-0.3,1-0.8,1.2-1.3c0.5,0.3,1.2,0.4,1.8,0.2c0.1,0,0.1,0,0.2,0c0.6-0.1,1.2-0.5,1.5-1
								c0.4,0.4,1,0.6,1.7,0.7c0.1,0,0.1,0,0.2,0c0.6,0,1.2-0.2,1.7-0.6c0.3,0.5,0.8,0.9,1.4,1.1c0.1,0,0.1,0,0.2,0.1
								c0.6,0.2,1.3,0.1,1.8-0.2c0.2,0.6,0.6,1.1,1.2,1.4c0.1,0,0.1,0.1,0.2,0.1c0.6,0.3,1.3,0.4,1.9,0.2c0.1,0.6,0.4,1.2,1,1.6
								c0.1,0,0.1,0.1,0.2,0.1c0.6,0.4,1.2,0.6,1.9,0.5c0,0.6,0.3,1.3,0.8,1.8c0.1,0,0.1,0.1,0.2,0.2c0.5,0.5,1.2,0.7,1.8,0.7
								c-0.1,0.7,0.1,1.3,0.6,1.9l0.2,0.2c0.4,0.5,1.1,0.8,1.7,0.9c-0.1,0.6,0,1.3,0.3,1.9c0,0.1,0.1,0.1,0.1,0.2
								c0.4,0.6,0.9,1,1.6,1.1c-0.2,0.6-0.2,1.3,0.1,1.9c0,0.1,0.1,0.1,0.1,0.2c0.3,0.6,0.8,1.1,1.4,1.4c-0.3,0.6-0.4,1.3-0.1,2
								l0.1,0.2c0.2,0.7,0.8,1.2,1.4,1.5c-0.3,0.6-0.5,1.3-0.3,2l0.1,0.2c0.2,0.7,0.7,1.3,1.3,1.6c-0.4,0.6-0.5,1.3-0.4,2l0.1,0.2
								c0.2,0.7,0.6,1.3,1.2,1.6c-0.4,0.5-0.6,1.3-0.4,2l0.1,0.2c0.2,0.7,0.6,1.3,1.2,1.7c-0.4,0.5-0.6,1.2-0.5,2v0.2
								c0.1,0.7,0.6,1.3,1.1,1.7c-0.4,0.5-0.7,1.2-0.6,2v0.2c0.1,0.7,0.5,1.4,1.1,1.7c-0.4,0.5-0.7,1.2-0.6,2v0.2
								c0.1,0.7,0.5,1.4,1.1,1.8c-0.5,0.5-0.7,1.2-0.6,2v0.2c0.1,0.7,0.5,1.4,1,1.8c-0.5,0.5-0.7,1.2-0.7,2v0.2
								c0.1,0.8,0.5,1.4,1,1.8c-0.5,0.5-0.8,1.2-0.7,2v0.2c0.1,0.8,0.4,1.4,1,1.8c-0.5,0.5-0.8,1.2-0.7,1.9v0.2
								c0.1,0.8,0.4,1.4,1,1.8c-0.5,0.5-0.8,1.2-0.7,1.9v0.2c0.1,0.8,0.4,1.4,1,1.8c-0.5,0.5-0.8,1.2-0.8,1.9v0.2
								c0.1,0.8,0.4,1.4,0.9,1.8c-0.5,0.5-0.8,1.2-0.8,1.9v0.2c0,0.8,0.4,1.4,0.9,1.8c-0.5,0.5-0.8,1.2-0.8,1.9v0.2
								c0,0.8,0.4,1.4,0.9,1.9c-0.5,0.5-0.8,1.2-0.8,1.9v0.2c0,0.8,0.4,1.4,0.9,1.9c-0.5,0.5-0.8,1.2-0.8,1.9v0.2
								c0,0.8,0.4,1.4,0.9,1.9c-0.5,0.5-0.8,1.2-0.8,1.9l0,0v0.2c0,0.8,0.3,1.4,0.9,1.9c-0.5,0.5-0.8,1.1-0.8,1.9v0.2
								c0,0.8,0.3,1.4,0.9,1.9c-0.5,0.5-0.8,1.1-0.8,1.9v0.2c0,0.8,0.3,1.4,0.8,1.9c-0.5,0.5-0.9,1.1-0.9,1.9v0.2
								c0,0.8,0.3,1.4,0.8,1.9c-0.5,0.5-0.9,1.1-0.9,1.9v0.2c0,0.8,0.3,1.4,0.8,1.9C1373.7,386.9,1378.1,386.9,1377.6,386.5
								L1377.6,386.5z"/>
						</g>
						<g>
							<path class="st11" d="M1325.9,389.9v-0.2c-0.1-0.8,0.2-1.5,0.7-2c-0.6-0.4-0.9-1.1-1-1.8v-0.2c-0.1-0.8,0.2-1.5,0.7-2
								c-0.6-0.4-0.9-1.1-1-1.8v-0.2c-0.1-0.8,0.2-1.5,0.7-2c-0.6-0.4-0.9-1.1-1-1.8v-0.2c-0.1-0.8,0.2-1.5,0.7-2
								c-0.6-0.4-0.9-1.1-1-1.8v-0.2c-0.1-0.8,0.2-1.5,0.7-1.9c-0.6-0.4-0.9-1.1-1-1.8v-0.2c-0.1-0.8,0.2-1.5,0.7-1.9
								c-0.6-0.4-0.9-1.1-1-1.8v-0.2c-0.1-0.8,0.2-1.5,0.8-1.9c-0.6-0.4-0.9-1.1-0.9-1.9v-0.2c-0.1-0.8,0.2-1.5,0.8-1.9
								c-0.6-0.4-0.9-1.1-0.9-1.9v-0.2c0-0.8,0.3-1.5,0.8-1.9c-0.6-0.4-0.9-1.1-0.9-1.9v-0.2c0-0.8,0.3-1.5,0.8-1.9
								c-0.5-0.5-0.9-1.1-0.9-1.9v-0.2c0-0.8,0.3-1.5,0.8-1.9c-0.5-0.5-0.9-1.1-0.9-1.9v-0.2c0-0.8,0.3-1.4,0.8-1.9
								c-0.5-0.5-0.9-1.1-0.9-1.9v-0.2c0-0.8,0.3-1.5,0.8-1.9c-0.5-0.5-0.9-1.1-0.9-1.9v-0.2c0-0.8,0.3-1.4,0.8-1.9
								c-0.5-0.5-0.9-1.1-0.9-1.9v-0.2c0-0.8,0.3-1.4,0.9-1.9c-0.5-0.5-0.8-1.1-0.8-1.9v-0.2c0-0.8,0.3-1.4,0.9-1.9
								c-0.5-0.5-0.8-1.2-0.8-1.9v-0.2c0-0.8,0.4-1.4,0.9-1.9c-0.5-0.5-0.8-1.2-0.8-1.9v-0.2c0-0.8,0.4-1.4,1-1.9
								c-0.5-0.5-0.8-1.2-0.8-2v-0.2c0.1-0.8,0.4-1.4,1-1.9c-0.5-0.5-0.8-1.2-0.7-2v-0.2c0.1-0.8,0.5-1.4,1.1-1.8
								c-0.5-0.5-0.7-1.3-0.6-2.1c0-0.1,0-0.2,0-0.3c0.1-0.8,0.6-1.4,1.3-1.8c-0.4-0.6-0.6-1.4-0.4-2.2c0-0.1,0.1-0.2,0.1-0.3
								c0.2-0.8,0.8-1.4,1.6-1.6c-0.3-0.6-0.4-1.4,0-2.1l0.1-0.2c0.3-0.7,0.9-1.2,1.6-1.4c-0.3-0.6-0.3-1.4,0.1-2.1l0.1-0.2
								c0.3-0.7,0.9-1.2,1.6-1.3c-0.3-0.7-0.2-1.4,0.1-2.1l0.1-0.2c0.4-0.7,1-1.1,1.7-1.3c-0.2-0.7-0.2-1.5,0.3-2.1l0.1-0.2
								c0.4-0.7,1.1-1.1,1.8-1.2c-0.2-0.7,0-1.5,0.5-2.1c0.1-0.1,0.1-0.1,0.2-0.2c0.5-0.6,1.3-1,2.1-1c-0.1-0.8,0.2-1.6,0.9-2.1
								c0.1-0.1,0.2-0.1,0.2-0.2c0.8-0.6,1.8-0.7,2.6-0.3c0.3-1,1.3-1.7,2.3-1.7h0.1c0.1,0,0.2,0,0.4,0c1.2,0.1,2.1,1,2.3,2.1
								c1-0.2,2.1,0.2,2.7,1.2c0.1,0.2,0.2,0.4,0.2,0.4l-4.6,2.2l0,0l0,0c-0.2-0.3-0.3-0.6-0.3-0.9c-0.2,0-0.4,0.1-0.7,0h-0.1
								c-0.4,0-0.7-0.1-1-0.2c-0.2,0.4-0.4,0.8-0.8,1.1c-0.1,0-0.1,0.1-0.2,0.1c-0.5,0.4-1.1,0.6-1.7,0.6c0.1,0.6-0.1,1.3-0.5,1.8
								c-0.1,0.1-0.1,0.1-0.1,0.2c-0.4,0.5-1.1,0.9-1.7,1c0.2,0.6,0.1,1.3-0.3,1.9l-0.1,0.2c-0.4,0.6-1,1-1.7,1.1
								c0.2,0.6,0.2,1.4-0.2,2l-0.1,0.2c-0.3,0.6-0.9,1.1-1.6,1.2c0.2,0.6,0.2,1.4-0.1,2l-0.1,0.2c-0.3,0.7-0.9,1.1-1.6,1.3
								c0.3,0.6,0.3,1.4,0,2l-0.1,0.2c-0.3,0.7-0.8,1.1-1.5,1.4c0.3,0.6,0.3,1.2,0.2,1.9c0,0.1,0,0.1-0.1,0.2
								c-0.2,0.7-0.6,1.2-1.2,1.5c0.4,0.5,0.6,1.2,0.4,1.9c0,0.1,0,0.1,0,0.2c-0.1,0.7-0.5,1.3-1.1,1.7c0.4,0.5,0.7,1.2,0.6,1.9v0.2
								c-0.1,0.7-0.5,1.4-1,1.8c0.5,0.5,0.8,1.2,0.7,1.9v0.2c-0.1,0.7-0.4,1.4-0.9,1.8c0.5,0.5,0.8,1.2,0.8,1.9v0.2
								c0,0.7-0.4,1.4-0.9,1.8c0.5,0.5,0.8,1.1,0.8,1.9v0.2c0,0.8-0.4,1.4-0.9,1.9c0.5,0.5,0.8,1.1,0.8,1.9v0.2
								c0,0.8-0.3,1.4-0.9,1.9c0.5,0.5,0.8,1.1,0.8,1.9v0.2c0,0.8-0.3,1.4-0.8,1.9c0.5,0.5,0.9,1.1,0.9,1.9v0.2
								c0,0.8-0.3,1.4-0.8,1.9c0.5,0.5,0.9,1.1,0.9,1.9v0.2c0,0.8-0.3,1.4-0.8,1.9c0.5,0.5,0.9,1.1,0.9,1.9v0.2
								c0,0.8-0.3,1.4-0.8,1.9c0.5,0.5,0.9,1.1,0.9,1.9v0.2c0,0.8-0.3,1.4-0.8,1.9c0.5,0.4,0.9,1.1,0.9,1.8v0.2
								c0,0.8-0.3,1.4-0.8,1.9c0.5,0.4,0.9,1.1,0.9,1.8v0.2c0,0.8-0.3,1.4-0.8,1.9c0.5,0.4,0.9,1.1,0.9,1.8v0.2
								c0.1,0.8-0.2,1.4-0.8,1.9c0.6,0.4,0.9,1.1,0.9,1.8v0.2c0.1,0.8-0.2,1.5-0.7,1.9c0.6,0.4,0.9,1.1,1,1.8v0.2
								c0.1,0.8-0.2,1.5-0.7,1.9c0.6,0.4,0.9,1.1,1,1.8v0.2c0.1,0.8-0.2,1.5-0.7,1.9c0.6,0.4,0.9,1.1,1,1.8v0.2
								c0.1,0.8-0.2,1.5-0.7,1.9c0.6,0.4,0.9,1.1,1,1.8v0.2c0.1,0.8-0.2,1.5-0.7,1.9c0.6,0.4,0.9,1.1,1,1.8v0.2
								c0.1,0.8-0.2,1.5-0.7,1.9c0.6,0.4,0.9,1.1,1,1.8v0.2C1331,390.3,1325.9,390.7,1325.9,389.9L1325.9,389.9z"/>
							<path class="st11" d="M1322,389.2V389c-0.1-0.8,0.2-1.5,0.7-2c-0.6-0.4-1-1-1.1-1.8V385c-0.1-0.8,0.2-1.5,0.7-2
								c-0.6-0.4-1-1-1-1.8V381c-0.1-0.8,0.2-1.5,0.7-2c-0.6-0.4-1-1.1-1-1.8V377c-0.1-0.8,0.2-1.5,0.7-2c-0.6-0.4-0.9-1.1-1-1.8
								V373c-0.1-0.8,0.2-1.5,0.7-2c-0.6-0.4-0.9-1.1-1-1.8V369c-0.1-0.8,0.2-1.5,0.7-2c-0.6-0.4-0.9-1.1-1-1.8V365
								c-0.1-0.8,0.2-1.5,0.7-2c-0.6-0.4-0.9-1.1-1-1.8V361c-0.1-0.8,0.2-1.5,0.7-2c-0.6-0.4-0.9-1.1-1-1.9v-0.2
								c-0.1-0.8,0.2-1.5,0.8-1.9c-0.6-0.4-0.9-1.1-0.9-1.9v-0.5c0-0.8,0.3-1.5,0.8-1.9c-0.5-0.5-0.9-1.1-0.9-1.9v-0.2
								c0-0.8,0.3-1.4,0.8-1.9c-0.5-0.5-0.9-1.1-0.9-1.9v-0.2c0-0.8,0.3-1.5,0.8-1.9c-0.5-0.5-0.9-1.1-0.9-1.9v-0.2
								c0-0.8,0.3-1.4,0.9-1.9c-0.5-0.5-0.9-1.1-0.8-1.9v-0.2c0-0.8,0.3-1.4,0.9-1.9c-0.5-0.5-0.8-1.2-0.8-1.9v-0.2
								c0-0.8,0.4-1.4,0.9-1.9c-0.5-0.5-0.8-1.2-0.8-1.9v-0.2c0-0.8,0.4-1.4,1-1.9c-0.5-0.5-0.8-1.2-0.8-2v-0.2
								c0.1-0.8,0.4-1.4,1-1.9c-0.5-0.5-0.8-1.2-0.7-2v-0.2c0.1-0.8,0.5-1.4,1-1.8c-0.5-0.5-0.7-1.2-0.7-2v-0.2
								c0.1-0.8,0.5-1.4,1.1-1.8c-0.5-0.5-0.7-1.3-0.6-2v-0.2c0.1-0.8,0.6-1.4,1.2-1.8c-0.4-0.6-0.7-1.3-0.5-2.1l0.1-0.2
								c0.2-0.8,0.6-1.4,1.3-1.7c-0.4-0.6-0.6-1.3-0.4-2.1c0-0.1,0-0.2,0.1-0.2c0.2-0.8,0.7-1.4,1.4-1.7c-0.4-0.6-0.5-1.4-0.3-2.1
								c0-0.1,0.1-0.2,0.1-0.2c0.2-0.8,0.8-1.3,1.5-1.6c-0.3-0.7-0.4-1.5-0.1-2.2c0-0.1,0.1-0.2,0.1-0.2c0.3-0.7,1-1.2,1.7-1.4
								c-0.3-0.7-0.2-1.5,0.3-2.2c0.1-0.1,0.1-0.1,0.2-0.2c0.5-0.7,1.2-1.1,2-1.1c-0.1-0.8,0.1-1.6,0.8-2.2c0.1-0.1,0.1-0.1,0.2-0.2
								c0.6-0.5,1.3-0.8,2.1-0.6c0-0.7,0.3-1.5,0.9-2c0.1,0,0.1-0.1,0.2-0.2c0.6-0.5,1.4-0.6,2.1-0.5c0.1-0.7,0.5-1.4,1.2-1.9
								c0.1,0,0.2-0.1,0.2-0.1c0.7-0.4,1.5-0.5,2.2-0.2c0.2-0.8,0.7-1.4,1.5-1.7c0.1,0,0.2-0.1,0.2-0.1c0.8-0.3,1.7-0.2,2.3,0.2
								c0.4-0.7,1.1-1.3,1.9-1.4c0.1,0,0.2,0,0.3,0c0.9-0.1,1.7,0.3,2.3,1c0.6-0.6,1.5-0.9,2.4-0.6c0.1,0,0.2,0.1,0.3,0.1
								c0.9,0.3,1.6,1,1.7,1.9c0.9-0.3,1.9-0.1,2.6,0.6c0.2,0.2,0.3,0.3,0.3,0.4l-3.9,3.2l0,0l0,0c-0.3-0.4-0.6-0.8-0.7-1.2
								c-0.5,0.2-1,0.2-1.5,0c-0.1,0-0.1,0-0.2,0c-0.6-0.1-1-0.5-1.3-0.9c-0.4,0.4-0.9,0.6-1.5,0.7c-0.1,0-0.1,0-0.2,0
								c-0.6,0.1-1.2-0.1-1.7-0.4c-0.3,0.5-0.7,1-1.3,1.2c-0.1,0-0.1,0-0.2,0.1c-0.6,0.2-1.3,0.2-1.9,0c-0.2,0.6-0.6,1.2-1.1,1.5
								c-0.1,0-0.1,0.1-0.2,0.1c-0.6,0.4-1.3,0.5-1.9,0.3c-0.1,0.6-0.4,1.3-0.9,1.7c-0.1,0-0.1,0.1-0.2,0.1
								c-0.6,0.5-1.2,0.6-1.9,0.5c0,0.7-0.3,1.3-0.8,1.8c-0.1,0-0.1,0.1-0.2,0.1c-0.5,0.4-1.1,0.7-1.7,0.7c0.1,0.6,0,1.2-0.4,1.8
								c0,0.1-0.1,0.1-0.1,0.2c-0.4,0.6-0.9,0.9-1.6,1.1c0.2,0.6,0.2,1.3-0.1,1.9c0,0.1-0.1,0.1-0.1,0.2c-0.3,0.6-0.8,1.1-1.4,1.3
								c0.3,0.6,0.4,1.3,0.2,2c0,0.1-0.1,0.1-0.1,0.2c-0.2,0.7-0.7,1.2-1.3,1.5c0.4,0.6,0.5,1.3,0.3,2c0,0.1,0,0.1-0.1,0.2
								c-0.2,0.7-0.6,1.3-1.2,1.6c0.4,0.5,0.6,1.2,0.4,2l-0.1,0.2c-0.1,0.7-0.6,1.3-1.2,1.7c0.4,0.5,0.6,1.2,0.5,2v0.2
								c-0.1,0.7-0.5,1.3-1.1,1.7c0.4,0.5,0.7,1.2,0.6,2v0.2c-0.1,0.7-0.5,1.4-1,1.8c0.5,0.5,0.7,1.2,0.7,1.9v0.2
								c-0.1,0.7-0.4,1.4-1,1.8c0.5,0.5,0.8,1.2,0.7,1.9v0.2c-0.1,0.7-0.4,1.4-1,1.8c0.5,0.5,0.8,1.2,0.8,1.9v0.2
								c0,0.8-0.4,1.4-0.9,1.8c0.5,0.5,0.8,1.1,0.8,1.9v0.2c0,0.8-0.4,1.4-0.9,1.9c0.5,0.5,0.8,1.1,0.8,1.9v0.2
								c0,0.8-0.3,1.4-0.9,1.9c0.5,0.5,0.8,1.1,0.8,1.9v0.2c0,0.8-0.3,1.4-0.8,1.9c0.5,0.5,0.9,1.1,0.9,1.9v0.2
								c0,0.8-0.3,1.4-0.8,1.9c0.5,0.5,0.9,1.1,0.9,1.9v0.2c0,0.8-0.3,1.4-0.8,1.9c0.5,0.4,0.9,1.1,0.9,1.8v0.2
								c0,0.8-0.3,1.4-0.8,1.9c0.5,0.4,0.9,1.1,0.9,1.8v0.2c0.1,0.8-0.2,1.5-0.7,1.9c0.6,0.4,0.9,1.1,1,1.8v0.2
								c0.1,0.8-0.2,1.4-0.7,1.9c0.6,0.4,0.9,1.1,1,1.8v0.2c0.1,0.8-0.2,1.4-0.7,1.9c0.6,0.4,0.9,1.1,1,1.8v0.2
								c0.1,0.8-0.2,1.5-0.7,2c0.6,0.4,0.9,1.1,1,1.8v0.2c0.1,0.8-0.2,1.5-0.7,2c0.6,0.4,0.9,1.1,1,1.8v0.2c0.1,0.8-0.2,1.5-0.7,2
								c0.6,0.4,1,1,1,1.8v0.2c0.1,0.8-0.2,1.5-0.7,2c0.6,0.4,1,1,1,1.8v0.2c0.1,0.8-0.2,1.5-0.7,2c0.6,0.4,1,1,1.1,1.8v0.2
								c0.1,0.8-0.2,1.5-0.6,2C1327,391,1322.1,389.9,1322,389.2L1322,389.2z"/>
							<path class="st11" d="M1314.1,386.8v-0.2c0-0.8,0.4-1.4,0.9-1.9c-0.5-0.5-0.8-1.2-0.8-1.9v-0.2c0-0.8,0.4-1.4,0.9-1.9
								c-0.5-0.5-0.8-1.2-0.8-1.9v-0.2c0-0.8,0.3-1.4,0.9-1.9c-0.5-0.5-0.8-1.2-0.8-1.9v-0.2c0-0.8,0.3-1.4,0.9-1.9
								c-0.5-0.5-0.8-1.2-0.8-1.9v-0.2c0-0.8,0.3-1.4,0.9-1.9c-0.5-0.5-0.8-1.1-0.8-1.9v-0.2c0-0.8,0.3-1.4,0.9-1.9
								c-0.5-0.5-0.8-1.1-0.8-1.9v-0.2c0-0.8,0.3-1.4,0.9-1.9c-0.5-0.5-0.8-1.1-0.8-1.9v-0.2c0-0.8,0.3-1.4,0.8-1.9
								c-0.5-0.5-0.9-1.1-0.9-1.9v-0.2c0-0.8,0.3-1.4,0.8-1.9c-0.5-0.5-0.9-1.1-0.9-1.9v-0.2c0-0.8,0.3-1.4,0.8-1.9
								c-0.5-0.5-0.9-1.1-0.9-1.9v-0.2c0-0.8,0.3-1.4,0.8-1.9c-0.5-0.5-0.9-1.1-0.9-1.9v-0.2c0-0.8,0.3-1.4,0.8-1.9
								c-0.5-0.5-0.9-1.1-0.9-1.9v-0.2c0-0.8,0.3-1.4,0.8-1.9c-0.5-0.5-0.9-1.1-0.9-1.9v-0.2c0-0.8,0.3-1.5,0.9-1.9
								c-0.5-0.5-0.8-1.2-0.8-1.9v-0.2c0-0.8,0.4-1.4,0.9-1.9c-0.5-0.5-0.8-1.2-0.8-2v-0.2c0-0.8,0.4-1.4,1-1.9
								c-0.5-0.5-0.8-1.2-0.7-2v-0.2c0.1-0.8,0.4-1.4,1-1.9c-0.5-0.5-0.8-1.2-0.7-2v-0.2c0.1-0.8,0.5-1.4,1.1-1.8
								c-0.5-0.5-0.7-1.3-0.6-2v-0.2c0.1-0.8,0.6-1.4,1.2-1.8c-0.4-0.6-0.7-1.3-0.5-2.1l0.1-0.2c0.2-0.8,0.6-1.4,1.2-1.7
								c-0.4-0.6-0.6-1.4-0.4-2.1l0.1-0.2c0.2-0.8,0.7-1.4,1.4-1.7c-0.4-0.6-0.5-1.4-0.3-2.1c0-0.1,0.1-0.2,0.1-0.2
								c0.3-0.8,0.8-1.3,1.5-1.5c-0.3-0.7-0.4-1.5-0.1-2.2c0-0.1,0.1-0.2,0.1-0.2c0.3-0.7,1-1.2,1.7-1.4c-0.3-0.7-0.2-1.5,0.2-2.2
								c0.1-0.1,0.1-0.1,0.1-0.2c0.4-0.7,1.1-1.1,1.9-1.2c-0.2-0.7,0-1.5,0.5-2.2c0.1-0.1,0.1-0.1,0.2-0.2c0.5-0.6,1.3-0.9,2-0.9
								l0,0c-0.1-0.8,0.2-1.5,0.8-2.1c0.1-0.1,0.1-0.1,0.2-0.2c0.6-0.5,1.4-0.7,2.2-0.6c0.1-0.8,0.4-1.5,1.1-1.9
								c0.1,0,0.2-0.1,0.2-0.1c0.7-0.4,1.5-0.5,2.2-0.3c0.2-0.7,0.6-1.4,1.3-1.7c0.1,0,0.2-0.1,0.2-0.1c0.7-0.4,1.5-0.3,2.2,0
								c0.2-0.7,0.8-1.3,1.5-1.6c0.1,0,0.2-0.1,0.2-0.1c0.8-0.3,1.6-0.2,2.2,0.2c0.3-0.7,0.9-1.2,1.8-1.4c0.1,0,0.2,0,0.3-0.1
								c0.9-0.2,1.8,0.1,2.4,0.8c0.6-0.7,1.7-1,2.7-0.7c0.1,0,0.3,0.1,0.4,0.1c1.2,0.5,1.8,1.9,1.5,3.1c1.1,0.4,1.8,1.6,1.6,2.8
								c0,0.2-0.1,0.4-0.1,0.5l-4.9-1.3l0,0l0,0c0-0.1,0.1-0.2,0.1-0.4h-0.1c0,0,0,0-0.1,0c-0.4-0.1-0.8-0.4-1.1-0.7
								c-0.3,0.4-0.8,0.7-1.4,0.8c-0.1,0-0.1,0-0.2,0c-0.7,0.1-1.3,0-1.9-0.3c-0.3,0.6-0.8,1.1-1.4,1.3c-0.1,0-0.1,0-0.2,0.1
								c-0.7,0.3-1.4,0.2-2-0.1c-0.2,0.6-0.7,1.2-1.3,1.5c-0.1,0-0.1,0.1-0.2,0.1c-0.6,0.3-1.3,0.3-1.9,0.1
								c-0.1,0.6-0.5,1.2-1.1,1.6c-0.1,0-0.1,0.1-0.2,0.1c-0.6,0.4-1.2,0.5-1.9,0.4c-0.1,0.6-0.3,1.2-0.9,1.7
								c-0.1,0-0.1,0.1-0.2,0.1c-0.5,0.5-1.2,0.7-1.8,0.6c0.1,0.6-0.1,1.3-0.6,1.8c-0.1,0.1-0.1,0.1-0.1,0.2
								c-0.4,0.5-1.1,0.8-1.7,0.9c0.1,0.6,0.1,1.3-0.3,1.9c0,0.1-0.1,0.1-0.1,0.2c-0.4,0.6-0.9,1-1.6,1.1c0.2,0.6,0.2,1.3-0.1,1.9
								c0,0.1-0.1,0.1-0.1,0.2c-0.3,0.6-0.8,1.1-1.4,1.3c0.3,0.6,0.4,1.3,0.1,2c0,0.1-0.1,0.1-0.1,0.2c-0.2,0.7-0.7,1.2-1.3,1.5
								c0.4,0.6,0.5,1.3,0.3,2l-0.1,0.2c-0.2,0.7-0.6,1.3-1.2,1.6c0.4,0.5,0.6,1.2,0.4,2v0.2c-0.1,0.7-0.6,1.3-1.1,1.7
								c0.4,0.5,0.7,1.2,0.5,2v0.2c-0.1,0.7-0.5,1.3-1.1,1.7c0.4,0.5,0.7,1.2,0.6,1.9v0.2c-0.1,0.7-0.5,1.4-1,1.8
								c0.5,0.5,0.8,1.2,0.7,1.9v0.2c-0.1,0.7-0.4,1.4-1,1.8c0.5,0.5,0.8,1.2,0.8,1.9v0.2c0,0.7-0.4,1.4-0.9,1.8
								c0.5,0.5,0.8,1.1,0.8,1.9v0.2c0,0.7-0.4,1.4-0.9,1.9c0.5,0.5,0.8,1.1,0.8,1.9v0.2c0,0.8-0.3,1.4-0.8,1.9
								c0.5,0.5,0.8,1.1,0.9,1.9v0.2c0,0.8-0.3,1.4-0.8,1.9c0.5,0.5,0.9,1.1,0.9,1.9v0.2c0,0.8-0.3,1.4-0.8,1.9
								c0.5,0.5,0.9,1.1,0.9,1.9v0.2c0,0.8-0.3,1.4-0.8,1.9c0.5,0.5,0.9,1.1,0.9,1.9v0.2c0,0.8-0.3,1.4-0.8,1.9
								c0.5,0.5,0.9,1.1,0.9,1.9v0.2c0,0.8-0.3,1.4-0.8,1.9c0.5,0.5,0.9,1.1,0.9,1.9v0.2c0,0.8-0.3,1.4-0.9,1.9
								c0.5,0.5,0.9,1.1,0.8,1.9v0.2c0,0.8-0.3,1.4-0.9,1.9c0.5,0.5,0.8,1.1,0.8,1.9v0.2c0,0.8-0.3,1.4-0.9,1.9
								c0.5,0.5,0.8,1.2,0.8,1.9v0.2c0,0.8-0.3,1.4-0.9,1.9c0.5,0.5,0.8,1.2,0.8,1.9v0.2c0,0.8-0.3,1.4-0.9,1.9
								c0.5,0.5,0.8,1.2,0.8,1.9v0.2c0,0.8-0.3,1.4-0.9,1.9c0.5,0.5,0.8,1.2,0.8,1.9v0.2c0,0.8-0.4,1.4-0.9,1.9
								c0.5,0.5,0.8,1.2,0.8,1.9v0.2C1319.2,387.6,1314.1,387.5,1314.1,386.8L1314.1,386.8z"/>
							<path class="st11" d="M1306.5,384.1v-0.2c0-0.8,0.4-1.4,0.9-1.9c-0.5-0.5-0.8-1.2-0.8-1.9v-0.2c0-0.8,0.4-1.4,0.9-1.9
								c-0.5-0.5-0.8-1.2-0.8-1.9v-0.2c0-0.8,0.4-1.4,0.9-1.9c-0.5-0.5-0.8-1.2-0.8-1.9v-0.2c0-0.8,0.4-1.4,0.9-1.9
								c-0.5-0.5-0.8-1.2-0.8-1.9v-0.2c0-0.8,0.4-1.4,0.9-1.9c-0.5-0.5-0.8-1.2-0.8-1.9v-0.2c0.1-0.8,0.4-1.4,1-1.9
								c-0.5-0.5-0.8-1.2-0.8-1.9v-0.5c0.1-0.8,0.4-1.4,1-1.8c-0.5-0.5-0.8-1.2-0.8-1.9v-0.3c0.1-0.8,0.4-1.4,1-1.8
								c-0.5-0.5-0.8-1.2-0.7-2v-0.2c0.1-0.8,0.4-1.4,1-1.8c-0.5-0.5-0.8-1.2-0.7-2v-0.2c0.1-0.8,0.4-1.4,1-1.8
								c-0.5-0.5-0.8-1.2-0.7-2v-0.2c0.1-0.8,0.4-1.4,1-1.8c-0.5-0.5-0.8-1.2-0.7-2v-0.2c0.1-0.8,0.5-1.4,1-1.8
								c-0.5-0.5-0.7-1.2-0.7-2v-0.2c0.1-0.8,0.5-1.4,1.1-1.8c-0.5-0.5-0.7-1.2-0.6-2v-0.2c0.1-0.8,0.5-1.4,1.1-1.8
								c-0.5-0.5-0.7-1.2-0.6-2v-0.2c0.1-0.8,0.5-1.4,1.1-1.8c-0.5-0.5-0.7-1.3-0.6-2v-0.2c0.1-0.8,0.5-1.4,1.1-1.8
								c-0.4-0.5-0.7-1.3-0.6-2v-0.2c0.1-0.8,0.6-1.4,1.2-1.7c-0.4-0.5-0.7-1.3-0.5-2v-0.2c0.1-0.8,0.6-1.4,1.2-1.7
								c-0.4-0.6-0.6-1.3-0.5-2l0.1-0.2c0.2-0.8,0.6-1.4,1.2-1.7c-0.4-0.6-0.6-1.3-0.4-2.1l0.1-0.2c0.2-0.8,0.7-1.3,1.3-1.7
								c-0.4-0.6-0.6-1.4-0.3-2.1l0.1-0.2c0.2-0.7,0.7-1.3,1.4-1.6c-0.4-0.6-0.5-1.4-0.3-2.1l0.1-0.2c0.2-0.7,0.8-1.3,1.5-1.6
								c-0.3-0.6-0.4-1.4-0.2-2.1l0.1-0.2c0.3-0.7,0.9-1.2,1.6-1.5c-0.3-0.7-0.3-1.5,0-2.2c0-0.1,0.1-0.1,0.1-0.2
								c0.4-0.7,1-1.2,1.7-1.4c-0.2-0.7-0.2-1.5,0.3-2.2c0.1-0.1,0.1-0.1,0.2-0.2c0.5-0.7,1.2-1.1,2-1.1c-0.1-0.7,0.1-1.5,0.6-2.1
								l0.2-0.2c0.5-0.6,1.2-0.9,2-0.8l0,0c-0.1-0.7,0.2-1.5,0.8-2c0.1-0.1,0.1-0.1,0.2-0.2c0.6-0.5,1.4-0.7,2.1-0.6
								c0-0.8,0.4-1.5,1.1-1.9c0.1,0,0.1-0.1,0.2-0.1c0.7-0.5,1.5-0.6,2.2-0.3c0.1-0.8,0.6-1.4,1.4-1.8c0.1,0,0.2-0.1,0.2-0.1
								c0.8-0.4,1.6-0.3,2.3,0c0.3-0.7,0.9-1.3,1.7-1.5c0.1,0,0.2,0,0.3-0.1c0.8-0.2,1.7,0,2.3,0.6c0.4-0.7,1.2-1.1,2.1-1.1
								c0.1,0,0.2,0,0.3,0c0.9,0,1.6,0.5,2.1,1.1c0.6-0.5,1.4-0.8,2.3-0.5c0.1,0,0.2,0,0.3,0.1c0.8,0.2,1.4,0.8,1.7,1.6
								c0.7-0.4,1.6-0.4,2.3,0c0.1,0,0.2,0.1,0.2,0.1c0.7,0.4,1.2,1.1,1.3,1.9c0.8-0.2,1.6,0,2.2,0.5c0.1,0.1,0.1,0.1,0.2,0.2
								c0.6,0.5,0.9,1.3,0.9,2.1c0.8,0,1.6,0.3,2.1,0.9c0.1,0.2,0.2,0.3,0.2,0.3c0.8,1.1,0.6,2.7-0.5,3.5s-2.7,0.6-3.5-0.5
								c0,0,0-0.1-0.1-0.1c-0.4-0.5-0.6-1.1-0.6-1.7c-0.6,0-1.3-0.1-1.8-0.6c-0.1,0-0.1-0.1-0.2-0.1c-0.5-0.4-0.8-1-0.9-1.6
								c-0.6,0.2-1.3,0.1-1.8-0.2c-0.1,0-0.1-0.1-0.2-0.1c-0.6-0.3-1-0.8-1.2-1.4c-0.5,0.3-1.2,0.4-1.8,0.2c-0.1,0-0.1,0-0.2,0
								c-0.6-0.2-1.1-0.5-1.5-1c-0.4,0.4-1,0.6-1.7,0.6c-0.1,0-0.1,0-0.2,0c-0.6,0-1.2-0.2-1.7-0.6c-0.3,0.5-0.9,0.9-1.5,1
								c-0.1,0-0.1,0-0.2,0c-0.6,0.2-1.3,0.1-1.8-0.2c-0.2,0.6-0.7,1.1-1.3,1.4c-0.1,0-0.1,0.1-0.2,0.1c-0.6,0.3-1.3,0.3-1.9,0.1
								c-0.1,0.6-0.5,1.2-1,1.6c-0.1,0-0.1,0.1-0.2,0.1c-0.6,0.4-1.2,0.5-1.9,0.4c0,0.6-0.3,1.3-0.8,1.8c-0.1,0-0.1,0.1-0.2,0.1
								c-0.5,0.5-1.2,0.7-1.8,0.7c0,0.7-0.2,1.3-0.7,1.9l-0.2,0.2c-0.5,0.5-1.1,0.8-1.7,0.8c0.1,0.6,0,1.3-0.4,1.8
								c0,0.1-0.1,0.1-0.1,0.2c-0.4,0.6-1,1-1.6,1.1c0.2,0.6,0.2,1.3-0.1,1.9c0,0.1-0.1,0.1-0.1,0.2c-0.3,0.6-0.9,1.1-1.5,1.3
								c0.3,0.6,0.3,1.3,0.1,2l-0.1,0.2c-0.3,0.7-0.8,1.2-1.4,1.4c0.3,0.6,0.4,1.3,0.2,2l-0.1,0.2c-0.2,0.7-0.7,1.2-1.3,1.5
								c0.4,0.6,0.5,1.3,0.3,2l-0.1,0.2c-0.2,0.7-0.7,1.3-1.3,1.6c0.4,0.6,0.5,1.3,0.4,2l-0.1,0.2c-0.2,0.7-0.6,1.3-1.2,1.6
								c0.4,0.6,0.6,1.3,0.4,2l-0.1,0.2c-0.2,0.7-0.6,1.3-1.2,1.7c0.4,0.5,0.6,1.3,0.5,2v0.2c-0.1,0.7-0.6,1.3-1.2,1.7
								c0.4,0.5,0.6,1.2,0.5,2v0.2c-0.1,0.7-0.6,1.4-1.1,1.7c0.4,0.5,0.7,1.2,0.6,2v0.2c-0.1,0.7-0.5,1.4-1.1,1.7
								c0.4,0.5,0.7,1.2,0.6,2v0.2c-0.1,0.7-0.5,1.4-1.1,1.8c0.5,0.5,0.7,1.2,0.6,2v0.2c-0.1,0.7-0.5,1.4-1.1,1.8
								c0.5,0.5,0.7,1.2,0.6,2v0.2c-0.1,0.8-0.5,1.4-1,1.8c0.5,0.5,0.7,1.2,0.7,2v0.2c-0.1,0.7-0.5,1.4-1,1.8c0.5,0.5,0.7,1.2,0.7,2
								v0.2c-0.1,0.8-0.4,1.4-1,1.8c0.5,0.5,0.8,1.2,0.7,1.9v0.2c-0.1,0.8-0.4,1.4-1,1.8c0.5,0.5,0.8,1.2,0.7,1.9v0.2
								c-0.1,0.8-0.4,1.4-1,1.8c0.5,0.5,0.8,1.2,0.7,1.9v0.2c-0.1,0.8-0.4,1.4-1,1.8c0.5,0.5,0.8,1.2,0.8,1.9v0.2
								c-0.1,0.8-0.4,1.4-1,1.8c0.5,0.5,0.8,1.2,0.8,1.9l0,0v0.2c0,0.8-0.4,1.4-0.9,1.8c0.5,0.5,0.8,1.2,0.8,1.9v0.2
								c0,0.8-0.4,1.4-0.9,1.8c0.5,0.5,0.8,1.2,0.8,1.9v0.2c0,0.8-0.4,1.4-0.9,1.9c0.5,0.5,0.8,1.2,0.8,1.9v0.2
								c0,0.8-0.4,1.4-0.9,1.9c0.5,0.5,0.8,1.2,0.8,1.9v0.2c0,0.8-0.4,1.4-0.9,1.9c0.5,0.5,0.8,1.2,0.8,1.9v0.2
								C1311.4,385,1306.4,384.9,1306.5,384.1L1306.5,384.1z"/>
						</g>
					</g>
					<g>
						<path class="st17" d="M1365.7,315.8c-1-1.3-2.2-1.4-3-1.2c0.2,4.5,0.5,10.5,0.5,10.9c0,0.3,0,0.6-0.1,1
							C1366.4,325,1367.2,317.9,1365.7,315.8L1365.7,315.8z"/>
						<path class="st0" d="M1364.3,326.6L1364.3,326.6c-0.4,0-0.8-0.3-0.8-0.8v-1.9c0-0.4,0.3-0.8,0.8-0.8l0,0
							c0.4,0,0.8,0.3,0.8,0.8v1.9C1365.1,326.3,1364.8,326.6,1364.3,326.6z"/>
					</g>
				</g>
				<polygon class="st18" points="1324.5,356.7 1334.5,351.5 1355.4,351.2 1366.7,357 1342.1,377 				"/>
				<path class="st18" d="M1356.4,356c0,4.2-7.8,8.3-11.7,8.3c-3.9,0-11.7-4.1-11.7-8.3c0.3-6.3,1.2-26.1,1.2-26.1h20.9
					C1355.2,329.9,1356.4,349,1356.4,356L1356.4,356z"/>
				<path class="st17" d="M1335,339.1c0,0,2.7,9.9,9.6,10.2s9.8-10.2,9.8-10.2l-9.6-2L1335,339.1L1335,339.1z"/>
			</g>
			<g>
				<g id="face-4">
					<path class="st18" d="M1362.4,309.5c0-9.6-7.8-15.9-17.4-15.9s-17.4,6.3-17.4,15.9c0,0-0.8,15.4-0.8,15.9
						c0,9.1,11.2,20.8,18.1,20.8c8,0,18.1-13.8,18.1-20.8C1363.2,324.9,1362.4,309.5,1362.4,309.5L1362.4,309.5z"/>
				</g>
				<g id="face-5">
					<g id="eyebrows-2">
						<path class="st11" d="M1348.8,310.6c0,0,7.6-0.8,9-0.6c2.4,0.2,3,1.8,3.3,2.7c0.1,0.3-9.9,1.3-11.3,0.8
							C1348.4,312.9,1348.8,310.6,1348.8,310.6L1348.8,310.6z"/>
						<path class="st11" d="M1341.2,310.6c0,0-7.6-0.8-9-0.6c-2.4,0.2-3,1.8-3.3,2.7c-0.1,0.3,9.9,1.3,11.3,0.8
							C1341.7,312.9,1341.2,310.6,1341.2,310.6L1341.2,310.6z"/>
					</g>
					<g>
						<path class="st19" d="M1347.2,329.8c0.7,0,1.4,1,1.4,1l-2.7,0.2C1346.4,330.4,1346.6,329.9,1347.2,329.8z"/>
						<path class="st19" d="M1343.3,329.8c-0.7,0-1.4,1-1.4,1l2.7,0.2C1344.2,330.4,1344,329.9,1343.3,329.8z"/>
						<path class="st19" d="M1343.2,325.7c0.5-4.7,0-10,0-10.1l-1.1,0.1c0,0,0.5,5.3,0,9.9L1343.2,325.7L1343.2,325.7z"/>
					</g>
					<g>
						<path class="st11" d="M1356.8,320.1c0,1.6-1.1,2.9-2.5,2.9s-2.5-1.3-2.5-2.9s1.1-2.9,2.5-2.9S1356.8,318.5,1356.8,320.1z"/>
						<ellipse class="st11" cx="1335.7" cy="320.1" rx="2.5" ry="2.9"/>
						<path class="st19" d="M1340.6,335.6c-0.7,0-1.5-0.2-2.4-0.8c-0.2-0.2-0.3-0.5-0.2-0.8c0.2-0.2,0.5-0.3,0.8-0.1
							c1.3,0.9,2.5,0.5,3.5,0.2c0.5-0.2,1-0.3,1.4-0.2c0.6,0.1,1.1,0.2,1.7,0.2c0.7,0,1.1-0.1,1.6-0.2s1,0,1.6,0.2
							c1,0.3,2.1,0.6,3.4-0.2c0.2-0.2,0.6-0.1,0.8,0.1c0.2,0.2,0.1,0.6-0.2,0.8c-1.7,1.2-3.3,0.7-4.3,0.4c-0.4-0.1-0.8-0.2-1-0.2
							c-0.6,0.1-1,0.2-1.8,0.2s-1.3-0.1-2-0.2c-0.2,0-0.5,0.1-0.9,0.2C1342.1,335.4,1341.4,335.6,1340.6,335.6L1340.6,335.6z"/>
						<path class="st19" d="M1345.5,338.7c-1.9,0-3.3-0.7-3.4-0.7c-0.3-0.1-0.4-0.5-0.2-0.7c0.1-0.3,0.5-0.4,0.7-0.2
							c0.1,0,2.9,1.4,5.6,0c0.3-0.1,0.6,0,0.7,0.2c0.1,0.3,0,0.6-0.2,0.7C1347.6,338.5,1346.5,338.7,1345.5,338.7L1345.5,338.7z"/>
					</g>
				</g>
			</g>
			<path class="st0" d="M1396.3,376.3c-0.1-0.2-0.2-0.4-0.3-0.5c-3.5-5.7-30.4-20-34.5-21.9c-5,18.8-26.4,17.6-33.4,0.3
				c-4.2,1.9-31.5,16.8-35.1,22.5c-0.1,0.1-0.2,0.3-0.3,0.5C1306,390,1324.1,398,1344,398S1382.9,389.7,1396.3,376.3L1396.3,376.3z"
				/>
		</g>
		<g>
			<path class="st11" d="M1316.7,154.8h6.7v8l-1.7,14.8h-3.2l-1.8-14.8V154.8L1316.7,154.8z M1316.9,180.2h6.4v6.2h-6.4V180.2z"/>
			<path class="st11" d="M1319.2,200.7c-16,0-29-13-29-29s13-29,29-29s29,13,29,29S1335.2,200.7,1319.2,200.7z M1319.2,145
				c-14.7,0-26.7,12-26.7,26.7s12,26.7,26.7,26.7s26.7-12,26.7-26.7S1334,145,1319.2,145z"/>
		</g>
		<g>
			<g>
				<path class="st11" d="M1044.1,363.7h-2.7V310c0-19.9-16.2-36.1-36.1-36.1h-10.7v-2.7h10.7c21.4,0,38.8,17.4,38.8,38.8
					L1044.1,363.7L1044.1,363.7z"/>
				<polygon class="st11" points="1049.1,355.8 1042.7,367.5 1040.3,363.1 1036.2,355.8 				"/>
			</g>
			<g>
				<polygon class="st11" points="959.3,266.1 971,272.5 959.3,278.9 				"/>
				<polygon class="st11" points="966.2,423.4 977.8,429.8 966.2,436.3 				"/>
				<path class="st11" d="M971.6,431.5H923c-21.4,0-38.8-17.4-38.8-38.8v-82.8c0-21.4,17.4-38.8,38.8-38.8h41.9v2.7H923
					c-19.9,0-36.1,16.2-36.1,36.1v82.8c0,19.9,16.2,36.1,36.1,36.1h48.6V431.5L971.6,431.5z"/>
			</g>
		</g>
		<g>
			<circle class="st11" cx="1024" cy="413.7" r="25.2"/>
			<path class="st0" d="M1033.7,419.8c0,5.2-4.7,8.2-10,8.2c-5.3,0-8.9-2.4-9.5-8.3v-0.4h3.4v0.4c0.4,3.9,3.1,5.6,6.4,5.6
				c3.3,0,5.8-2,5.8-5.3s-2.1-5.1-6.6-5.1h-0.7v-2.8h0.7c3.3,0,5.9-1.9,5.9-5.4c0-2.8-2-4.7-4.9-4.7c-2.9,0-5.3,1.8-5.7,5.4v0.4
				h-3.4v-0.4c0.5-5,3.9-8.1,9.5-8.1c5.1,0,8.3,2.8,8.3,7c0,3.2-2,5.7-4.9,6.5C1031.6,413.7,1033.7,416.2,1033.7,419.8L1033.7,419.8
				z"/>
		</g>
	</g>
	<path class="st11" d="M1057.8,593.8h184.8c30.1,0,54.4,24.4,54.4,54.4l0,0c0,30.1-24.4,54.4-54.4,54.4h-184.8
		c-30.1,0-54.4-24.4-54.4-54.4l0,0C1003.3,618.2,1027.7,593.8,1057.8,593.8z"/>
	<g>
		<rect x="180.2" y="548.5" class="st11" width="4" height="11.9"/>
		<rect x="191.5" y="548.5" class="st11" width="4" height="11.9"/>
		<rect x="202.8" y="548.5" class="st11" width="4" height="11.9"/>
		<rect x="214.1" y="538.6" class="st11" width="4" height="31.7"/>
		<rect x="225.4" y="548.5" class="st11" width="4" height="11.9"/>
		<rect x="236.7" y="548.5" class="st11" width="4" height="11.9"/>
		<rect x="248" y="548.5" class="st11" width="4" height="11.9"/>
		<rect x="259.3" y="538.6" class="st11" width="4" height="31.7"/>
		<rect x="270.6" y="528.7" class="st11" width="4" height="51.5"/>
		<rect x="281.9" y="508.9" class="st11" width="4" height="91"/>
		<rect x="293.2" y="528.7" class="st11" width="4" height="51.5"/>
		<rect x="304.5" y="538.6" class="st11" width="4" height="31.7"/>
		<rect x="315.8" y="548.5" class="st11" width="4" height="11.9"/>
		<rect x="327" y="548.5" class="st11" width="4" height="11.9"/>
		<rect x="338.3" y="548.5" class="st11" width="4" height="11.9"/>
		<rect x="349.6" y="548.5" class="st11" width="4" height="11.9"/>
		<rect x="360.9" y="548.5" class="st11" width="4" height="11.9"/>
		<rect x="372.2" y="548.5" class="st11" width="4" height="11.9"/>
		<rect x="383.5" y="538.6" class="st11" width="4" height="31.7"/>
		<rect x="394.8" y="518.8" class="st11" width="4" height="71.3"/>
		<rect x="406.1" y="538.6" class="st11" width="4" height="31.7"/>
		<rect x="417.4" y="528.7" class="st11" width="4" height="51.5"/>
		<rect x="428.7" y="508.9" class="st11" width="4" height="91"/>
		<rect x="440" y="528.7" class="st11" width="4" height="51.5"/>
		<rect x="451.3" y="538.6" class="st11" width="4" height="31.7"/>
		<rect x="462.6" y="548.5" class="st11" width="4" height="11.9"/>
		<rect x="473.9" y="548.5" class="st11" width="4" height="11.9"/>
		<rect x="485.2" y="548.5" class="st11" width="4" height="11.9"/>
		<rect x="496.5" y="548.5" class="st11" width="4" height="11.9"/>
		<rect x="507.8" y="548.5" class="st11" width="4" height="11.9"/>
		<rect x="519.1" y="528.7" class="st11" width="4" height="51.5"/>
		<rect x="530.4" y="518.8" class="st11" width="4" height="71.3"/>
		<rect x="541.7" y="508.9" class="st11" width="4" height="91"/>
		<rect x="553" y="528.7" class="st11" width="4" height="51.5"/>
		<rect x="564.3" y="538.6" class="st11" width="4" height="31.7"/>
		<rect x="575.6" y="548.5" class="st11" width="4" height="11.9"/>
	</g>
	<rect x="199.8" y="227.9" class="st11" width="331.9" height="120.8"/>
	<g>
		<path class="st20" d="M128.2,156.2L128.2,156.2c-6.5,0-12.8-1.2-18.7-3.7l9-21.9c3.1,1.3,6.3,1.9,9.7,1.9V156.2L128.2,156.2z"/>
		<path class="st21" d="M147,152.5l-9.1-21.9c3.1-1.3,5.8-3.1,8.2-5.5l16.8,16.8C158.3,146.4,152.9,150,147,152.5L147,152.5z"/>
		<path class="st22" d="M93.6,141.9c-4.6-4.6-8.2-9.9-10.7-15.8l21.9-9.1c1.3,3.1,3.1,5.8,5.5,8.2L93.6,141.9L93.6,141.9z"/>
		<path class="st23" d="M173.5,126l-21.9-9.1c1.3-3,1.9-6.3,1.9-9.6v-0.1l23.7-0.2v0.2C177.2,113.7,175.9,120,173.5,126L173.5,126z"
			/>
		<path class="st21" d="M79.2,107.4v-0.2c0-6.5,1.2-12.7,3.7-18.7l21.9,9.1c-1.3,3-1.9,6.3-1.9,9.6v0.1L79.2,107.4l9.7-0.1
			L79.2,107.4L79.2,107.4z"/>
		<path class="st24" d="M151.5,97.5c-1.3-3.1-3.2-5.8-5.5-8.2l16.7-16.9c4.6,4.6,8.2,9.9,10.7,15.8L151.5,97.5L151.5,97.5z"/>
		<path class="st25" d="M110.2,89.5L93.4,72.7c4.6-4.6,9.9-8.1,15.9-10.6l9.1,21.9C115.4,85.2,112.6,87.1,110.2,89.5L110.2,89.5z"/>
		<path class="st26" d="M138.2,83.9c-3-1.2-6.3-1.9-9.6-1.9h-0.1V58.3h0.1c6.4,0,12.7,1.2,18.6,3.6L138.2,83.9L138.2,83.9z"/>
	</g>
	<g>
		<g>
			<path class="st11" d="M202.8,747.6c-33.5,0-60.7-27.2-60.7-60.7s27.2-60.7,60.7-60.7s60.7,27.2,60.7,60.7
				S236.3,747.6,202.8,747.6z M202.8,631.3c-30.6,0-55.5,24.9-55.5,55.5s24.9,55.5,55.5,55.5s55.5-24.9,55.5-55.5
				S233.4,631.3,202.8,631.3z"/>
			<path class="st11" d="M171.3,723.6L171.3,723.6c-3.7-2.5-5.8-6.6-5.5-9c1-6.7,11.3-18.4,17.9-18.6c1.4-0.1,3.1,0.6,5.2,2
				c2.7,1.8,5.5,4.5,6.6,5.7l0.1,0.1c0.2,0.1,0.9-0.2,1.4-0.7l18.4-27.7c0.2-0.6,0.3-1.4,0.1-1.5c0,0,0,0-0.1,0
				c-1.5-0.6-5.1-2.1-7.8-3.9c-2.1-1.4-3.4-2.7-3.9-4.1c-2.3-6.2,4.5-20.2,10.3-23.7c2-1.2,6.7-0.9,10.4,1.5c1.2,0.8,2.3,1.8,3.1,3
				c3.4,4.8,5.9,12,5.5,15.8s-10.5,24-15.7,32.6c-0.3,0.5-1.5,2.3-1.9,2.8c-5.8,7.9-20.1,24.5-23.5,26.4c-3.3,1.8-11,2.3-16.7,1
				C173.9,724.9,172.6,724.4,171.3,723.6L171.3,723.6z"/>
		</g>
		<circle class="st11" cx="205.9" cy="767.7" r="7.7"/>
		<path class="st11" d="M212,793.8c0,3.4-2.7,6.1-6.1,6.1s-6.1-2.7-6.1-6.1s2.7-6.1,6.1-6.1S212,790.4,212,793.8z"/>
		<circle class="st11" cx="205.9" cy="819.8" r="5.2"/>
	</g>
	<g>
		<ellipse class="st11" cx="59" cy="576.7" rx="59" ry="59"/>
		<path class="st0" d="M46.3,607.5c-1.2,0-2.3-0.3-3.3-0.9c-2.1-1.2-3.3-3.4-3.3-5.8v-48.1c0-2.4,1.2-4.6,3.3-5.8
			c2.1-1.2,4.6-1.2,6.7,0l41.7,24c2.1,1.2,3.3,3.4,3.3,5.8c0,2.4-1.2,4.6-3.3,5.8l-41.7,24C48.6,607.2,47.4,607.5,46.3,607.5
			L46.3,607.5z M46.3,550.1c-0.6,0-1,0.2-1.3,0.3c-0.4,0.2-1.3,0.9-1.3,2.2v48.1c0,1.3,0.9,2,1.3,2.2c0.4,0.2,1.4,0.7,2.5,0l41.7-24
			c1.1-0.7,1.3-1.8,1.3-2.2s-0.1-1.5-1.3-2.2l-41.7-24C47.1,550.2,46.7,550.1,46.3,550.1L46.3,550.1z"/>
	</g>
	<g>
		<path class="st0" d="M1089.7,537.5c0,8.7-4,12.5-8.9,12.5c-4.2,0-6.9-2.4-7.2-6.2v-0.3h3.7l0.1,0.3c0.5,2.3,1.7,3.4,3.8,3.4
			c2.8,0,4.7-2.4,4.9-8.4l-1.2,2c-1.2,1-2.4,1.4-4.1,1.4c-4.8,0-7.4-3.2-7.4-7.5c0-5,3.6-8.1,8.2-8.1
			C1086.8,526.8,1089.7,530,1089.7,537.5L1089.7,537.5z M1085.8,534.5c0-2.8-1.7-5-4.2-5s-4.3,2-4.3,4.9s1.3,5.2,4.3,5.2
			C1083.8,539.6,1085.8,537.8,1085.8,534.5z"/>
		<path class="st0" d="M1109.2,537.5c0,8.7-4,12.5-8.9,12.5c-4.2,0-6.9-2.4-7.2-6.2v-0.3h3.7l0.1,0.3c0.5,2.3,1.7,3.4,3.8,3.4
			c2.8,0,4.7-2.4,4.9-8.4l-1.2,2c-1.2,1-2.4,1.4-4.1,1.4c-4.8,0-7.4-3.2-7.4-7.5c0-5,3.6-8.1,8.2-8.1
			C1106.2,526.8,1109.2,530,1109.2,537.5L1109.2,537.5z M1105.2,534.5c0-2.8-1.7-5-4.2-5s-4.3,2-4.3,4.9s1.3,5.2,4.3,5.2
			C1103.3,539.6,1105.2,537.8,1105.2,534.5z"/>
	</g>
	<path class="st11" d="M1093.5,593.9h184.8c30.1,0,54.4,24.4,54.4,54.4l0,0c0,30.1-24.4,54.4-54.4,54.4h-184.8
		c-30.1,0-54.4-24.4-54.4-54.4l0,0C1039,618.3,1063.4,593.9,1093.5,593.9z"/>
	<g>
		<path class="st0" d="M276.1,95.7c-0.3-0.3-0.5-0.7-0.5-1.2V51.4c0-0.5,0.2-0.9,0.5-1.2c0.3-0.3,0.7-0.5,1.2-0.5h31
			c0.5,0,0.9,0.2,1.2,0.5c0.3,0.3,0.5,0.7,0.5,1.2v6.2c0,0.4-0.2,0.8-0.5,1.2c-0.3,0.3-0.7,0.5-1.2,0.5h-21.2v9h19.7
			c0.5,0,0.9,0.2,1.2,0.5c0.3,0.3,0.5,0.7,0.5,1.2v5.8c0,0.4-0.2,0.8-0.5,1.2c-0.3,0.3-0.7,0.5-1.2,0.5h-19.7v9.2h21.7
			c0.5,0,0.9,0.2,1.2,0.5c0.3,0.3,0.5,0.7,0.5,1.2v6.2c0,0.4-0.2,0.8-0.5,1.2c-0.3,0.3-0.7,0.5-1.2,0.5h-31.5
			C276.8,96.2,276.4,96,276.1,95.7z"/>
		<path class="st0" d="M321.3,95.7c-0.3-0.3-0.5-0.7-0.5-1.2V70.4h-5c-0.5,0-0.9-0.2-1.2-0.5c-0.3-0.3-0.5-0.7-0.5-1.2v-5.4
			c0-0.5,0.2-0.9,0.5-1.2c0.3-0.3,0.7-0.5,1.2-0.5h5v-2.1c0-4.4,1.2-7.6,3.7-9.5c2.5-2,6.1-3,10.8-3h5.2c0.5,0,0.9,0.2,1.2,0.5
			c0.3,0.3,0.5,0.7,0.5,1.2v5.4c0,0.4-0.2,0.8-0.5,1.2c-0.3,0.3-0.7,0.5-1.2,0.5h-4.6c-1.5,0-2.5,0.3-3.1,1
			c-0.6,0.7-0.9,1.7-0.9,3.1v1.8h13.1v-2.1c0-4.4,1.2-7.6,3.7-9.5c2.5-2,6.1-3,10.8-3h5.1c0.5,0,0.9,0.2,1.2,0.5
			c0.3,0.3,0.5,0.7,0.5,1.2v5.4c0,0.4-0.2,0.8-0.5,1.2c-0.3,0.3-0.7,0.5-1.2,0.5H360c-1.5,0-2.5,0.3-3.1,1c-0.6,0.7-0.9,1.7-0.9,3.1
			v1.8h8c0.5,0,0.9,0.2,1.2,0.5c0.3,0.3,0.5,0.7,0.5,1.2v5.4c0,0.4-0.2,0.8-0.5,1.2c-0.3,0.3-0.7,0.5-1.2,0.5h-8v24.2
			c0,0.5-0.2,0.9-0.5,1.2c-0.3,0.3-0.7,0.5-1.2,0.5h-7.6c-0.5,0-0.9-0.2-1.2-0.5c-0.3-0.3-0.5-0.7-0.5-1.2V70.4h-13.1v24.2
			c0,0.4-0.2,0.8-0.5,1.2c-0.3,0.3-0.7,0.5-1.2,0.5h-7.7C322.1,96.2,321.7,96,321.3,95.7z"/>
		<path class="st0" d="M373.6,93c-3-2.6-4.6-6.3-4.8-11c0-0.6-0.1-1.6-0.1-3c0-1.4,0-2.4,0.1-3c0.3-4.7,1.9-8.3,5-11
			c3.1-2.6,7.2-3.9,12.5-3.9c5.4,0,9.6,1.3,12.6,3.9c3.1,2.6,4.7,6.3,5,11c0,0.6,0.1,1.6,0.1,3c0,1.4,0,2.4-0.1,3
			c-0.3,4.7-1.9,8.4-4.8,11c-3,2.6-7.2,3.9-12.7,3.9C380.8,96.9,376.6,95.6,373.6,93z M390.6,87c0.9-1.2,1.5-3,1.6-5.4
			c0-0.4,0.1-1.3,0.1-2.7s0-2.2-0.1-2.7c-0.1-2.4-0.7-4.2-1.6-5.4c-1-1.2-2.4-1.8-4.3-1.8c-3.7,0-5.6,2.4-5.8,7.2l-0.1,2.7l0.1,2.7
			c0.1,2.4,0.6,4.2,1.6,5.4c1,1.2,2.4,1.8,4.3,1.8C388.2,88.8,389.7,88.2,390.6,87z"/>
		<path class="st0" d="M411,95.7c-0.3-0.3-0.5-0.7-0.5-1.2V63.4c0-0.5,0.2-0.9,0.5-1.2c0.3-0.3,0.7-0.5,1.2-0.5h7.6
			c0.5,0,0.9,0.2,1.2,0.5c0.3,0.3,0.5,0.7,0.5,1.2V66c2.4-2.9,5.7-4.3,9.8-4.3h2.9c0.5,0,0.9,0.2,1.2,0.5c0.3,0.3,0.5,0.7,0.5,1.2
			v6.8c0,0.4-0.2,0.8-0.5,1.2c-0.3,0.3-0.7,0.5-1.2,0.5h-6.4c-1.8,0-3.2,0.5-4.2,1.5c-1,1-1.5,2.4-1.5,4.2v17c0,0.5-0.2,0.9-0.5,1.2
			c-0.3,0.3-0.7,0.5-1.2,0.5h-8.2C411.7,96.2,411.3,96.1,411,95.7z"/>
		<path class="st0" d="M444.5,83.1V70.4h-5.2c-0.5,0-0.9-0.2-1.2-0.5c-0.3-0.3-0.5-0.7-0.5-1.2v-5.4c0-0.5,0.2-0.9,0.5-1.2
			c0.3-0.3,0.7-0.5,1.2-0.5h5.2V50.8c0-0.5,0.2-0.9,0.5-1.2c0.3-0.3,0.7-0.5,1.2-0.5h7.7c0.5,0,0.9,0.2,1.2,0.5
			c0.3,0.3,0.5,0.7,0.5,1.2v10.9h8.3c0.5,0,0.9,0.2,1.2,0.5c0.3,0.3,0.5,0.7,0.5,1.2v5.4c0,0.5-0.2,0.9-0.5,1.2
			c-0.3,0.3-0.7,0.5-1.2,0.5h-8.3v11.8c0,3.3,1.3,4.9,3.8,4.9h5.1c0.5,0,0.9,0.2,1.2,0.5c0.3,0.3,0.5,0.7,0.5,1.2v5.8
			c0,0.4-0.2,0.8-0.5,1.2c-0.3,0.3-0.7,0.5-1.2,0.5h-6.2C449.1,96.2,444.5,91.8,444.5,83.1z"/>
		<path class="st0" d="M472.1,95.7c-0.3-0.3-0.5-0.7-0.5-1.2V50.8c0-0.5,0.2-0.9,0.5-1.2c0.3-0.3,0.7-0.5,1.2-0.5h7.8
			c0.5,0,0.9,0.2,1.2,0.5c0.3,0.3,0.5,0.7,0.5,1.2v43.8c0,0.5-0.2,0.9-0.5,1.2c-0.3,0.3-0.7,0.5-1.2,0.5h-7.8
			C472.8,96.2,472.4,96,472.1,95.7z"/>
		<path class="st0" d="M494,92.6c-3.1-2.9-4.6-7.1-4.8-12.5v-2.3c0.2-5.2,1.8-9.3,4.9-12.2c3.1-2.9,7.2-4.4,12.4-4.4
			c3.8,0,6.9,0.8,9.5,2.3c2.6,1.5,4.5,3.6,5.8,6.3c1.3,2.7,2,5.7,2,9.2v1.6c0,0.4-0.2,0.8-0.5,1.2c-0.3,0.3-0.7,0.5-1.2,0.5h-21.2
			v0.5c0.1,2.1,0.6,3.8,1.5,5c0.9,1.3,2.3,1.9,4,1.9c1.1,0,2-0.2,2.7-0.7c0.7-0.5,1.3-1,1.9-1.7c0.4-0.5,0.7-0.8,1-0.9
			c0.2-0.1,0.6-0.2,1.2-0.2h8.2c0.4,0,0.7,0.1,1,0.4c0.3,0.2,0.4,0.6,0.4,1c0,1.2-0.7,2.5-2,4c-1.3,1.5-3.2,2.8-5.7,3.9
			c-2.5,1.1-5.4,1.7-8.8,1.7C501.2,96.9,497,95.4,494,92.6z M512.1,75.4v-0.1c0-2.2-0.5-3.9-1.5-5.1c-1-1.3-2.4-1.9-4.1-1.9
			c-1.7,0-3.1,0.6-4.1,1.9c-1,1.3-1.5,3-1.5,5.1v0.1H512.1z"/>
		<path class="st0" d="M535.2,95.3c-2.4-1-4.2-2.2-5.3-3.6c-1.2-1.4-1.7-2.7-1.7-3.8c0-0.4,0.2-0.8,0.5-1.1c0.3-0.3,0.7-0.4,1.1-0.4
			h7.6c0.3,0,0.5,0.1,0.7,0.3c0.5,0.4,0.9,0.6,1.2,0.9c1,0.7,1.8,1.2,2.6,1.6c0.7,0.3,1.6,0.5,2.7,0.5c1.3,0,2.3-0.3,3.2-0.8
			c0.8-0.5,1.2-1.2,1.2-2.2c0-0.8-0.2-1.3-0.6-1.8c-0.4-0.4-1.2-0.9-2.4-1.3c-1.2-0.4-3-0.9-5.4-1.4c-3.7-0.8-6.5-2-8.5-3.7
			c-2-1.7-3-4-3-6.9c0-1.8,0.6-3.5,1.7-5.2c1.1-1.6,2.9-3,5.1-4c2.3-1,5-1.5,8.1-1.5c3.1,0,5.9,0.5,8.2,1.5c2.3,1,4.1,2.2,5.3,3.5
			c1.2,1.4,1.8,2.7,1.8,3.8c0,0.4-0.1,0.8-0.4,1.1c-0.3,0.3-0.6,0.5-1,0.5H551c-0.4,0-0.7-0.1-1-0.3c-0.6-0.3-1.1-0.6-1.5-1
			c-0.8-0.6-1.5-1-2.1-1.3c-0.7-0.3-1.5-0.5-2.5-0.5c-1.2,0-2.1,0.3-2.8,0.8c-0.7,0.5-1,1.2-1,2.1c0,0.7,0.2,1.2,0.6,1.7
			c0.4,0.4,1.2,0.9,2.4,1.3c1.2,0.4,3,0.9,5.4,1.3c4.3,0.8,7.4,2.1,9.4,4c2,1.9,3,4.1,3,6.7c0,3.3-1.5,5.9-4.4,7.9
			c-2.9,2-7,3-12.2,3C540.6,96.9,537.6,96.4,535.2,95.3z"/>
		<path class="st0" d="M571.9,95.3c-2.4-1-4.2-2.2-5.3-3.6c-1.2-1.4-1.7-2.7-1.7-3.8c0-0.4,0.2-0.8,0.5-1.1c0.3-0.3,0.7-0.4,1.1-0.4
			h7.6c0.3,0,0.5,0.1,0.7,0.3c0.5,0.4,0.9,0.6,1.2,0.9c1,0.7,1.8,1.2,2.6,1.6c0.7,0.3,1.6,0.5,2.7,0.5c1.3,0,2.3-0.3,3.2-0.8
			c0.8-0.5,1.2-1.2,1.2-2.2c0-0.8-0.2-1.3-0.6-1.8c-0.4-0.4-1.2-0.9-2.4-1.3c-1.2-0.4-3-0.9-5.4-1.4c-3.7-0.8-6.5-2-8.5-3.7
			c-2-1.7-3-4-3-6.9c0-1.8,0.6-3.5,1.7-5.2c1.1-1.6,2.9-3,5.1-4c2.3-1,5-1.5,8.1-1.5c3.1,0,5.9,0.5,8.2,1.5c2.3,1,4.1,2.2,5.3,3.5
			c1.2,1.4,1.8,2.7,1.8,3.8c0,0.4-0.1,0.8-0.4,1.1c-0.3,0.3-0.6,0.5-1,0.5h-6.9c-0.4,0-0.7-0.1-1-0.3c-0.6-0.3-1.1-0.6-1.5-1
			c-0.8-0.6-1.5-1-2.1-1.3c-0.7-0.3-1.5-0.5-2.5-0.5c-1.2,0-2.1,0.3-2.8,0.8c-0.7,0.5-1,1.2-1,2.1c0,0.7,0.2,1.2,0.6,1.7
			c0.4,0.4,1.2,0.9,2.4,1.3c1.2,0.4,3,0.9,5.4,1.3c4.3,0.8,7.4,2.1,9.4,4c2,1.9,3,4.1,3,6.7c0,3.3-1.5,5.9-4.4,7.9
			c-2.9,2-7,3-12.2,3C577.3,96.9,574.3,96.4,571.9,95.3z"/>
	</g>
	<g>
		<path class="st0" d="M223,324.8c-0.5-0.5-0.8-1.1-0.8-1.8v-67.5c0-0.8,0.3-1.4,0.8-1.9c0.5-0.5,1.1-0.7,1.8-0.7h13.1
			c0.8,0,1.4,0.2,1.9,0.7c0.5,0.5,0.7,1.1,0.7,1.9v23.1l19.2-23.7c0.8-1.3,2.2-2,4.1-2h15c0.6,0,1.1,0.2,1.6,0.7
			c0.4,0.5,0.6,1,0.6,1.5c0,0.5-0.1,0.9-0.3,1.2l-24.9,31.4l26.8,34.5c0.3,0.3,0.4,0.7,0.4,1.2c0,0.6-0.2,1.1-0.6,1.5
			c-0.4,0.5-0.9,0.7-1.6,0.7h-15.5c-1.7,0-3-0.7-4.2-2.1l-20.6-25.7V323c0,0.8-0.2,1.4-0.7,1.9c-0.5,0.5-1.1,0.7-1.9,0.7h-13.1
			C224.2,325.6,223.6,325.3,223,324.8z"/>
		<path class="st0" d="M295.4,324.5c-3-1.4-5.4-3.4-7.1-5.8c-1.7-2.5-2.5-5.2-2.5-8.2c0-4.8,2-8.6,5.9-11.5c3.9-2.9,9.3-4.9,16.2-6
			l13-2v-1.5c0-2.6-0.6-4.6-1.7-5.8c-1.1-1.2-3-1.9-5.6-1.9c-1.6,0-2.9,0.3-3.9,0.8c-1,0.6-2.1,1.3-3.2,2.3c-1,0.8-1.7,1.4-2.2,1.7
			c-0.2,0.6-0.6,0.8-1.1,0.8h-11.3c-0.7,0-1.3-0.2-1.7-0.7c-0.5-0.4-0.6-1-0.6-1.6c0.1-1.9,1-3.9,2.8-6.2s4.5-4.3,8.1-5.9
			s8.1-2.5,13.5-2.5c8.5,0,14.8,1.9,18.9,5.7c4.1,3.8,6.1,8.8,6.1,15.2V323c0,0.7-0.2,1.3-0.7,1.8c-0.5,0.5-1.1,0.8-1.9,0.8h-12.1
			c-0.7,0-1.3-0.3-1.8-0.8c-0.5-0.5-0.8-1.1-0.8-1.8v-3.6c-1.5,2.1-3.7,3.9-6.4,5.2c-2.7,1.4-6,2-9.7,2
			C301.8,326.6,298.5,325.9,295.4,324.5z M318.1,311.7c2-2.1,3-5.1,3-9.1v-1.5l-8.8,1.6c-6.2,1.1-9.3,3.3-9.3,6.5
			c0,1.7,0.7,3.1,2.2,4.1c1.5,1,3.2,1.5,5.3,1.5C313.5,314.8,316.1,313.8,318.1,311.7z"/>
		<path class="st0" d="M357,324.8c-0.5-0.5-0.8-1.1-0.8-1.8v-37.8h-7.9c-0.8,0-1.4-0.2-1.9-0.7c-0.5-0.5-0.7-1.1-0.7-1.9v-8.4
			c0-0.8,0.2-1.4,0.7-1.9c0.5-0.5,1.1-0.7,1.9-0.7h7.9v-3.3c0-6.9,2-11.8,5.9-14.9c3.9-3.1,9.5-4.6,16.9-4.6h8.1
			c0.8,0,1.4,0.2,1.9,0.7c0.5,0.5,0.7,1.1,0.7,1.9v8.4c0,0.7-0.2,1.3-0.7,1.8c-0.5,0.5-1.1,0.8-1.9,0.8h-7.3c-2.3,0-3.9,0.5-4.9,1.6
			c-1,1.1-1.5,2.7-1.5,4.8v2.8h12.6c0.8,0,1.4,0.2,1.9,0.7c0.5,0.5,0.7,1.1,0.7,1.9v8.4c0,0.7-0.2,1.3-0.7,1.8
			c-0.5,0.5-1.1,0.8-1.9,0.8h-12.6V323c0,0.7-0.2,1.3-0.7,1.8c-0.5,0.5-1.1,0.8-1.9,0.8h-12.1C358.2,325.6,357.6,325.3,357,324.8z"
			/>
		<path class="st0" d="M396.9,324.8c-0.5-0.5-0.8-1.1-0.8-1.8v-68.6c0-0.8,0.3-1.4,0.8-1.9c0.5-0.5,1.1-0.7,1.8-0.7h12.1
			c0.8,0,1.4,0.2,1.9,0.7c0.5,0.5,0.7,1.1,0.7,1.9v34.8l14.4-15.9c0.1-0.1,0.4-0.4,0.8-0.7c0.4-0.3,0.8-0.6,1.2-0.8
			c0.4-0.2,0.9-0.3,1.5-0.3h13.9c0.6,0,1.2,0.2,1.6,0.7c0.4,0.5,0.7,1,0.7,1.6c0,0.8-0.3,1.4-0.8,1.8l-18.7,20.2l21.3,25.9
			c0.6,0.6,0.8,1.1,0.8,1.6c0,0.7-0.2,1.3-0.7,1.7c-0.5,0.5-1,0.7-1.7,0.7h-14.2c-0.9,0-1.6-0.1-2-0.4c-0.5-0.3-1-0.7-1.6-1.4
			l-16.4-19.7V323c0,0.7-0.2,1.3-0.7,1.8c-0.5,0.5-1.1,0.8-1.9,0.8h-12.1C398.1,325.6,397.5,325.3,396.9,324.8z"/>
		<path class="st0" d="M462,324.5c-3-1.4-5.4-3.4-7.1-5.8c-1.7-2.5-2.5-5.2-2.5-8.2c0-4.8,2-8.6,5.9-11.5c3.9-2.9,9.3-4.9,16.2-6
			l13-2v-1.5c0-2.6-0.6-4.6-1.7-5.8c-1.1-1.2-3-1.9-5.6-1.9c-1.6,0-2.9,0.3-3.9,0.8c-1,0.6-2.1,1.3-3.2,2.3c-1,0.8-1.7,1.4-2.2,1.7
			c-0.2,0.6-0.6,0.8-1.1,0.8h-11.3c-0.7,0-1.3-0.2-1.7-0.7c-0.5-0.4-0.6-1-0.6-1.6c0.1-1.9,1-3.9,2.8-6.2s4.5-4.3,8.1-5.9
			s8.1-2.5,13.5-2.5c8.5,0,14.8,1.9,18.9,5.7c4.1,3.8,6.1,8.8,6.1,15.2V323c0,0.7-0.2,1.3-0.7,1.8c-0.5,0.5-1.1,0.8-1.9,0.8h-12.1
			c-0.7,0-1.3-0.3-1.8-0.8c-0.5-0.5-0.8-1.1-0.8-1.8v-3.6c-1.5,2.1-3.7,3.9-6.4,5.2c-2.7,1.4-6,2-9.7,2
			C468.3,326.6,465,325.9,462,324.5z M484.6,311.7c2-2.1,3-5.1,3-9.1v-1.5l-8.8,1.6c-6.2,1.1-9.3,3.3-9.3,6.5c0,1.7,0.7,3.1,2.2,4.1
			c1.5,1,3.2,1.5,5.3,1.5C480.1,314.8,482.6,313.8,484.6,311.7z"/>
	</g>
	<g>
		<path class="st0" d="M300.2,364.6c-0.4-0.4-0.6-0.9-0.6-1.6v-3.8c0-0.7,0.2-1.2,0.6-1.6c0.4-0.4,0.9-0.6,1.6-0.6h3.8
			c0.7,0,1.2,0.2,1.7,0.6c0.4,0.4,0.7,1,0.7,1.6v3.8c0,0.7-0.2,1.2-0.7,1.6c-0.4,0.4-1,0.6-1.7,0.6h-3.8
			C301.1,365.2,300.6,365,300.2,364.6z M301.3,427.3c-0.4-0.4-0.6-0.9-0.6-1.6v-47.6c0-0.7,0.2-1.2,0.6-1.6c0.4-0.4,0.9-0.6,1.6-0.6
			h1.7c0.7,0,1.2,0.2,1.6,0.6c0.4,0.4,0.6,0.9,0.6,1.6v47.6c0,0.7-0.2,1.2-0.6,1.6c-0.4,0.4-0.9,0.6-1.6,0.6h-1.7
			C302.2,427.9,301.7,427.7,301.3,427.3z"/>
		<path class="st0" d="M323.6,427.3c-0.4-0.4-0.6-0.9-0.6-1.6v-47.6c0-0.7,0.2-1.2,0.6-1.6c0.4-0.4,0.9-0.6,1.6-0.6h1.7
			c0.7,0,1.2,0.2,1.6,0.6c0.4,0.4,0.6,0.9,0.6,1.6v4.7c2-2.6,4.3-4.6,6.8-5.9c2.6-1.3,5.9-2,10-2c6.5,0,11.6,2.1,15.1,6.2
			c3.5,4.2,5.3,9.5,5.3,16.1v28.4c0,0.7-0.2,1.2-0.6,1.6c-0.4,0.4-0.9,0.6-1.6,0.6h-1.7c-0.7,0-1.2-0.2-1.6-0.6
			c-0.4-0.4-0.6-0.9-0.6-1.6v-27.9c0-5.4-1.3-9.6-4-12.6c-2.6-3-6.4-4.5-11.3-4.5c-4.8,0-8.6,1.5-11.5,4.6c-2.9,3-4.3,7.2-4.3,12.5
			v27.9c0,0.7-0.2,1.2-0.6,1.6c-0.4,0.4-0.9,0.6-1.6,0.6h-1.7C324.5,427.9,324,427.7,323.6,427.3z"/>
		<path class="st0" d="M388.2,423.4c-2.1-3-3.1-7-3.1-12.2v-29.5h-7.8c-0.7,0-1.2-0.2-1.6-0.6c-0.4-0.4-0.6-0.9-0.6-1.6v-1.4
			c0-0.7,0.2-1.2,0.6-1.6c0.4-0.4,0.9-0.6,1.6-0.6h7.8v-16.8c0-0.7,0.2-1.2,0.6-1.6c0.4-0.4,0.9-0.6,1.6-0.6h1.7
			c0.7,0,1.2,0.2,1.6,0.6s0.6,0.9,0.6,1.6v16.8h12.4c0.7,0,1.2,0.2,1.6,0.6c0.4,0.4,0.6,0.9,0.6,1.6v1.4c0,0.7-0.2,1.2-0.6,1.6
			c-0.4,0.4-0.9,0.6-1.6,0.6h-12.4v29.1c0,3.7,0.6,6.6,1.9,8.5c1.2,1.9,3.3,2.9,6.1,2.9h5.4c0.7,0,1.2,0.2,1.6,0.6
			c0.4,0.4,0.6,0.9,0.6,1.6v1.4c0,0.7-0.2,1.2-0.6,1.6c-0.4,0.4-0.9,0.6-1.6,0.6h-5.9C393.8,427.9,390.3,426.4,388.2,423.4z"/>
		<path class="st0" d="M421.1,422.6c-3.9-4.2-6.1-9.8-6.6-16.8l-0.1-4l0.1-4c0.5-6.9,2.7-12.5,6.5-16.7c3.8-4.2,9-6.3,15.4-6.3
			c6.9,0,12.3,2.3,16.2,6.9c3.9,4.6,5.8,10.9,5.8,18.9v1.5c0,0.7-0.2,1.2-0.7,1.6s-1,0.6-1.6,0.6h-35.6v1c0.1,3.1,0.9,6,2.2,8.8
			s3.1,4.9,5.5,6.5c2.3,1.6,5.1,2.5,8.2,2.5c3.7,0,6.6-0.7,8.9-2.2c2.3-1.4,4-2.9,5-4.3c0.6-0.8,1-1.3,1.4-1.5
			c0.3-0.2,0.8-0.3,1.6-0.3h1.6c0.6,0,1.1,0.2,1.5,0.5c0.4,0.3,0.6,0.8,0.6,1.3c0,1.4-0.9,3.1-2.7,5c-1.8,2-4.2,3.7-7.3,5.1
			c-3.1,1.4-6.7,2.2-10.6,2.2C430.1,428.9,425,426.8,421.1,422.6z M452.4,398.8v-0.4c0-5.1-1.5-9.4-4.4-12.7c-2.9-3.3-6.8-5-11.6-5
			c-4.9,0-8.7,1.7-11.6,5c-2.8,3.3-4.2,7.6-4.2,12.7v0.4H452.4z"/>
		<path class="st0" d="M478.6,447.2c-3.1-1.8-5.3-3.8-6.5-6.1c-1.2-2.3-1.9-4.3-1.9-6.1c0-0.6,0.2-1.1,0.7-1.5
			c0.4-0.4,1-0.6,1.5-0.6h1.4c0.6,0,1.1,0.2,1.5,0.4c0.4,0.3,0.7,0.8,0.9,1.7c2.1,6.1,6.9,9.1,14.4,9.1c5.7,0,10-1.2,12.7-3.5
			c2.7-2.4,4.1-6.6,4.1-12.7V421c-3.9,5.3-9.5,7.9-16.8,7.9c-7.2,0-12.5-2.4-16-7.1c-3.4-4.7-5.2-10.4-5.5-17.2l-0.1-2.8l0.1-2.8
			c0.2-6.7,2-12.5,5.5-17.2c3.4-4.7,8.8-7,16-7c7.3,0,12.9,2.6,16.8,7.9v-4.6c0-0.7,0.2-1.2,0.6-1.6c0.4-0.4,0.9-0.6,1.6-0.6h1.6
			c0.7,0,1.2,0.2,1.7,0.6c0.4,0.4,0.7,1,0.7,1.6v48.7c0,7.1-1.7,12.8-5,16.9c-3.3,4.1-9.1,6.2-17.4,6.2
			C485.9,449.9,481.7,449,478.6,447.2z M503.1,417.8c2.7-3.5,4.1-7.6,4.3-12.4c0.1-0.7,0.1-1.9,0.1-3.6c0-1.7,0-2.9-0.1-3.6
			c-0.2-4.7-1.6-8.9-4.3-12.4c-2.7-3.5-6.6-5.2-11.9-5.2c-5.4,0-9.3,1.7-11.8,5.2c-2.5,3.4-3.8,7.8-4,13.2l-0.1,2.8l0.1,2.8
			c0.2,5.4,1.5,9.8,4,13.2c2.5,3.4,6.5,5.2,11.8,5.2C496.5,423.1,500.4,421.3,503.1,417.8z"/>
		<path class="st0" d="M530.4,427.3c-0.4-0.4-0.6-0.9-0.6-1.6v-47.5c0-0.7,0.2-1.2,0.6-1.6c0.4-0.4,0.9-0.6,1.6-0.6h1.6
			c0.7,0,1.2,0.2,1.6,0.6c0.4,0.4,0.7,1,0.7,1.6v4.6c2.4-4.6,6.9-6.9,13.6-6.9h3.7c0.7,0,1.2,0.2,1.6,0.6c0.4,0.4,0.6,0.9,0.6,1.6
			v1.4c0,0.7-0.2,1.2-0.6,1.6c-0.4,0.4-0.9,0.6-1.6,0.6h-4.3c-4,0-7.2,1.2-9.5,3.5c-2.3,2.3-3.5,5.5-3.5,9.5v31
			c0,0.7-0.2,1.2-0.7,1.6c-0.4,0.4-1,0.6-1.6,0.6H532C531.3,427.9,530.8,427.7,530.4,427.3z"/>
		<path class="st0" d="M568.9,426.9c-2.7-1.3-4.9-3.1-6.5-5.4c-1.6-2.3-2.5-4.8-2.5-7.5c0-4.4,1.8-8,5.3-10.8
			c3.6-2.8,8.4-4.6,14.5-5.4l15.8-2.2v-3.5c0-3.7-1.1-6.5-3.3-8.5c-2.2-2-5.7-3-10.2-3c-3.4,0-6.2,0.7-8.4,2
			c-2.2,1.3-3.5,2.9-4.1,4.8c-0.3,0.8-0.6,1.4-1,1.6c-0.4,0.3-0.8,0.5-1.5,0.5h-1.4c-0.6,0-1.1-0.2-1.6-0.7
			c-0.4-0.4-0.6-0.9-0.6-1.5c0-1.5,0.7-3.2,2-5.1c1.3-2,3.4-3.7,6.2-5.1c2.8-1.5,6.2-2.2,10.3-2.2c7.1,0,12.2,1.7,15.2,5.1
			s4.5,7.5,4.5,12.4v33.3c0,0.7-0.2,1.2-0.6,1.6c-0.4,0.4-0.9,0.6-1.6,0.6h-1.7c-0.7,0-1.2-0.2-1.6-0.6c-0.4-0.4-0.6-0.9-0.6-1.6
			V421c-1.5,2.2-3.6,4.1-6.5,5.6c-2.8,1.5-6.6,2.3-11.2,2.3C574.6,428.9,571.6,428.2,568.9,426.9z M590.8,418.3
			c3.1-3.2,4.7-7.8,4.7-13.8v-3.4l-12.9,1.8c-5.5,0.7-9.6,2-12.4,3.8c-2.8,1.8-4.2,4.1-4.2,6.8c0,3.1,1.3,5.4,3.9,7.1
			c2.6,1.7,5.5,2.5,8.9,2.5C583.7,423.1,587.7,421.5,590.8,418.3z"/>
		<path class="st0" d="M623.9,423.4c-2.1-3-3.1-7-3.1-12.2v-29.5H613c-0.7,0-1.2-0.2-1.6-0.6c-0.4-0.4-0.6-0.9-0.6-1.6v-1.4
			c0-0.7,0.2-1.2,0.6-1.6c0.4-0.4,0.9-0.6,1.6-0.6h7.8v-16.8c0-0.7,0.2-1.2,0.6-1.6c0.4-0.4,0.9-0.6,1.6-0.6h1.7
			c0.7,0,1.2,0.2,1.6,0.6s0.6,0.9,0.6,1.6v16.8h12.4c0.7,0,1.2,0.2,1.6,0.6c0.4,0.4,0.6,0.9,0.6,1.6v1.4c0,0.7-0.2,1.2-0.6,1.6
			c-0.4,0.4-0.9,0.6-1.6,0.6h-12.4v29.1c0,3.7,0.6,6.6,1.9,8.5c1.2,1.9,3.3,2.9,6.1,2.9h5.4c0.7,0,1.2,0.2,1.6,0.6
			c0.4,0.4,0.6,0.9,0.6,1.6v1.4c0,0.7-0.2,1.2-0.6,1.6c-0.4,0.4-0.9,0.6-1.6,0.6h-5.9C629.5,427.9,626,426.4,623.9,423.4z"/>
		<path class="st0" d="M652.3,364.6c-0.4-0.4-0.6-0.9-0.6-1.6v-3.8c0-0.7,0.2-1.2,0.6-1.6c0.4-0.4,0.9-0.6,1.6-0.6h3.8
			c0.7,0,1.2,0.2,1.7,0.6c0.4,0.4,0.6,1,0.6,1.6v3.8c0,0.7-0.2,1.2-0.6,1.6c-0.4,0.4-1,0.6-1.7,0.6h-3.8
			C653.2,365.2,652.7,365,652.3,364.6z M653.4,427.3c-0.4-0.4-0.6-0.9-0.6-1.6v-47.6c0-0.7,0.2-1.2,0.6-1.6c0.4-0.4,0.9-0.6,1.6-0.6
			h1.7c0.7,0,1.2,0.2,1.6,0.6c0.4,0.4,0.6,0.9,0.6,1.6v47.6c0,0.7-0.2,1.2-0.6,1.6c-0.4,0.4-0.9,0.6-1.6,0.6H655
			C654.3,427.9,653.8,427.7,653.4,427.3z"/>
		<path class="st0" d="M678.7,422.5c-3.8-4.2-5.8-9.7-6-16.4l-0.1-4.2l0.1-4.2c0.2-6.7,2.2-12.2,6-16.4c3.8-4.2,9.2-6.4,16.2-6.4
			c6.9,0,12.3,2.1,16.1,6.4c3.8,4.2,5.9,9.7,6,16.4c0.1,0.7,0.1,2.1,0.1,4.2c0,2.1,0,3.5-0.1,4.2c-0.2,6.7-2.2,12.2-6,16.4
			c-3.8,4.2-9.2,6.4-16.1,6.4C688,428.9,682.6,426.8,678.7,422.5z M706.3,418.5c2.9-3,4.5-7.4,4.7-12.9c0.1-0.7,0.1-1.9,0.1-3.7
			s0-3-0.1-3.7c-0.2-5.6-1.8-9.9-4.7-12.9c-2.9-3-6.7-4.6-11.4-4.6c-4.7,0-8.6,1.5-11.5,4.6c-2.9,3-4.5,7.4-4.7,12.9l-0.1,3.7
			l0.1,3.7c0.2,5.6,1.8,9.9,4.7,12.9c2.9,3,6.7,4.6,11.5,4.6C699.6,423.1,703.4,421.6,706.3,418.5z"/>
		<path class="st0" d="M731.5,427.3c-0.4-0.4-0.6-0.9-0.6-1.6v-47.6c0-0.7,0.2-1.2,0.6-1.6c0.4-0.4,0.9-0.6,1.6-0.6h1.7
			c0.7,0,1.2,0.2,1.6,0.6c0.4,0.4,0.6,0.9,0.6,1.6v4.7c2-2.6,4.3-4.6,6.8-5.9c2.6-1.3,5.9-2,10-2c6.5,0,11.6,2.1,15.1,6.2
			c3.5,4.2,5.3,9.5,5.3,16.1v28.4c0,0.7-0.2,1.2-0.6,1.6c-0.4,0.4-0.9,0.6-1.6,0.6h-1.7c-0.7,0-1.2-0.2-1.6-0.6
			c-0.4-0.4-0.6-0.9-0.6-1.6v-27.9c0-5.4-1.3-9.6-4-12.6c-2.6-3-6.4-4.5-11.3-4.5c-4.8,0-8.6,1.5-11.5,4.6c-2.9,3-4.3,7.2-4.3,12.5
			v27.9c0,0.7-0.2,1.2-0.6,1.6c-0.4,0.4-0.9,0.6-1.6,0.6h-1.7C732.4,427.9,731.9,427.7,731.5,427.3z"/>
	</g>
	<g>
		<path class="st0" d="M1048.3,673.4c-0.3-0.3-0.5-0.8-0.5-1.2v-25.3h-5.3c-0.5,0-0.9-0.2-1.3-0.5c-0.3-0.3-0.5-0.7-0.5-1.3v-5.6
			c0-0.5,0.2-0.9,0.5-1.3c0.3-0.3,0.7-0.5,1.3-0.5h5.3v-2.2c0-4.6,1.3-7.9,3.9-10c2.6-2.1,6.4-3.1,11.3-3.1h5.4
			c0.5,0,0.9,0.2,1.3,0.5c0.3,0.3,0.5,0.7,0.5,1.3v5.6c0,0.5-0.2,0.9-0.5,1.2c-0.3,0.3-0.7,0.5-1.3,0.5h-4.9c-1.5,0-2.6,0.4-3.3,1.1
			c-0.7,0.7-1,1.8-1,3.2v1.9h8.4c0.5,0,0.9,0.2,1.3,0.5c0.3,0.3,0.5,0.7,0.5,1.3v5.6c0,0.5-0.2,0.9-0.5,1.2
			c-0.3,0.3-0.7,0.5-1.3,0.5h-8.4v25.3c0,0.5-0.2,0.9-0.5,1.2c-0.3,0.3-0.7,0.5-1.3,0.5h-8.1
			C1049.1,673.9,1048.7,673.7,1048.3,673.4z"/>
		<path class="st0" d="M1077.9,670.5c-3.1-2.7-4.8-6.6-5.1-11.6c0-0.6-0.1-1.6-0.1-3.1c0-1.5,0-2.5,0.1-3.1c0.3-4.9,2-8.8,5.2-11.5
			c3.2-2.8,7.6-4.1,13.2-4.1c5.6,0,10,1.4,13.2,4.1c3.2,2.8,4.9,6.6,5.2,11.5c0,0.6,0.1,1.6,0.1,3.1c0,1.5,0,2.5-0.1,3.1
			c-0.3,5-2,8.8-5.1,11.6c-3.1,2.7-7.6,4.1-13.4,4.1C1085.4,674.6,1081,673.2,1077.9,670.5z M1095.7,664.3c1-1.2,1.5-3.1,1.7-5.7
			c0-0.5,0.1-1.4,0.1-2.8c0-1.4,0-2.3-0.1-2.8c-0.1-2.5-0.7-4.4-1.7-5.6c-1-1.3-2.5-1.9-4.5-1.9c-3.9,0-5.9,2.5-6.1,7.5l-0.1,2.8
			l0.1,2.8c0.1,2.6,0.6,4.4,1.6,5.7c1,1.2,2.5,1.8,4.5,1.8C1093.2,666.1,1094.7,665.5,1095.7,664.3z"/>
		<path class="st0" d="M1117.1,673.4c-0.3-0.3-0.5-0.7-0.5-1.3v-32.7c0-0.5,0.2-0.9,0.5-1.3c0.3-0.3,0.7-0.5,1.3-0.5h8
			c0.5,0,0.9,0.2,1.3,0.5c0.3,0.3,0.5,0.8,0.5,1.2v2.8c2.6-3,6-4.5,10.3-4.5h3.1c0.5,0,0.9,0.2,1.3,0.5c0.3,0.3,0.5,0.7,0.5,1.3v7.2
			c0,0.5-0.2,0.9-0.5,1.2c-0.3,0.3-0.7,0.5-1.3,0.5h-6.8c-1.9,0-3.4,0.5-4.4,1.6c-1,1-1.6,2.5-1.6,4.4v17.8c0,0.5-0.2,0.9-0.5,1.3
			c-0.3,0.3-0.8,0.5-1.3,0.5h-8.6C1117.8,673.9,1117.4,673.7,1117.1,673.4z"/>
		<path class="st0" d="M1170.2,673.5c-0.3-0.3-0.6-0.7-0.8-1.3l-10-32.2l-0.1-0.7c0-0.4,0.2-0.8,0.5-1.1c0.3-0.3,0.7-0.5,1.1-0.5
			h7.2c0.6,0,1,0.2,1.4,0.5c0.4,0.3,0.6,0.6,0.7,1l5.8,19.9l6.3-19.8c0.1-0.4,0.3-0.7,0.7-1c0.4-0.3,0.9-0.5,1.5-0.5h4.6
			c0.6,0,1.1,0.2,1.5,0.5c0.4,0.3,0.6,0.7,0.7,1l6.3,19.8l5.8-19.9c0.1-0.4,0.3-0.7,0.7-1c0.4-0.3,0.8-0.5,1.4-0.5h7.2
			c0.4,0,0.8,0.2,1.1,0.5c0.3,0.3,0.5,0.7,0.5,1.1l-0.1,0.7l-10,32.2c-0.2,0.6-0.5,1-0.8,1.3c-0.3,0.3-0.8,0.5-1.5,0.5h-6.3
			c-1.2,0-2-0.6-2.3-1.7l-6.4-19.1l-6.4,19.1c-0.3,1.2-1.1,1.7-2.3,1.7h-6.3C1171.1,673.9,1170.6,673.8,1170.2,673.5z"/>
		<path class="st0" d="M1222.4,670.1c-3.2-3-4.9-7.4-5-13.2v-2.4c0.2-5.5,1.9-9.8,5.1-12.8c3.2-3.1,7.6-4.6,13-4.6
			c3.9,0,7.3,0.8,10,2.4c2.7,1.6,4.8,3.8,6.1,6.6c1.4,2.8,2.1,6,2.1,9.6v1.7c0,0.5-0.2,0.9-0.5,1.2c-0.3,0.3-0.7,0.5-1.3,0.5h-22.3
			v0.5c0.1,2.2,0.6,3.9,1.6,5.3c1,1.3,2.4,2,4.2,2c1.2,0,2.1-0.2,2.9-0.7c0.7-0.5,1.4-1.1,2-1.8c0.4-0.5,0.8-0.8,1-0.9
			c0.3-0.1,0.7-0.2,1.2-0.2h8.6c0.4,0,0.8,0.1,1.1,0.4c0.3,0.3,0.5,0.6,0.5,1c0,1.2-0.7,2.6-2.1,4.2c-1.4,1.6-3.4,2.9-6,4.1
			c-2.6,1.2-5.7,1.7-9.2,1.7C1230,674.6,1225.6,673.1,1222.4,670.1z M1241.4,652.1V652c0-2.3-0.5-4.1-1.6-5.4c-1-1.3-2.5-2-4.4-2
			c-1.8,0-3.2,0.7-4.3,2c-1,1.3-1.6,3.1-1.6,5.4v0.1H1241.4z"/>
		<path class="st0" d="M1271.5,669.9v2.2c0,0.5-0.2,0.9-0.5,1.2c-0.3,0.3-0.7,0.5-1.3,0.5h-7.9c-0.5,0-0.9-0.2-1.2-0.5
			c-0.3-0.3-0.5-0.8-0.5-1.2v-45.9c0-0.5,0.2-0.9,0.5-1.3c0.3-0.3,0.8-0.5,1.2-0.5h8.5c0.5,0,0.9,0.2,1.3,0.5
			c0.3,0.3,0.5,0.7,0.5,1.3v14.9c2.6-2.7,6-4.1,10.2-4.1c4.5,0,8.1,1.5,10.7,4.4c2.6,2.9,4,6.9,4.2,11.9c0,0.6,0.1,1.4,0.1,2.5
			c0,1,0,1.8-0.1,2.4c-0.2,5.2-1.6,9.2-4.2,12.1c-2.6,2.9-6.1,4.3-10.7,4.3C1277.7,674.6,1274.1,673,1271.5,669.9z M1283.3,663.3
			c1-1.3,1.5-3.1,1.6-5.4c0.1-0.9,0.1-1.6,0.1-2.2c0-0.5,0-1.2-0.1-2.2c-0.1-2.3-0.7-4.1-1.6-5.4c-1-1.3-2.5-1.9-4.7-1.9
			c-2,0-3.6,0.6-4.7,1.9c-1.1,1.3-1.6,2.8-1.7,4.7l-0.1,2.6l0.1,2.6c0.1,2.1,0.7,3.8,1.7,5.1c1,1.3,2.6,2,4.7,2
			C1280.8,665.3,1282.3,664.6,1283.3,663.3z"/>
	</g>
	<g>
		<path class="st0" d="M1082.6,781.3c-3-1.5-5.2-3.1-6.7-5c-1.5-1.9-2.2-3.4-2.2-4.5c0-0.6,0.2-1.1,0.7-1.4c0.5-0.4,1-0.6,1.5-0.6
			h1.5c0.5,0,0.8,0.1,1.2,0.2c0.3,0.2,0.7,0.5,1,1.1c1.5,2.1,3.2,3.7,5.4,4.8c2.1,1.2,5,1.8,8.6,1.8c4.1,0,7.5-0.8,10-2.3
			s3.8-3.8,3.8-6.8c0-1.8-0.5-3.3-1.6-4.4c-1-1.1-2.7-2.1-5-3c-2.3-0.8-5.7-1.8-10.2-2.8c-5.9-1.3-10-3.2-12.1-5.5
			c-2.2-2.3-3.2-5.3-3.2-8.9c0-2.5,0.7-4.8,2-7c1.4-2.2,3.4-4,6.1-5.4c2.7-1.4,6-2.1,9.8-2.1c4,0,7.4,0.7,10.2,2
			c2.8,1.4,4.8,3,6.2,4.8c1.4,1.8,2,3.3,2,4.4c0,0.6-0.2,1.1-0.7,1.5c-0.4,0.4-0.9,0.5-1.5,0.5h-1.5c-0.9,0-1.7-0.4-2.2-1.3
			c-1.3-2-2.8-3.5-4.5-4.5c-1.7-1-4.3-1.6-8-1.6c-3.9,0-6.8,0.8-8.8,2.4s-3,3.7-3,6.3c0,1.6,0.4,2.9,1.2,4c0.8,1.1,2.3,2,4.5,3
			c2.2,0.9,5.4,1.8,9.6,2.8c6.2,1.4,10.6,3.3,13.1,5.6c2.5,2.3,3.8,5.4,3.8,9.3c0,2.7-0.8,5.2-2.3,7.5c-1.5,2.3-3.8,4.1-6.8,5.4
			s-6.6,2-10.8,2C1089.2,783.5,1085.6,782.8,1082.6,781.3z"/>
		<path class="st0" d="M1130.3,777.3c-3.9-4.2-6.1-9.8-6.6-16.8l-0.1-4l0.1-4c0.5-6.9,2.7-12.5,6.5-16.7c3.8-4.2,9-6.3,15.4-6.3
			c6.9,0,12.3,2.3,16.2,6.9c3.9,4.6,5.8,10.9,5.8,18.9v1.5c0,0.7-0.2,1.2-0.7,1.6c-0.4,0.4-1,0.6-1.6,0.6h-35.6v1
			c0.1,3.1,0.9,6,2.2,8.8s3.1,4.9,5.5,6.5c2.3,1.6,5.1,2.5,8.2,2.5c3.7,0,6.6-0.7,8.9-2.2c2.3-1.4,4-2.9,5-4.3
			c0.6-0.8,1-1.3,1.4-1.5c0.3-0.2,0.8-0.3,1.6-0.3h1.6c0.6,0,1.1,0.2,1.5,0.5c0.4,0.3,0.6,0.8,0.6,1.3c0,1.4-0.9,3.1-2.7,5
			c-1.8,2-4.2,3.7-7.3,5.1c-3.1,1.4-6.7,2.2-10.6,2.2C1139.2,783.5,1134.1,781.4,1130.3,777.3z M1161.6,753.4V753
			c0-5.1-1.5-9.4-4.4-12.7c-2.9-3.3-6.8-5-11.6-5c-4.9,0-8.7,1.7-11.6,5c-2.8,3.3-4.2,7.6-4.2,12.7v0.4H1161.6z"/>
		<path class="st0" d="M1181.5,781.9c-0.4-0.4-0.6-0.9-0.6-1.6v-47.5c0-0.7,0.2-1.2,0.6-1.6c0.4-0.4,0.9-0.7,1.6-0.7h1.6
			c0.7,0,1.2,0.2,1.6,0.7c0.4,0.4,0.7,1,0.7,1.6v4.6c2.4-4.6,6.9-6.9,13.6-6.9h3.7c0.7,0,1.2,0.2,1.6,0.6c0.4,0.4,0.6,0.9,0.6,1.6
			v1.4c0,0.7-0.2,1.2-0.6,1.6c-0.4,0.4-0.9,0.6-1.6,0.6h-4.3c-4,0-7.2,1.2-9.5,3.5c-2.3,2.3-3.5,5.5-3.5,9.5v31
			c0,0.7-0.2,1.2-0.7,1.6c-0.4,0.4-1,0.6-1.6,0.6h-1.6C1182.4,782.5,1181.9,782.3,1181.5,781.9z"/>
		<path class="st0" d="M1229.8,780l-18.4-46.4l-0.2-1.1c0-0.5,0.2-1,0.6-1.4c0.4-0.4,0.9-0.6,1.4-0.6h2.1c0.6,0,1.1,0.2,1.5,0.5
			c0.4,0.3,0.6,0.7,0.8,1l16.9,43.2l16.9-43.2c0.1-0.3,0.4-0.7,0.8-1c0.4-0.3,0.8-0.5,1.5-0.5h2.1c0.5,0,1,0.2,1.4,0.6
			c0.4,0.4,0.6,0.9,0.6,1.4l-0.2,1.1L1239,780c-0.7,1.7-1.9,2.5-3.8,2.5h-1.6C1231.7,782.5,1230.4,781.7,1229.8,780z"/>
		<path class="st0" d="M1268.8,719.2c-0.4-0.4-0.6-0.9-0.6-1.6v-3.8c0-0.7,0.2-1.2,0.6-1.6c0.4-0.4,0.9-0.7,1.6-0.7h3.8
			c0.7,0,1.2,0.2,1.7,0.7c0.4,0.4,0.6,1,0.6,1.6v3.8c0,0.7-0.2,1.2-0.6,1.6c-0.4,0.4-1,0.6-1.7,0.6h-3.8
			C1269.7,719.8,1269.2,719.6,1268.8,719.2z M1269.9,781.9c-0.4-0.4-0.6-0.9-0.6-1.6v-47.6c0-0.7,0.2-1.2,0.6-1.6
			c0.4-0.4,0.9-0.6,1.6-0.6h1.7c0.7,0,1.2,0.2,1.6,0.6c0.4,0.4,0.6,0.9,0.6,1.6v47.6c0,0.7-0.2,1.2-0.6,1.6
			c-0.4,0.4-0.9,0.6-1.6,0.6h-1.7C1270.8,782.5,1270.3,782.3,1269.9,781.9z"/>
		<path class="st0" d="M1295.2,777.5c-3.8-4-5.8-9.7-6-17l-0.1-4l0.1-4c0.2-7.3,2.2-12.9,6-17c3.8-4,9.2-6,16.1-6
			c4.4,0,8.2,0.8,11.2,2.4c3.1,1.6,5.4,3.6,7,6c1.5,2.4,2.4,4.9,2.5,7.5c0.1,0.6-0.1,1.1-0.6,1.5c-0.5,0.4-1,0.7-1.6,0.7h-1.4
			c-0.7,0-1.2-0.2-1.5-0.5s-0.6-0.9-1-1.7c-1.3-3.7-3.2-6.3-5.6-7.8c-2.4-1.6-5.4-2.4-9.1-2.4c-4.8,0-8.6,1.5-11.5,4.4
			c-2.8,2.9-4.3,7.3-4.5,13.3l-0.1,3.5l0.1,3.5c0.2,6,1.7,10.5,4.5,13.4c2.8,2.9,6.7,4.3,11.5,4.3c3.7,0,6.7-0.8,9.1-2.3
			c2.4-1.6,4.3-4.2,5.6-7.9c0.3-0.8,0.7-1.3,1-1.6c0.3-0.3,0.8-0.5,1.5-0.5h1.4c0.6,0,1.1,0.2,1.6,0.6c0.5,0.4,0.7,1,0.6,1.6
			c-0.1,2.6-1,5.1-2.5,7.5c-1.5,2.4-3.8,4.4-7,6c-3.1,1.6-6.8,2.4-11.2,2.4C1304.3,783.5,1299,781.5,1295.2,777.5z"/>
		<path class="st0" d="M1349.2,777.3c-3.9-4.2-6.1-9.8-6.6-16.8l-0.1-4l0.1-4c0.5-6.9,2.7-12.5,6.5-16.7c3.8-4.2,9-6.3,15.4-6.3
			c6.9,0,12.3,2.3,16.2,6.9c3.9,4.6,5.8,10.9,5.8,18.9v1.5c0,0.7-0.2,1.2-0.7,1.6c-0.4,0.4-1,0.6-1.6,0.6h-35.6v1
			c0.1,3.1,0.9,6,2.2,8.8s3.1,4.9,5.5,6.5c2.3,1.6,5.1,2.5,8.2,2.5c3.7,0,6.6-0.7,8.9-2.2c2.3-1.4,4-2.9,5-4.3
			c0.6-0.8,1-1.3,1.4-1.5c0.3-0.2,0.8-0.3,1.6-0.3h1.6c0.6,0,1.1,0.2,1.5,0.5c0.4,0.3,0.6,0.8,0.6,1.3c0,1.4-0.9,3.1-2.7,5
			c-1.8,2-4.2,3.7-7.3,5.1c-3.1,1.4-6.7,2.2-10.6,2.2C1358.1,783.5,1353,781.4,1349.2,777.3z M1380.5,753.4V753
			c0-5.1-1.5-9.4-4.4-12.7c-2.9-3.3-6.8-5-11.6-5c-4.9,0-8.7,1.7-11.6,5c-2.8,3.3-4.2,7.6-4.2,12.7v0.4H1380.5z"/>
		<path class="st0" d="M1405.3,781.3c-3-1.5-5.2-3.1-6.7-5c-1.5-1.9-2.2-3.4-2.2-4.5c0-0.6,0.2-1.1,0.7-1.4c0.5-0.4,1-0.6,1.5-0.6
			h1.5c0.5,0,0.8,0.1,1.1,0.2c0.3,0.2,0.7,0.5,1,1.1c1.5,2.1,3.2,3.7,5.4,4.8c2.1,1.2,5,1.8,8.6,1.8c4.1,0,7.5-0.8,10-2.3
			c2.5-1.6,3.8-3.8,3.8-6.8c0-1.8-0.5-3.3-1.6-4.4c-1-1.1-2.7-2.1-5-3c-2.3-0.8-5.7-1.8-10.2-2.8c-5.9-1.3-10-3.2-12.1-5.5
			c-2.2-2.3-3.2-5.3-3.2-8.9c0-2.5,0.7-4.8,2-7c1.4-2.2,3.4-4,6.1-5.4c2.7-1.4,6-2.1,9.8-2.1c4,0,7.4,0.7,10.2,2
			c2.8,1.4,4.8,3,6.2,4.8c1.4,1.8,2,3.3,2,4.4c0,0.6-0.2,1.1-0.7,1.5c-0.4,0.4-0.9,0.5-1.5,0.5h-1.5c-0.9,0-1.7-0.4-2.2-1.3
			c-1.3-2-2.8-3.5-4.5-4.5c-1.7-1-4.3-1.6-8-1.6c-3.9,0-6.8,0.8-8.8,2.4s-3,3.7-3,6.3c0,1.6,0.4,2.9,1.2,4c0.8,1.1,2.3,2,4.5,3
			s5.4,1.8,9.6,2.8c6.2,1.4,10.6,3.3,13.1,5.6c2.5,2.3,3.8,5.4,3.8,9.3c0,2.7-0.8,5.2-2.3,7.5c-1.5,2.3-3.8,4.1-6.8,5.4
			s-6.6,2-10.8,2C1411.9,783.5,1408.3,782.8,1405.3,781.3z"/>
	</g>
</g>
</svg>
