<?xml version="1.0" encoding="utf-8"?>
<!-- Generator: Adobe Illustrator 27.3.1, SVG Export Plug-In . SVG Version: 6.00 Build 0)  -->
<svg version="1.1" id="Layer_1" xmlns="http://www.w3.org/2000/svg" xmlns:xlink="http://www.w3.org/1999/xlink" x="0px" y="0px"
	 viewBox="0 0 2400 1700" style="enable-background:new 0 0 2400 1700;" xml:space="preserve">
<style type="text/css">
	.st0{fill:#BAA090;}
	.st1{fill:#293657;}
	.st2{fill:#364896;}
	.st3{fill:#FFFFFF;}
	.st4{fill:#151C28;}
	.st5{fill:#527BEF;}
	.st6{fill:#DBD2D2;}
	.st7{fill:#E2BC5D;}
	.st8{fill:#967B6F;}
</style>
<g>
	<g>
		<path class="st0" d="M707,1407.1c-14.4,14.3-37.6,14.3-52,0l0,0c-14.4-14.4-14.4-37.6,0-52l769.3-826.9c14.3-14.3,37.6-14.3,52,0
			l0,0c14.3,14.4,14.3,37.6,0,52L707,1407.1L707,1407.1z"/>
		<path class="st0" d="M1274.5,1360.9c13,7.7,17.3,24.5,9.6,37.5l0,0c-7.7,13-24.5,17.3-37.5,9.6L488.2,957.5
			c-13-7.7-17.3-24.5-9.6-37.5l0,0c7.7-13,24.5-17.3,37.5-9.6L1274.5,1360.9L1274.5,1360.9z"/>
		<polygon class="st0" points="1255.9,1362.3 1212.2,1365.1 1155.1,861 1198.8,858.2 		"/>
	</g>
	<g>
		<path class="st1" d="M1213.9,1076.1c135.7-112.4,214.5-294.3,231.1-495.2l185.8-26.4l226.3,26.4c-14.9,161.6-76.8,311-171.1,421.8
			c-32.8,45.3-80.5,86.1-139.5,120c-28,16.9-57.3,30-87.9,41.1c-100.8,40.1-222.3,64.7-353.1,64.7c-18.9,0-37.7-0.5-56.2-1.4
			l-70.2-41.7C1076.8,1166.7,1148.6,1128.1,1213.9,1076.1L1213.9,1076.1z"/>
		<path class="st2" d="M1447.9,528.2h412.2c-0.5,17.7-1.6,35.3-3.2,52.8h-412C1446.4,563.5,1447.4,545.9,1447.9,528.2L1447.9,528.2z
			"/>
	</g>
	<g>
		<path class="st3" d="M1562.1,757.4c-3,193.2-163.4,347.4-358.2,344.5c-194.8-3-350.4-162.1-347.4-355.3s163.4-347.4,358.2-344.4
			C1409.5,405.1,1565.1,564.2,1562.1,757.4L1562.1,757.4z"/>
		<g>
			<path class="st3" d="M1347.8,728.7c-1.9-0.3-3.7-0.8-5.6-1.5c-33.7-14.5-59.9-41.6-73.7-76.3c-13.8-34.7-13.6-72.9,0.6-107.4
				l55.2-134.6c14.2-34.6,40.6-61.4,74.5-75.6s71.1-14,104.8,0.5c11.2,4.8,16.4,18,11.7,29.5c-4.7,11.5-17.6,16.9-28.8,12
				c-22.9-9.9-48.2-10-71.2-0.3c-23,9.6-41,27.9-50.6,51.4L1309.5,561c-9.6,23.5-9.8,49.4-0.4,73s27.2,42,50.1,51.8
				c11.2,4.8,16.4,18,11.7,29.5C1367,724.6,1357.4,730,1347.8,728.7L1347.8,728.7z"/>
			<g>
				<path class="st4" d="M1390.8,682.5c-11.5,86.7-127.7,142.2-259.4,123.9C999.7,788.1,902.2,703,913.7,616.3
					s127.7-142.2,259.4-123.9C1304.9,510.7,1402.4,595.8,1390.8,682.5L1390.8,682.5z"/>
				<g>
					<path class="st5" d="M994.7,625c-0.9,6.9-7.1,11.7-13.8,10.8s-11.4-7.3-10.5-14.1c0.9-6.9,7.1-11.7,13.8-10.8
						C991,611.8,995.6,618.1,994.7,625L994.7,625z"/>
					<path class="st5" d="M1072.6,639.4c-0.9,6.9-7.1,11.7-13.8,10.8c-6.7-0.9-11.4-7.3-10.5-14.1c0.9-6.9,7.1-11.7,13.8-10.8
						C1068.8,626.2,1073.5,632.5,1072.6,639.4L1072.6,639.4z"/>
					<path class="st5" d="M1053.7,608.3c-0.9,6.9-7.1,11.7-13.8,10.8c-6.7-0.9-11.4-7.3-10.5-14.1c0.9-6.9,7.1-11.7,13.8-10.8
						C1049.9,595.1,1054.6,601.4,1053.7,608.3L1053.7,608.3z"/>
					<path class="st5" d="M1023.2,602.4c-0.9,6.9-7.1,11.7-13.8,10.8s-11.4-7.3-10.5-14.1c0.9-6.9,7.1-11.7,13.8-10.8
						C1019.4,589.2,1024.1,595.5,1023.2,602.4z"/>
				</g>
				<g>
					<path class="st5" d="M1231.8,657.9c-0.9,6.9-7.1,11.7-13.8,10.8c-6.7-0.9-11.4-7.3-10.5-14.1s7.1-11.7,13.8-10.8
						C1228,644.7,1232.7,651,1231.8,657.9z"/>
					<path class="st5" d="M1309.7,672.3c-0.9,6.9-7.1,11.7-13.8,10.8c-6.7-0.9-11.4-7.3-10.5-14.1c0.9-6.9,7.1-11.7,13.8-10.8
						C1305.9,659.1,1310.6,665.4,1309.7,672.3L1309.7,672.3z"/>
					<path class="st5" d="M1290.7,641.2c-0.9,6.9-7.1,11.7-13.8,10.8c-6.7-0.9-11.4-7.3-10.5-14.1c0.9-6.9,7.1-11.7,13.8-10.8
						C1286.9,628,1291.7,634.3,1290.7,641.2L1290.7,641.2z"/>
					<path class="st5" d="M1260.2,635.3c-0.9,6.9-7.1,11.7-13.8,10.8c-6.7-0.9-11.4-7.3-10.5-14.1c0.9-6.9,7.1-11.7,13.8-10.8
						C1256.4,622.1,1261.1,628.4,1260.2,635.3L1260.2,635.3z"/>
				</g>
			</g>
		</g>
		<path class="st6" d="M1471.3,986.4c-12.5-11.3-23-27.1-30.9-46.8c-14.6-36.7-18.3-82.8-10.4-129.7s26.5-89.2,52.3-119.1
			c19.8-22.9,42.2-36.6,64.6-39.8l3,9.4c-20.7,2.5-41.6,15.2-60.3,36.8c-24.7,28.6-42.5,69.2-50.1,114.4s-4.1,89.4,9.9,124.5
			c7.3,18.3,16.9,32.8,28.3,43.2L1471.3,986.4L1471.3,986.4z"/>
		<path class="st6" d="M1360,435.4c-0.1,0-9-5.6-32.7-11.3l2.3-9.4c25.7,6.2,35.3,12.4,35.7,12.6L1360,435.4L1360,435.4z"/>
		<path class="st7" d="M1072.8,1017.6c-5.1,0-10.3-0.5-15.5-1.4c-45.8-8.5-76.2-52.8-67.6-98.6c4.1-22.2,16.7-41.5,35.3-54.2
			c18.6-12.8,41.1-17.5,63.3-13.4c22.2,4.1,41.5,16.7,54.2,35.3c12.8,18.6,17.5,41.1,13.4,63.3
			C1148.3,989.2,1112.7,1017.6,1072.8,1017.6L1072.8,1017.6z M1072.6,858.4c-14.9,0-29.5,4.5-42.1,13.1
			c-16.4,11.3-27.5,28.3-31.2,47.9c-7.5,40.5,19.2,79.5,59.7,87.1c40.5,7.5,79.5-19.2,87.1-59.7l4.9,0.9l-4.9-0.9
			c3.7-19.6-0.6-39.5-11.8-55.9c-11.3-16.4-28.3-27.5-47.9-31.2C1081.8,858.8,1077.2,858.4,1072.6,858.4L1072.6,858.4z"/>
		<polygon class="st7" points="1114,923.5 1082.1,923.5 1095.4,872.1 1031.4,944.3 1063.4,944.3 1050,995.8 		"/>
	</g>
	<g>
		<path class="st1" d="M1243.4,1214.1c-61.5,28.4-204.2,25.9-274.7,15.8c-162.8-23.4-344.5-119.1-436.9-251.7l258.1-27.8l168.5,27.8
			C995.9,1088.8,1153.6,1208.6,1243.4,1214.1z"/>
		<path class="st2" d="M945.8,922.7c2,18.4,6.4,37,12.6,55.5H531.8c-5.3-7.6-10.2-15.2-14.9-23c-8.6-14.3,1.9-32.5,18.5-32.5H945.8
			L945.8,922.7z"/>
	</g>
	<g>
		<path class="st0" d="M1145.2,1407.1c-14.4,14.3-37.6,14.3-52,0l0,0c-14.3-14.4-14.3-37.6,0-52l769.3-826.9
			c14.3-14.3,37.6-14.3,52,0l0,0c14.4,14.4,14.4,37.6,0,52L1145.2,1407.1L1145.2,1407.1z"/>
		<path class="st0" d="M1712.7,1360.9c13,7.7,17.3,24.5,9.6,37.5l0,0c-7.7,13-24.5,17.3-37.5,9.6L926.3,957.5
			c-13-7.7-17.3-24.5-9.6-37.5l0,0c7.7-13,24.5-17.3,37.5-9.6L1712.7,1360.9z"/>
		<polygon class="st0" points="1694.1,1362.3 1650.4,1365.1 1593.3,861 1637,858.2 		"/>
	</g>

		<rect x="1331.4" y="1177.9" transform="matrix(0.6806 -0.7327 0.7327 0.6806 -431.2425 1369.9674)" class="st8" width="48.3" height="3.4"/>

		<rect x="1267" y="1141.3" transform="matrix(0.6806 -0.7327 0.7327 0.6806 -425.0106 1311.068)" class="st8" width="48.3" height="3.4"/>

		<rect x="1169.6" y="1331.1" transform="matrix(0.6805 -0.7328 0.7328 0.6805 -588.8994 1315.1602)" class="st8" width="87.9" height="3.5"/>

		<rect x="1111.5" y="1308.9" transform="matrix(0.6805 -0.7328 0.7328 0.6805 -597.5825 1250.9467)" class="st8" width="48.3" height="3.5"/>

		<rect x="1235.3" y="1320.9" transform="matrix(0.5304 -0.8478 0.8478 0.5304 -553.4223 1677.0737)" class="st8" width="3.5" height="34.3"/>

		<rect x="1595.6" y="896.2" transform="matrix(0.6753 -0.7375 0.7375 0.6753 -136.567 1485.6411)" class="st8" width="47" height="3.5"/>

		<rect x="1666.8" y="1312.8" transform="matrix(0.5134 -0.8582 0.8582 0.5134 -333.7105 2081.4753)" class="st8" width="3.4" height="44.3"/>
	<path class="st2" d="M1219.4,1212.1c-67.4-12.9-115.6-57.2-116.1-57.7l2.4-2.5c0.5,0.4,47.9,44.1,114.4,56.8L1219.4,1212.1
		L1219.4,1212.1z"/>
	<path class="st8" d="M1324.4,1174.2c-9,0-16.4-7.4-16.4-16.4s7.4-16.4,16.4-16.4s16.4,7.4,16.4,16.4S1333.5,1174.2,1324.4,1174.2z
		 M1324.4,1144.8c-7.1,0-12.9,5.8-12.9,12.9s5.8,12.9,12.9,12.9s12.9-5.8,12.9-12.9S1331.6,1144.8,1324.4,1144.8z"/>
	<path class="st8" d="M1888.7,570.9c-9,0-16.4-7.4-16.4-16.4s7.4-16.4,16.4-16.4s16.4,7.4,16.4,16.4S1897.8,570.9,1888.7,570.9z
		 M1888.7,541.6c-7.1,0-12.9,5.8-12.9,13s5.8,13,12.9,13s12.9-5.8,12.9-13S1895.9,541.6,1888.7,541.6z"/>
</g>
</svg>
