<?xml version="1.0" encoding="utf-8"?>
<!-- Generator: Adobe Illustrator 26.3.1, SVG Export Plug-In . SVG Version: 6.00 Build 0)  -->
<svg version="1.1" id="Layer_1" xmlns="http://www.w3.org/2000/svg" xmlns:xlink="http://www.w3.org/1999/xlink" x="0px" y="0px"
	 viewBox="0 0 1457.6 1138.4" style="enable-background:new 0 0 1457.6 1138.4;" xml:space="preserve">
<style type="text/css">
	.st0{fill:#A7A1F1;}
	.st1{fill:#817FC6;}
	.st2{fill:#658182;}
	.st3{fill:#262E3A;}
	.st4{fill:#FCF5F5;}
	.st5{fill:#FFFFFF;}
	.st6{fill:#EFE6E6;}
	.st7{fill:#1F2835;}
	.st8{fill:#BA9E8C;}
	.st9{fill:#151C28;}
	.st10{fill:#527BEF;}
	.st11{fill:#DBD2D2;}
</style>
<g>
	<g>
		<g>
			<path class="st0" d="M967.4,1026.5l-3.2-31.9l45.7,0.9c30.8-9.3,75.6-14.7,125.4-13.7c49.8,1,94.3,8.2,124.7,18.8l38,0.8
				l2.9,28.8c0.2,1,0.3,2,0.3,3.1c-0.5,26.6-75.7,46.5-167.9,44.7S966.9,1053.1,967.4,1026.5L967.4,1026.5z"/>

				<ellipse transform="matrix(2.041890e-02 -0.9998 0.9998 2.041890e-02 110.1315 2108.4792)" class="st0" cx="1131.1" cy="998" rx="48.1" ry="166.9"/>
			<path class="st1" d="M1195.1,1046.5c40-4,73-12.6,90.9-24.2l-3.1-4.7c-26.1,17-86.1,27.1-152.8,25.8
				c-61.9-1.3-117.9-12.2-146.1-28.5l-2.8,4.9c29,16.7,86,27.9,148.8,29.2C1152.8,1049.4,1174.8,1048.5,1195.1,1046.5L1195.1,1046.5
				z"/>
		</g>
		<g>
			<path class="st2" d="M770.2,153.2h116.9c57.7,0,105.1,43.8,110.8,99.9c-48.2,7.2-106.5,11.5-169.3,11.5s-121.1-4.2-169.3-11.5
				C665.2,197,712.6,153.2,770.2,153.2L770.2,153.2z"/>
			<path class="st3" d="M822.3,43h12.7V6.4c0-3.5-2.8-6.4-6.4-6.4l0,0c-3.5,0-6.4,2.9-6.4,6.4V43z"/>
			<rect x="1191.5" y="198.7" class="st3" width="14.5" height="795.9"/>
			<polygon class="st3" points="1412.2,305.2 1418.2,293.2 892.5,54.5 851.7,54.5 851.7,67.9 889.3,67.9 			"/>
			<g>
				<path class="st2" d="M863.6,84.5V93c0,27.6,16.7,51.3,40.5,61.5l-75.4,48.8l-75.4-48.8c23.8-10.3,40.5-34,40.5-61.5v-8.5H863.6
					L863.6,84.5z"/>
				<rect x="793.8" y="25.6" class="st3" width="69.8" height="59"/>
			</g>
		</g>
		<path class="st3" d="M1456.2,318L1456.2,318c3.6-7.9,0.1-17.2-7.8-20.8l-131.8-59.8l-13,28.6l131.8,59.8
			C1443.3,329.5,1452.6,326,1456.2,318z"/>
	</g>
	<g>
		<g>
			<path class="st4" d="M572,920.1c0,0,47.3-58.2,156.4-49.1c73.7,6.2,168.7,45.7,249.2,63.7l100,107.7H571.1L572,920.1L572,920.1z"
				/>
			<path class="st5" d="M573.8,920.1c0,0-47.3-58.2-156.4-49.1c-73.7,6.2-168.7,45.7-249.2,63.7l-100,107.7h506.6L573.8,920.1
				L573.8,920.1z"/>
			<path class="st5" d="M572,1023.8c0,0,71.4-61.2,198.3-72.4c126.8-11.2,307.4,21.8,307.4,21.8l-114-117.9
				C678.1,771.7,572,920.1,572,920.1V1023.8z"/>
			<path class="st6" d="M572,1023.8c0,0,47.3-58.2,156.4-49.1c109.1,9.1,216.4,69.5,349.2,67.7l45.5,72.4l-520.2-24.7l-30.9-20.8
				L572,1023.8L572,1023.8z"/>
			<path class="st6" d="M573.8,1023.8c0,0-47.3-58.2-156.4-49.1c-109.1,9.1-216.5,69.5-349.2,67.7l-45.5,72.4l520.2-24.7l30.9-20.8
				L573.8,1023.8L573.8,1023.8z"/>
			<path class="st7" d="M499.8,1092.3c0,0,32,22.4,70.3,22.4s74.2-23.6,74.2-23.6c-1.8-3.4-3.1-7.2-6-9.3
				c-21.3-15.6-113.5-15.6-131.4-0.5C504.3,1084.6,501.9,1088.3,499.8,1092.3L499.8,1092.3z"/>
			<path class="st8" d="M7.6,1115.7l495.8-33.8l3.9-0.3l2.7,2.9c12.5,13.5,36.6,21.9,63,22.1c26.4-0.2,50.5-8.6,63-22.1l2.7-2.9
				l499.7,34c4.5,0.3,7.9,4.2,7.6,8.7c-0.3,4.3-3.9,7.6-8.2,7.6c-0.2,0-0.4,0-0.6,0l-492.1-33.5c-15.8,14.9-41.6,23.9-70.3,24.4
				c-0.3,0-0.6,0.1-0.9,0.1c-0.4,0-0.8,0-1.2,0c-0.2,0-0.4,0-0.6,0c-0.2,0-0.3,0-0.4,0c-28.5-0.5-55-9.7-70.8-24.4L8.7,1132
				c-0.2,0-0.4,0-0.6,0c-4.3,0-7.9-3.3-8.1-7.6C-0.3,1119.9,3.1,1116,7.6,1115.7L7.6,1115.7z"/>
		</g>
		<g>
			<path class="st7" d="M772.9,1138.4c-27.6-46.4-33.9-113-34.1-115.8l36.6,4.8c0.1,0.6,4.9,53.4,28.3,92.7l-18.8,0.7L772.9,1138.4z
				"/>
			<g>
				<path class="st5" d="M778.1,1107.9l-13.4-12.9l2.5-18.4l13.4,12.9L778.1,1107.9L778.1,1107.9z M766.2,1094.5l10.8,10.4l2-14.8
					l-10.8-10.4L766.2,1094.5z"/>
				<path class="st5" d="M763.3,1068.9c-3-12.8-5.5-25.9-7.4-38.9l1.5-0.2c1.9,13,4.4,26,7.4,38.8L763.3,1068.9L763.3,1068.9z"/>
			</g>
		</g>
	</g>
	<g>
		<path class="st5" d="M309.7,531.7C293,642.2,369.9,745.3,481.3,762.1c111.4,16.8,215.2-59.2,231.8-169.7
			c16.6-110.5-60.2-213.6-171.6-230.4C430.1,345.3,326.3,421.2,309.7,531.7L309.7,531.7z"/>
		<g>
			<path class="st5" d="M434.6,535.7c1.1,0,2.2-0.1,3.3-0.4c20.6-5.1,38.1-18,49.3-36.5c11.2-18.5,14.7-40.3,9.9-61.3l-18.7-82
				c-4.8-21.1-17.3-38.9-35.3-50.2c-18-11.3-39.2-14.7-59.8-9.7c-6.8,1.7-11.1,8.7-9.5,15.7c1.6,7,8.4,11.3,15.3,9.6
				c14-3.5,28.4-1.1,40.6,6.6s20.7,19.8,24,34.1l18.7,82c3.3,14.3,0.9,29.1-6.7,41.7c-7.6,12.5-19.5,21.3-33.5,24.8
				c-6.8,1.7-11.1,8.7-9.5,15.7C424,531.5,429,535.5,434.6,535.7L434.6,535.7z"/>
			<g>
				<path class="st9" d="M414.4,505.3c-1.7,50.5,59.3,93.2,136.2,95.3c76.9,2.1,140.5-37.2,142.2-87.8s-59.3-93.2-136.2-95.3
					C479.7,415.4,416.1,454.7,414.4,505.3L414.4,505.3z"/>
				<g>
					<path class="st10" d="M482.5,518.1c-0.1-4-3.3-7.2-7.2-7.1c-3.9,0.1-7,3.4-7,7.4s3.3,7.2,7.2,7.1
						C479.5,525.5,482.6,522.1,482.5,518.1L482.5,518.1z"/>
					<path class="st10" d="M528.2,515.1c-0.1-4-3.3-7.2-7.2-7.1c-3.9,0.1-7,3.4-7,7.4c0.1,4,3.3,7.2,7.2,7.1
						C525.2,522.4,528.3,519.1,528.2,515.1L528.2,515.1z"/>
					<path class="st10" d="M515.3,531.6c-0.1-4-3.3-7.2-7.2-7.1c-3.9,0.1-7,3.4-7,7.4s3.3,7.2,7.2,7.1
						C512.2,539,515.3,535.7,515.3,531.6z"/>
					<path class="st10" d="M497.3,533c-0.1-4-3.3-7.2-7.2-7.1c-3.9,0.1-7,3.4-7,7.4s3.3,7.2,7.2,7.1
						C494.3,540.3,497.4,537,497.3,533z"/>
				</g>
				<g>
					<path class="st10" d="M620.8,515c-0.1-4-3.3-7.2-7.2-7.1c-3.9,0.1-7,3.4-7,7.4c0.1,4,3.3,7.2,7.2,7.1
						C617.8,522.3,620.9,519,620.8,515L620.8,515z"/>
					<path class="st10" d="M666.5,511.9c-0.1-4-3.3-7.2-7.2-7.1c-3.9,0.1-7,3.4-7,7.4c0.1,4,3.3,7.2,7.2,7.1
						C663.5,519.2,666.6,515.9,666.5,511.9L666.5,511.9z"/>
					<path class="st10" d="M653.6,528.5c-0.1-4-3.3-7.2-7.2-7.1c-3.9,0.1-7,3.4-7,7.4c0.1,4,3.3,7.2,7.2,7.1
						C650.5,535.8,653.6,532.5,653.6,528.5z"/>
					<path class="st10" d="M635.7,529.9c-0.1-4-3.3-7.2-7.2-7.1c-3.9,0.1-7,3.4-7,7.4c0.1,4,3.3,7.2,7.2,7.1
						C632.6,537.2,635.7,533.9,635.7,529.9z"/>
				</g>
			</g>
		</g>
		<path class="st11" d="M339.7,670.9c8.2-5.3,15.7-13.3,22-23.8c11.8-19.5,18.3-45.5,18.3-73s-6.6-53.4-18.5-72.9
			c-9.1-15-20.6-24.8-33.1-28.9l-2.6,5.1c11.6,3.4,22.3,12.6,30.9,26.7c11.4,18.6,17.7,43.5,17.7,70c0,26.5-6.2,51.4-17.5,70
			c-5.9,9.7-12.8,17.1-20.2,21.9L339.7,670.9L339.7,670.9z"/>
		<path class="st11" d="M455.4,367.3c0,0,5.6-2.3,19.7-3.4l-0.4-5.6c-15.2,1.1-21.3,3.7-21.5,3.8L455.4,367.3L455.4,367.3z"/>
	</g>
</g>
</svg>
