<?xml version="1.0" encoding="utf-8"?>
<!-- Generator: Adobe Illustrator 26.3.1, SVG Export Plug-In . SVG Version: 6.00 Build 0)  -->
<svg version="1.1" id="Layer_1" xmlns="http://www.w3.org/2000/svg" xmlns:xlink="http://www.w3.org/1999/xlink" x="0px" y="0px"
	 viewBox="0 0 1932 1355.9" style="enable-background:new 0 0 1932 1355.9;" xml:space="preserve">
<style type="text/css">
	.st0{opacity:0.31;fill:#293657;enable-background:new    ;}
	.st1{fill:#EBECED;}
	.st2{fill:#D9DADB;}
	.st3{fill:#FFFFFF;}
	.st4{fill:#2A3756;}
	.st5{fill:#527BEF;}
	.st6{opacity:0.7;fill:#4189A8;enable-background:new    ;}
	.st7{fill:#151C28;}
	.st8{opacity:0.7;fill:#2B5C70;enable-background:new    ;}
	.st9{opacity:0.5;fill:#2B5C70;enable-background:new    ;}
	.st10{fill:#FBF84A;}
	.st11{opacity:0.5;}
	.st12{fill:#2B5C70;}
	.st13{fill:#4E5EAF;}
</style>
<g>
	<path class="st0" d="M1932,1298.7c0,31.6-562.5,57.2-1096,57.2S0,1330.3,0,1298.7s302.5-57.2,836-57.2S1932,1267,1932,1298.7z"/>
	<g>
		<path class="st1" d="M1308.5,513.4c22.4,44,105.3,245.1,68.5,263.9c-36.8,18.8-151.1-166.2-173.6-210.2
			c-22.4-44-17.1-91.6,11.9-106.4C1244.3,445.9,1286.1,469.5,1308.5,513.4L1308.5,513.4z"/>
		<polygon class="st2" points="557.9,456.3 670.6,617.4 647,419.6 566.7,360.1 		"/>
		<g>
			<path class="st3" d="M1310.7,465.9c0,189.4-154.8,342.9-345.8,342.9S619,655.3,619,465.9S773.8,123,964.8,123
				S1310.7,276.5,1310.7,465.9z"/>
			<g>
				<path class="st3" d="M992.6,399.4c-1.8-0.2-3.7-0.7-5.5-1.4c-33.2-13.7-59.3-39.9-73.4-73.7s-14.4-71.2-1.1-105.3l52.1-132.7
					c13.4-34.1,38.9-60.8,71.9-75.2s69.5-14.8,102.7-1.1c11,4.5,16.4,17.4,11.9,28.7c-4.4,11.3-17,16.8-28,12.2
					c-22.6-9.3-47.4-9.1-69.8,0.8c-22.4,9.8-39.7,27.9-48.8,51.1l-52.1,132.7c-9.1,23.2-8.8,48.5,0.7,71.5
					c9.6,22.9,27.2,40.7,49.8,50c11,4.5,16.4,17.4,11.9,28.7C1011.4,395.2,1002,400.6,992.6,399.4L992.6,399.4z"/>
				<g>
					<path class="st4" d="M1203.8,360.4c-0.7,85.7-107,153.7-237.3,151.9c-130.3-1.8-235.4-72.8-234.7-158.6
						c0.7-85.7,107-153.7,237.3-151.9C1099.5,203.7,1204.6,274.7,1203.8,360.4L1203.8,360.4z"/>
					<g>
						<path class="st5" d="M822.4,352.3c-0.1,6.8-5.5,12.2-12.1,12.1c-6.6-0.1-12-5.7-11.9-12.5s5.5-12.2,12.1-12.1
							C817.2,339.9,822.5,345.5,822.4,352.3z"/>
						<path class="st5" d="M899.9,356.9c-0.1,6.8-5.5,12.2-12.1,12.1c-6.6-0.1-12-5.7-11.9-12.5s5.5-12.2,12.1-12.2
							C894.7,344.5,900,350.1,899.9,356.9L899.9,356.9z"/>
						<path class="st5" d="M877.8,328.9c-0.1,6.8-5.5,12.2-12.1,12.1c-6.6-0.1-12-5.7-11.9-12.5s5.5-12.2,12.1-12.1
							C872.5,316.6,877.8,322.1,877.8,328.9L877.8,328.9z"/>
						<path class="st5" d="M847.4,326.9c-0.1,6.8-5.5,12.2-12.1,12.1c-6.7-0.1-12-5.7-11.9-12.5s5.5-12.2,12.1-12.1
							C842.1,314.5,847.4,320.1,847.4,326.9z"/>
					</g>
					<g>
						<path class="st5" d="M1056.9,355.7c-0.1,6.8-5.5,12.2-12.1,12.1c-6.6-0.1-12-5.7-11.9-12.5s5.5-12.2,12.1-12.1
							C1051.7,343.3,1057,348.8,1056.9,355.7L1056.9,355.7z"/>
						<path class="st5" d="M1134.4,360.2c-0.1,6.8-5.5,12.2-12.1,12.1s-12-5.7-11.9-12.5s5.5-12.2,12.1-12.1
							C1129.2,347.8,1134.5,353.4,1134.4,360.2z"/>
						<path class="st5" d="M1112.3,332.3c-0.1,6.8-5.5,12.2-12.1,12.1c-6.6-0.1-12-5.7-11.9-12.5s5.5-12.2,12.1-12.1
							C1107,319.9,1112.3,325.5,1112.3,332.3L1112.3,332.3z"/>
						<path class="st5" d="M1081.9,330.2c-0.1,6.8-5.5,12.2-12.1,12.1c-6.6-0.1-12-5.7-11.9-12.5s5.5-12.2,12.1-12.1
							C1076.6,317.9,1081.9,323.4,1081.9,330.2L1081.9,330.2z"/>
					</g>
				</g>
			</g>
		</g>
		<g>
			<path class="st6" d="M564,370.1l205,202c11.2,6.2,26.5,10.7,32.9,16.9l25.9,25.6c3.3,3.3,8.6,3.2,11.9-0.1s3.2-8.6-0.1-11.9l-1-1
				l-24.8-24.7c-6.4-6.3-11.1-21.5-17.4-32.6l-205-201.9L564,370.1L564,370.1z"/>
			<path class="st4" d="M594.1,338.7c9.4,9.3-24.2,43.5-33.7,34.2L407.9,222.6c-9.4-9.3-9.5-24.5-0.2-33.9l0,0
				c9.3-9.4,24.5-9.5,33.9-0.2L594.1,338.7z"/>
			<path class="st7" d="M603.2,332.1c5.3,5.2,5.4,13.8,0.1,19.1l-30.2,30.7c-5.2,5.3-13.8,5.4-19.1,0.1l0,0
				c-5.3-5.2-5.4-13.8-0.1-19.1l30.2-30.7C589.3,326.9,597.9,326.9,603.2,332.1L603.2,332.1z"/>
		</g>
		<path class="st1" d="M602.4,406.3c13.2,44.2,3.9,86-20.7,93.4c-24.6,7.3-55.2-22.6-68.4-66.8s-3.9-86,20.7-93.4
			S589.3,362.1,602.4,406.3z"/>
	</g>
	<g>
		<path class="st8" d="M345.7,937.2c0,6.1-5,11.1-11.1,11.1h-81.4c-6.1,0-11.1-5-11.1-11.1l0,0c0-6.1,5-11.1,11.1-11.1h81.4
			C340.7,926.1,345.7,931,345.7,937.2L345.7,937.2z"/>
		<path class="st9" d="M424.9,1233.8l-85.1-122.9c-4.2-6-8.8-11-13.7-15.1V948.2h-64.6v147.6c-4.9,4-9.5,9-13.7,15.1l-85.1,122.9
			c-25.3,36.5-9.6,66.4,34.8,66.4H390C434.5,1300.2,450.2,1270.4,424.9,1233.8L424.9,1233.8z"/>
	</g>
	<g>
		<g>
			<path class="st8" d="M547.8,811.9c0,8.2-6.7,14.9-14.9,14.9H423.3c-8.2,0-14.9-6.7-14.9-14.9l0,0c0-8.2,6.7-14.9,14.9-14.9h109.5
				C541.1,796.9,547.8,803.6,547.8,811.9L547.8,811.9z"/>
			<path class="st9" d="M654.3,1210.9l-114.5-165.4c-5.6-8.1-11.8-14.8-18.4-20.2V826.8h-86.9v198.5c-6.6,5.4-12.8,12.2-18.4,20.2
				l-114.4,165.4c-34,49.1-13,89.3,46.8,89.3h259C667.3,1300.2,688.4,1260,654.3,1210.9L654.3,1210.9z"/>
		</g>
		<path class="st10" d="M364.4,1284.1h227.3c52.4,0,70.9-35.3,41.1-78.4l-66-95.3H389.4l-66,95.3
			C293.5,1248.8,312,1284.1,364.4,1284.1L364.4,1284.1z"/>
	</g>
	<g>
		<g>
			<g>
				<g>
					<path class="st8" d="M913,715.8c0,7.5-6.1,13.6-13.6,13.6h-86.9c-7.5,0-13.6-6.1-13.6-13.6l0,0c0-7.5,6.1-13.6,13.6-13.6h86.9
						C906.9,702.2,913,708.3,913,715.8L913,715.8z"/>
					<g class="st11">
						<path class="st12" d="M817.6,1203.4c0,21,17,38,38,38s38-17,38-38v-474h-76.1L817.6,1203.4L817.6,1203.4z"/>
					</g>
				</g>
				<g>
					<path class="st8" d="M1061.7,715.8c0,7.5-6.1,13.6-13.6,13.6h-86.9c-7.5,0-13.6-6.1-13.6-13.6l0,0c0-7.5,6.1-13.6,13.6-13.6
						h86.9C1055.6,702.2,1061.7,708.3,1061.7,715.8L1061.7,715.8z"/>
					<g class="st11">
						<path class="st12" d="M966.2,1203.4c0,21,17,38,38,38s38-17,38-38v-474h-76.1L966.2,1203.4L966.2,1203.4z"/>
					</g>
				</g>
				<g>
					<path class="st8" d="M1210.3,715.8c0,7.5-6.1,13.6-13.6,13.6h-86.9c-7.5,0-13.6-6.1-13.6-13.6l0,0c0-7.5,6.1-13.6,13.6-13.6
						h86.9C1204.2,702.2,1210.3,708.3,1210.3,715.8L1210.3,715.8z"/>
					<g class="st11">
						<path class="st12" d="M1114.8,1203.4c0,21,17,38,38,38s38-17,38-38v-474h-76.1L1114.8,1203.4L1114.8,1203.4z"/>
					</g>
				</g>
				<g>
					<path class="st8" d="M1358.9,715.8c0,7.5-6.1,13.6-13.6,13.6h-86.9c-7.5,0-13.6-6.1-13.6-13.6l0,0c0-7.5,6.1-13.6,13.6-13.6
						h86.9C1352.8,702.2,1358.9,708.3,1358.9,715.8L1358.9,715.8z"/>
					<g class="st11">
						<path class="st12" d="M1263.5,1203.4c0,21,17,38,38,38s38-17,38-38v-474h-76.1L1263.5,1203.4L1263.5,1203.4z"/>
					</g>
				</g>
			</g>
			<path class="st4" d="M855.6,1233.5c17,0,30.7-13.8,30.7-30.7V947.2h-61.5v255.6C824.9,1219.7,838.6,1233.5,855.6,1233.5z"/>
			<path class="st3" d="M1389.3,982.5h-636v317.8h650.5V982.5L1389.3,982.5L1389.3,982.5z M789.5,1265.8v-249h578.1v249H789.5z"/>
		</g>
		<path class="st10" d="M1004.1,1233.5c17,0,30.7-13.8,30.7-30.7v-127.7h-61.5v127.7C973.3,1219.7,987.1,1233.5,1004.1,1233.5z"/>
		<path class="st10" d="M1301.1,1233.5c17,0,30.7-13.8,30.7-30.7v-54.6h-61.5v54.6C1270.3,1219.7,1284.1,1233.5,1301.1,1233.5z"/>
	</g>
	<g>
		<g>
			<g>
				<path class="st8" d="M1686.3,780.2c0,8.2-6.7,14.9-14.9,14.9h-109.5c-8.2,0-14.9-6.7-14.9-14.9l0,0c0-8.2,6.7-14.9,14.9-14.9
					h109.5C1679.6,765.2,1686.3,771.9,1686.3,780.2L1686.3,780.2z"/>
				<path class="st9" d="M1660,1033V890.2l83.4,83.5l20.5-20.5L1660,849.3v-54.2h-86.9V1033c-54.4,18.2-93.7,69.5-93.7,130.1
					c0,75.8,61.4,137.2,137.2,137.2s137.2-61.4,137.2-137.2C1753.7,1102.5,1714.5,1051.2,1660,1033L1660,1033z"/>
			</g>
			<path class="st12" d="M1616.6,1280c64.9,0,117.4-52.6,117.4-117.4c0-10-1.2-19.6-3.6-28.9h-227.7c-2.3,9.2-3.6,18.9-3.6,28.9
				C1499.1,1227.4,1551.7,1280,1616.6,1280L1616.6,1280z"/>
		</g>
		<g>
			<path class="st13" d="M1591.5,1171.8c0,4.9-4,8.9-8.9,8.9s-8.9-4-8.9-8.9s4-8.9,8.9-8.9S1591.5,1166.9,1591.5,1171.8z"/>
			<path class="st13" d="M1632.9,1160c0,6.5-5.3,11.8-11.8,11.8s-11.8-5.3-11.8-11.8s5.3-11.8,11.8-11.8S1632.9,1153.4,1632.9,1160z
				"/>
			<path class="st13" d="M1615.9,1192.7c0,5.6-4.6,10.2-10.2,10.2s-10.2-4.6-10.2-10.2s4.6-10.2,10.2-10.2
				S1615.9,1187.1,1615.9,1192.7z"/>
			<path class="st13" d="M1686.3,1213c0,5.6-4.6,10.2-10.2,10.2s-10.2-4.6-10.2-10.2s4.6-10.2,10.2-10.2S1686.3,1207.4,1686.3,1213z
				"/>
		</g>
	</g>
</g>
</svg>
