<svg width="1344" height="629" viewBox="0 0 1344 629" fill="none" xmlns="http://www.w3.org/2000/svg">
<g clip-path="url(#clip0_432_2)">
<g clip-path="url(#clip1_432_2)">
<path d="M1206.45 131.882L1193.16 129.213L1119.81 114.395L1121.73 196.677C1122.61 233.032 1147.26 263.773 1181.1 270.768L1181.36 269.111L1181.19 270.86C1215.11 277.579 1248.86 258.619 1262.41 225.209L1293.19 149.553L1206.45 131.882Z" fill="#B29C6B"/>
<path d="M1125.67 151.394C1125.67 151.394 1115.96 146.148 1108.62 147.896C1101.19 149.645 1096.38 166.488 1102.24 182.779C1108.09 199.07 1120.07 221.067 1130.91 219.963C1141.76 218.858 1146.21 231.007 1146.21 231.007L1137.21 248.679C1135.9 251.256 1133.54 253.004 1130.91 253.465L1128.64 253.833C1128.64 253.833 1133.45 272.793 1124.71 275.462C1115.96 278.039 1126.54 270.216 1117.62 236.714C1108.18 201.371 1062.37 162.438 1061.93 130.593C1061.58 104.914 1083 95.0662 1097.6 103.35C1116.31 113.934 1108.36 138.416 1108.36 138.416L1124.62 143.294L1125.67 151.394Z" fill="#B29C6B"/>
<path d="M1087.72 169.341C1078.02 155.444 1071.02 142.466 1070.85 130.317C1070.59 113.382 1084.84 106.847 1094.46 112.37C1106.87 119.364 1100.31 135.931 1097.52 141.27C1086.15 162.991 1092.71 177.073 1087.72 169.341Z" fill="#DBD2D2"/>
<path d="M1274.74 181.49C1274.74 181.49 1285.58 180.386 1291.79 184.988C1297.99 189.59 1296.59 207.077 1285.4 219.87C1274.21 232.664 1255.42 248.494 1245.71 243.248C1236.01 238.002 1227.61 247.574 1227.61 247.574L1229.71 267.454C1229.97 270.308 1231.55 272.885 1233.91 274.357L1235.92 275.646C1235.92 275.646 1224.73 291.384 1231.98 297.275C1239.15 303.073 1232.16 291.753 1252.18 264.049C1273.34 234.873 1329.64 216.649 1341.27 187.197C1350.63 163.543 1334.19 145.964 1317.67 147.988C1296.51 150.565 1295.37 176.428 1295.37 176.428L1278.58 174.587L1274.74 181.49Z" fill="#B29C6B"/>
<path d="M1303.68 212.967C1317.58 203.856 1328.59 194.468 1333.05 183.331C1339.26 167.684 1328.33 156.088 1317.49 157.376C1303.5 159.033 1303.76 176.98 1304.46 183.055C1307.35 207.721 1296.33 218.214 1303.68 212.967Z" fill="#DBD2D2"/>
<path d="M1260.98 57.7847C1265.19 34.671 1250.97 12.3665 1229.2 7.96613C1207.43 3.56578 1186.37 18.7359 1182.15 41.8496C1177.94 64.9633 1192.16 87.2679 1213.93 91.6682C1235.7 96.0686 1256.76 80.8984 1260.98 57.7847Z" fill="#B29C6B"/>
<path d="M1250.1 55.6497C1253.17 38.8261 1242.86 22.6 1227.07 19.4076C1211.28 16.2151 1195.99 27.2653 1192.92 44.0889C1189.85 60.9125 1200.16 77.1387 1215.95 80.3311C1231.75 83.5236 1247.04 72.4733 1250.1 55.6497Z" fill="#8C754D"/>
<path d="M1109.28 483.95L1101.51 526.524L1165.31 539.422L1173.08 496.848L1109.28 483.95Z" fill="#212A33"/>
<path d="M1192.82 261.104L1173.76 257.238L1140.53 289.544L1212.31 303.994L1192.82 261.104Z" fill="#B29C6B"/>
<path d="M1173.06 496.907L1109.23 484.021L1139.74 454.753L1154.96 457.79L1173.06 496.907Z" fill="#212A33"/>
<path d="M1154.87 457.974L1139.74 454.937L1140.53 289.544L1212.31 303.994L1154.87 457.974Z" fill="#212A33"/>
<path d="M1079.24 518.812L1069.15 574.131L1178.71 596.281L1188.81 540.961L1079.24 518.812Z" fill="#212A33"/>
<path d="M1086.01 528.528L1078.85 567.757L1171.93 586.574L1179.09 547.344L1086.01 528.528Z" fill="#B29C6B"/>
<path d="M1191.68 217.846L1191.15 216.189C1180.31 181.49 1154.17 154.247 1121.21 143.294L1121.73 141.454C1154.78 152.406 1181.01 179.466 1192.38 213.98C1214.67 186.829 1247.98 171.918 1281.91 174.035L1281.82 175.968C1247.9 173.851 1214.59 188.946 1192.73 216.465L1191.68 217.846Z" fill="#8C754D"/>
<path d="M1214.15 90.0042C1186.26 84.9421 1168.25 108.412 1119.9 114.394L1206.54 131.882L1293.19 149.369C1250.34 124.979 1241.86 96.0787 1214.15 90.0042Z" fill="#B29C6B"/>
<path d="M1128.18 114.999L1127.83 116.897L1285.4 148.75L1285.74 146.852L1128.18 114.999Z" fill="#8C754D"/>
<path d="M1169.1 265.772L1168.75 267.67L1194 272.774L1194.34 270.876L1169.1 265.772Z" fill="#8C754D"/>
<path d="M1141.66 454.146L1141.32 456.044L1153.34 458.474L1153.69 456.576L1141.66 454.146Z" fill="#090C0F"/>
<path d="M1114.35 483.929L1114 485.827L1168.1 496.763L1168.44 494.865L1114.35 483.929Z" fill="#090C0F"/>
<path d="M1107.13 523.524L1106.78 525.422L1160.87 536.358L1161.22 534.46L1107.13 523.524Z" fill="#090C0F"/>
<path d="M1208.16 89.0461L1207.82 90.9443L1220.27 93.4613L1220.61 91.5631L1208.16 89.0461Z" fill="#8C754D"/>
<path d="M1137.47 243.248C1128.03 232.112 1125.41 221.159 1125.32 220.699L1127.07 220.239C1127.07 220.331 1129.6 231.099 1138.78 241.96L1137.47 243.248Z" fill="#8C754D"/>
<path d="M1231.63 262.3L1230.85 260.552C1243.09 254.109 1249.29 245.089 1249.38 244.997L1250.87 246.101C1250.52 246.47 1244.31 255.581 1231.63 262.3Z" fill="#8C754D"/>
<path d="M1222.02 67.8232C1222.1 68.2833 1222.37 68.8356 1222.72 69.2037C1223.07 69.6639 1223.68 69.94 1224.46 70.1241L1210.91 67.363C1211.7 67.547 1212.31 67.455 1212.84 67.1789C1213.36 66.9028 1213.71 66.5346 1213.97 66.1665C1214.32 65.7063 1214.5 65.1541 1214.67 64.4177L1219.39 38.647C1219.48 38.1868 1219.39 37.6345 1219.22 37.1743C1219.04 36.8062 1218.78 36.346 1218.34 35.9778C1217.91 35.6097 1217.21 35.3335 1216.33 35.1495L1216.51 34.3211C1217.99 34.2291 1219.39 33.8609 1220.88 33.4007C1222.1 32.9406 1223.5 32.3883 1224.9 31.56C1226.3 30.7316 1227.7 29.7192 1228.84 28.2466L1222.02 65.8903C1221.84 66.6266 1221.93 67.2709 1222.02 67.8232Z" fill="#B29C6B"/>
<path d="M1096.2 560.781C1103.2 557.744 1110.28 554.707 1117.28 551.669C1119.29 550.841 1121.3 549.921 1123.22 549.092C1123.83 548.816 1123.83 547.896 1123.13 547.712C1118.67 546.699 1114.48 548.908 1111.16 551.946C1110.28 552.682 1109.49 553.51 1108.71 554.431C1107.92 555.259 1106.87 556.271 1107.05 557.56C1107.22 558.664 1108.27 559.401 1109.23 559.769C1110.37 560.229 1111.5 560.413 1112.73 560.321C1115.53 560.229 1118.24 558.94 1120.69 557.56C1121.47 557.192 1121.03 555.811 1120.25 556.179C1118.24 557.284 1117.71 560.321 1119.2 562.07C1120.95 564.187 1124.18 563.542 1125.76 561.518C1125.32 561.333 1124.97 561.241 1124.53 561.057C1124.71 562.622 1125.67 563.818 1127.07 564.463C1128.55 565.107 1129.95 564.831 1131.26 563.818C1131.96 563.266 1132.58 562.806 1133.36 563.542C1134.06 564.095 1134.5 564.831 1135.29 565.291C1136.6 566.119 1138.17 566.396 1139.74 566.212C1141.49 566.027 1143.15 565.107 1144.29 563.726C1143.94 563.726 1143.68 563.726 1143.33 563.818C1147.09 567.96 1152.33 570.445 1157.76 570.721C1158.63 570.721 1158.54 569.341 1157.67 569.249C1152.6 568.973 1147.7 566.58 1144.2 562.714C1143.94 562.438 1143.42 562.53 1143.24 562.806C1141.58 565.015 1138.35 565.475 1136.07 564.095C1134.76 563.358 1133.97 561.425 1132.31 561.794C1130.91 561.978 1130.13 563.542 1128.73 563.45C1127.42 563.45 1126.19 562.438 1126.02 561.057C1125.93 560.505 1125.23 560.137 1124.79 560.597C1123.83 561.886 1121.65 562.53 1120.42 561.241C1119.55 560.321 1119.55 558.204 1120.77 557.56C1120.6 557.1 1120.51 556.639 1120.34 556.179C1118.41 557.192 1116.4 558.204 1114.22 558.664C1113.25 558.848 1112.2 558.94 1111.24 558.756C1110.46 558.572 1109.14 558.296 1108.71 557.56C1108.27 556.824 1109.67 555.627 1110.11 555.075C1110.72 554.339 1111.42 553.694 1112.12 553.05C1113.6 551.761 1115.18 550.565 1116.93 549.829C1118.85 549 1120.95 548.724 1122.96 549.184C1122.96 548.724 1122.87 548.264 1122.87 547.804C1115.88 550.841 1108.79 553.878 1101.8 556.916L1095.85 559.493C1094.89 559.769 1095.33 561.057 1096.2 560.781Z" fill="#8C754D"/>
<path d="M207.298 382.963C209.484 381.951 211.669 380.938 213.855 379.926C213.943 379.834 214.118 379.834 214.205 379.742C214.03 379.834 213.943 379.834 213.768 379.926C213.68 379.926 217.09 378.453 215.342 379.19C214.992 379.374 214.555 379.558 214.205 379.742C215.429 379.19 216.653 378.637 217.877 378.177C222.336 376.244 226.795 374.496 231.254 372.655C249.527 365.476 268.15 359.493 287.035 354.431C306.007 349.369 325.242 345.411 344.564 342.282C346.925 341.914 349.285 341.546 351.733 341.178C352.608 341.086 353.394 340.901 354.269 340.809C353.919 340.809 353.569 340.901 353.22 340.994C353.132 340.994 356.979 340.441 354.968 340.717C354.706 340.717 354.444 340.809 354.181 340.809C354.531 340.717 354.968 340.717 355.318 340.625C360.301 339.981 365.285 339.337 370.181 338.785C379.973 337.68 389.766 336.76 399.558 336.023C440.038 333.078 480.781 333.446 521.261 335.839C564.714 338.416 608.08 343.202 651.27 348.633C694.548 354.063 737.739 360.138 781.017 365.108C786.351 365.752 791.684 366.304 796.93 366.948C801.039 367.409 806.197 364.647 808.995 361.702C811.968 358.573 814.153 353.419 813.979 349.001C813.541 338.416 806.46 332.066 796.842 330.961C753.127 326.175 709.499 320.101 665.784 314.578C622.331 309.056 578.878 303.902 535.25 300.773C494.07 297.919 452.803 296.907 411.623 299.208C370.968 301.509 330.313 306.847 290.532 316.419C267.8 321.849 245.418 328.752 223.56 337.22L204.063 384.344C205.374 383.976 206.336 383.423 207.298 382.963Z" fill="#C94141"/>
<path d="M655.292 353.511C658.877 446.93 734.417 519.641 823.946 515.867C913.475 512.001 983.157 433.216 979.572 339.705C975.987 246.286 900.447 173.576 810.919 177.441C721.302 181.215 651.708 260.092 655.292 353.511Z" fill="white"/>
<path d="M753.477 337.036C754.351 336.852 755.138 336.576 756.012 336.208C771.312 328.753 783.028 315.315 789.061 298.38C795.006 281.445 794.481 262.945 787.574 246.378L760.646 181.951C753.739 165.384 741.236 152.683 725.499 146.24C709.761 139.797 692.625 140.35 677.325 147.713C672.254 150.198 669.98 156.641 672.254 162.071C674.527 167.501 680.559 169.986 685.63 167.593C696.035 162.531 707.663 162.163 718.329 166.581C728.996 170.999 737.477 179.558 742.198 190.787L769.127 255.214C773.848 266.443 774.198 278.96 770.176 290.557C766.154 302.061 758.198 311.173 747.794 316.235C742.723 318.72 740.449 325.163 742.723 330.685C744.559 335.287 749.018 337.772 753.477 337.036Z" fill="white"/>
<path d="M735.553 315.223C741.848 357.009 795.881 382.503 856.208 372.011C916.535 361.61 960.337 319.181 954.042 277.395C947.747 235.61 893.715 210.115 833.388 220.607C773.149 231.008 729.258 273.438 735.553 315.223Z" fill="#151C28"/>
<path d="M922.917 279.788C923.442 283.102 926.327 285.311 929.387 284.85C932.447 284.298 934.545 281.169 934.021 277.855C933.496 274.542 930.611 272.241 927.551 272.793C924.491 273.346 922.48 276.475 922.917 279.788Z" fill="#527BEF"/>
<path d="M887.333 287.704C887.857 291.017 890.743 293.226 893.803 292.766C896.863 292.214 898.961 289.084 898.437 285.771C897.912 282.458 895.027 280.157 891.967 280.709C888.907 281.261 886.808 284.39 887.333 287.704Z" fill="#527BEF"/>
<path d="M895.639 272.425C896.163 275.739 899.048 278.039 902.108 277.487C905.168 276.935 907.267 273.806 906.742 270.492C906.218 267.179 903.332 264.97 900.272 265.43C897.212 265.982 895.114 269.112 895.639 272.425Z" fill="#527BEF"/>
<path d="M909.628 269.204C910.152 272.517 913.038 274.726 916.098 274.266C919.158 273.714 921.256 270.584 920.732 267.271C920.207 263.958 917.322 261.749 914.262 262.209C911.202 262.761 909.103 265.891 909.628 269.204Z" fill="#527BEF"/>
<path d="M814.415 298.564C814.94 301.878 817.825 304.087 820.885 303.626C823.945 303.074 826.044 299.945 825.519 296.631C824.995 293.318 822.109 291.109 819.049 291.569C815.989 292.122 813.891 295.251 814.415 298.564Z" fill="#527BEF"/>
<path d="M778.744 306.479C779.269 309.793 782.154 312.002 785.214 311.541C788.274 311.081 790.372 307.86 789.848 304.546C789.323 301.233 786.438 299.024 783.378 299.484C780.318 300.037 778.219 303.166 778.744 306.479Z" fill="#527BEF"/>
<path d="M787.05 291.201C787.574 294.514 790.46 296.815 793.52 296.263C796.58 295.711 798.678 292.582 798.153 289.268C797.629 285.955 794.744 283.746 791.684 284.206C788.711 284.758 786.613 287.888 787.05 291.201Z" fill="#527BEF"/>
<path d="M801.039 287.98C801.564 291.293 804.449 293.502 807.509 293.042C810.569 292.49 812.667 289.36 812.143 286.047C811.618 282.733 808.733 280.433 805.673 280.985C802.613 281.537 800.514 284.666 801.039 287.98Z" fill="#527BEF"/>
<path d="M699.619 463.221C705.215 457.607 709.936 449.783 713.259 440.211C719.554 422.264 720.778 399.898 716.581 377.349C712.384 354.8 703.379 334.551 691.139 320.377C681.784 309.517 671.379 303.166 660.975 301.877L659.664 306.479C669.194 307.4 678.986 313.29 687.816 323.506C699.532 337.036 708.1 356.456 712.122 378.269C716.144 400.083 715.007 421.528 708.974 438.647C705.827 447.574 701.543 454.753 696.472 459.908L699.619 463.221Z" fill="#DBD2D2"/>
<path d="M744.384 195.297C744.384 195.297 748.405 192.536 759.247 189.406L758.11 184.896C746.395 188.21 742.023 191.339 741.848 191.431L744.384 195.297Z" fill="#DBD2D2"/>
<path d="M820.011 399.991C819.836 399.991 819.749 399.991 819.574 400.083C819.486 400.083 819.574 400.083 820.011 399.991Z" fill="white"/>
<path d="M945.037 367.592C945.124 367.592 945.386 367.408 945.911 367.225C945.561 367.316 945.299 367.5 945.037 367.592Z" fill="white"/>
<path d="M593.479 403.58C521.523 398.61 449.743 390.418 377.7 386.553C309.067 382.779 240.347 383.423 172.151 393.548C120.217 401.187 68.9827 414.901 20.8085 436.346L0 486.415C8.83049 481.537 17.7484 476.935 26.8412 472.609C28.5023 471.873 30.0761 471.044 31.7373 470.308C32.699 469.848 33.6607 469.387 34.6225 469.019C33.3985 469.572 34.6225 469.019 34.9722 468.835C34.8848 468.927 34.7099 468.927 34.6225 469.019C34.7099 469.019 34.8848 468.927 34.9722 468.835C38.8192 467.179 42.6661 465.522 46.513 463.957C53.9446 460.92 61.4637 458.067 69.0701 455.398C99.5834 444.629 130.884 436.806 162.621 431.191C166.118 430.547 169.703 429.995 173.287 429.443C175.386 429.075 177.397 428.798 179.495 428.522C180.107 428.43 182.905 428.062 183.429 427.97C183.254 427.97 183.08 427.97 182.905 428.062C183.604 427.97 183.604 427.97 183.429 427.97C191.298 426.866 199.079 425.945 206.948 425.117C223.035 423.46 239.123 422.172 255.297 421.435C290.357 419.779 325.591 420.239 360.651 421.712C432.781 424.933 504.562 432.94 576.43 438.37C612.276 441.132 648.298 443.156 684.319 443.617C676.8 432.388 670.592 420.239 665.784 407.261C641.653 406.525 617.522 405.237 593.479 403.58Z" fill="#D84848"/>
<path d="M979.572 347.068C979.047 347.529 978.523 347.897 978.348 348.081C976.687 349.277 975.026 350.566 973.364 351.67C969.955 353.971 966.545 356.272 962.96 358.297C959.638 360.23 956.315 362.071 952.906 363.819C951.332 364.648 949.758 365.384 948.184 366.12C947.398 366.489 946.611 366.857 945.824 367.225C945.212 367.501 944.949 367.593 945.037 367.593C945.299 367.501 945.649 367.317 945.911 367.225C945.387 367.409 945.124 367.593 945.037 367.593C944.775 367.685 944.512 367.777 944.25 367.961C929.649 374.22 914.524 379.098 899.311 383.424C882.612 388.118 865.737 392.075 848.688 395.297C840.208 396.953 831.639 398.334 823.071 399.622C822.634 399.714 820.011 400.083 819.574 400.083C819.749 400.083 819.836 400.083 820.011 399.991C819.574 400.083 819.487 400.083 819.574 400.083C817.476 400.359 815.377 400.635 813.279 400.911C808.82 401.463 804.361 402.015 799.902 402.476C755.313 407.446 710.461 408.366 665.696 407.17C670.418 420.147 676.713 432.388 684.232 443.525C718.067 443.985 751.815 443.065 785.564 439.935C820.536 436.714 855.508 431.376 889.693 422.908C918.108 415.913 947.135 407.354 973.277 393.18C977.386 378.546 979.572 363.083 979.572 347.068Z" fill="#D84848"/>
</g>
</g>
<defs>
<clipPath id="clip0_432_2">
<rect width="1344" height="629" fill="white"/>
</clipPath>
<clipPath id="clip1_432_2">
<rect width="1344" height="1149" fill="white"/>
</clipPath>
</defs>
</svg>
