<?xml version="1.0" encoding="UTF-8"?>
<svg id="Layer_1" data-name="Layer 1" xmlns="http://www.w3.org/2000/svg" viewBox="0 0 512 462.3">
  <defs>
    <style>
      .cls-1 {
        fill: #56b7e0;
      }
    </style>
  </defs>
  <path class="cls-1" d="m499.61,356.87l-92.61-160.41-36.48-63.19-10.46,251.02c.07,2.86-.78,6.05-2.51,8.6-2.98,4.41-7.42,5.31-9.92,2.02l.02-.03-68.85-90.48-107.13,38.09v.04c-3.89,1.38-7.11-1.8-7.2-7.12-.05-3.08.97-6.22,2.6-8.57L327.1,58.07l-12.71-22.02c-25.95-44.94-90.82-44.94-116.77,0l-92.61,160.41L12.39,356.87c-25.95,44.94,6.49,101.12,58.38,101.12h370.45c51.9,0,84.33-56.18,58.38-101.12Z"/>
</svg>
