<?xml version="1.0" encoding="iso-8859-1"?>
<!-- Uploaded to: SVG Repo, www.svgrepo.com, Generator: SVG Repo Mixer Tools -->
<svg height="800px" width="800px" version="1.1" id="Layer_1" xmlns="http://www.w3.org/2000/svg" xmlns:xlink="http://www.w3.org/1999/xlink" 
	 viewBox="0 0 508 508" xml:space="preserve">
<circle style="fill:#84DBFF;" cx="254" cy="254" r="254"/>
<path style="fill:#324A5E;" d="M364,254.4v46.8c-2.8-0.4-6-0.8-8.8-0.8c-3.2,0-6,0.4-8.8,0.8v-28.8H161.6v28.8
	c-2.8-0.4-6-0.8-8.8-0.8s-6,0.4-8.8,0.8v-46.8h101.2v-47.6c2.8,0.4,6,0.8,8.8,0.8c3.2,0,6-0.4,8.8-0.8v47.6H364z"/>
<g>
	<circle style="fill:#FFFFFF;" cx="254" cy="149.6" r="58"/>
	<circle style="fill:#FFFFFF;" cx="152.8" cy="358.4" r="58"/>
	<circle style="fill:#FFFFFF;" cx="355.2" cy="358.4" r="58"/>
</g>
<circle style="fill:#FF7058;" cx="254" cy="149.6" r="31.2"/>
<circle style="fill:#FFD05B;" cx="152.8" cy="358.4" r="31.2"/>
<circle style="fill:#2C9984;" cx="355.2" cy="358.4" r="31.2"/>
</svg>