<?xml version="1.0" encoding="utf-8"?>
<!-- Generator: Adobe Illustrator 26.3.1, SVG Export Plug-In . SVG Version: 6.00 Build 0)  -->
<svg version="1.1" id="Graphic_Elements" xmlns="http://www.w3.org/2000/svg" xmlns:xlink="http://www.w3.org/1999/xlink" x="0px"
	 y="0px" viewBox="0 0 135 135" style="enable-background:new 0 0 135 135;" xml:space="preserve">
<style type="text/css">
	.st0{fill:#FFFFFF;}
</style>
<g>
	<path class="st0" d="M67.5,0C30.2,0,0,30.2,0,67.5C0,104.8,30.2,135,67.5,135c37.3,0,67.5-30.2,67.5-67.5C135,30.2,104.8,0,67.5,0z
		 M103.7,53.7c0,0.7,0,1.5,0,2.2c0,22.9-17.4,49.3-49.3,49.3c-9.8,0-18.9-2.9-26.6-7.8c1.4,0.2,2.7,0.2,4.1,0.2
		c8.1,0,15.6-2.8,21.5-7.4c-7.6-0.1-14-5.2-16.2-12c1.1,0.2,2.1,0.3,3.3,0.3c1.6,0,3.1-0.2,4.6-0.6c-7.9-1.6-13.9-8.6-13.9-17
		c0-0.1,0-0.1,0-0.2c2.3,1.3,5,2.1,7.8,2.2c-4.7-3.1-7.7-8.4-7.7-14.4c0-3.2,0.9-6.1,2.3-8.7C42.3,50.2,55,57.1,69.4,57.8
		c-0.3-1.3-0.4-2.6-0.4-4c0-9.6,7.8-17.3,17.3-17.3c5,0,9.5,2.1,12.6,5.5c3.9-0.8,7.7-2.2,11-4.2c-1.3,4-4,7.4-7.6,9.6
		c3.5-0.4,6.8-1.3,10-2.7C110,48.2,107,51.2,103.7,53.7z"/>
</g>
</svg>
