<?xml version="1.0" encoding="utf-8"?>
<!-- Generator: Adobe Illustrator 26.3.1, SVG Export Plug-In . SVG Version: 6.00 Build 0)  -->
<svg version="1.1" id="Graphic_Elements" xmlns="http://www.w3.org/2000/svg" xmlns:xlink="http://www.w3.org/1999/xlink" x="0px"
	 y="0px" viewBox="0 0 135 135" style="enable-background:new 0 0 135 135;" xml:space="preserve">
<style type="text/css">
	.st0{fill:#FFFFFF;}
</style>
<g>
	<path class="st0" d="M67.5,0C30.2,0,0,30.2,0,67.5c0,0,0,0,0,0C0,104.8,30.2,135,67.5,135c0,0,0,0,0,0c37.3,0,67.5-30.2,67.5-67.5
		S104.8,0,67.5,0z M110.9,89.7c-6.6,5-14.1,8.7-22,11.1c-1.8-2.4-3.4-5-4.7-7.6c2.6-1,5.1-2.2,7.4-3.6c-0.6-0.5-1.2-0.9-1.8-1.4
		c-14,6.6-30.1,6.6-44.1,0c-0.6,0.5-1.2,0.9-1.8,1.4c2.4,1.4,4.9,2.6,7.4,3.5c-1.4,2.7-2.9,5.2-4.7,7.7c-7.9-2.4-15.4-6.2-22-11.1
		C23,73.5,26.1,57,37.4,40.1c5.7-2.6,11.8-4.5,18-5.6c0.9,1.5,1.7,3.1,2.4,4.7c6.6-1,13.3-1,19.9,0c0.6-1.5,1.5-3.3,2.3-4.7
		c6.2,1.1,12.2,2.9,18,5.5C107.8,54.6,112.7,70.9,110.9,89.7z"/>
	<path class="st0" d="M53.2,62.2c-4.4,0-7.8,4-7.8,8.8s3.5,8.8,7.8,8.8c4.4,0,7.8-4,7.8-8.8C61.1,66.1,57.6,62.2,53.2,62.2z"/>
	<path class="st0" d="M82.1,62.2c-4.4,0-7.8,4-7.8,8.8s3.5,8.8,7.8,8.8c4.4,0,7.8-4,7.8-8.8C90,66.1,86.5,62.2,82.1,62.2z"/>
</g>
</svg>
