<?xml version="1.0" encoding="utf-8"?>
<!-- Generator: Adobe Illustrator 26.3.1, SVG Export Plug-In . SVG Version: 6.00 Build 0)  -->
<svg version="1.1" id="Graphic_Elements" xmlns="http://www.w3.org/2000/svg" xmlns:xlink="http://www.w3.org/1999/xlink" x="0px"
	 y="0px" viewBox="0 0 135 133" style="enable-background:new 0 0 135 133;" xml:space="preserve">
<style type="text/css">
	.st0{fill-rule:evenodd;clip-rule:evenodd;fill:#FFFFFF;}
</style>
<g>
	<path class="st0" d="M135,67.5C135,30.2,104.8,0,67.5,0S0,30.2,0,67.5c0,31.6,21.7,58.1,51,65.5c0-0.2,0.1-0.4,0.1-0.6
		c0-1.5-0.1-6.8-0.1-12.3c-18.4,4-22.2-7.9-22.2-7.9c-3-7.7-7.3-9.7-7.3-9.7c-6-4.1,0.4-4.1,0.4-4.1c6.7,0.4,10.2,6.8,10.2,6.8
		c5.9,10.1,15.4,7.3,19.2,5.5c0.5-4.3,2.3-7.3,4.2-8.9c-14.6-1.5-30-7.3-30-32.8c0-7.3,2.6-13.2,6.8-17.8c-0.7-1.7-3-8.5,0.7-17.6
		c0,0,5.6-1.8,18.1,6.8c5.4-1.5,10.9-2.2,16.5-2.2c5.6,0,11.3,0.8,16.5,2.2c12.6-8.6,18.1-6.8,18.1-6.8c3.6,9.1,1.3,16,0.7,17.6
		c4.3,4.6,6.8,10.6,6.8,17.8c0,25.5-15.4,31.1-30.2,32.8c2.4,2.1,4.5,6.1,4.5,12.3c0,8.9-0.1,16.1-0.1,18.3c0,0.2,0,0.4,0.1,0.7
		C113.2,125.7,135,99.2,135,67.5z"/>
</g>
</svg>
