<?xml version="1.0" encoding="utf-8"?>
<!-- Generator: Adobe Illustrator 26.3.1, SVG Export Plug-In . SVG Version: 6.00 Build 0)  -->
<svg version="1.1" id="Graphic_Elements" xmlns="http://www.w3.org/2000/svg" xmlns:xlink="http://www.w3.org/1999/xlink" x="0px"
	 y="0px" viewBox="0 0 135 135" style="enable-background:new 0 0 135 135;" xml:space="preserve">
<style type="text/css">
	.st0{fill:#FEFEFE;}
</style>
<g>
	<path class="st0" d="M67.5,0C30.2,0,0,30.2,0,67.5C0,104.8,30.2,135,67.5,135c37.3,0,67.5-30.2,67.5-67.5C135,30.2,104.8,0,67.5,0z
		 M45.2,104.4c-4.8-0.1-9.6,0-14.4,0c-0.8,0-1-0.2-1-1c0-17.1,0-34.2,0-51.3c0-0.7,0.2-1,0.9-1c4.9,0,9.7,0,14.6,0
		c0.9,0,1.1,0.4,1.1,1.2c0,8.5,0,17,0,25.6c0,8.5,0,16.9,0,25.4C46.4,104.1,46.2,104.4,45.2,104.4z M38.1,43.8
		c-5.2,0-9.6-4.3-9.6-9.5c0-5.3,4.3-9.6,9.6-9.6c5.2,0,9.6,4.3,9.6,9.5C47.7,39.4,43.4,43.8,38.1,43.8z M108.5,103.3
		c0,0.9-0.2,1.1-1.1,1.1c-4.8,0-9.6,0-14.4,0c-0.8,0-1-0.3-1-1.1c0-8.9,0-17.7,0-26.6c0-2.2-0.1-4.4-0.8-6.6c-1.1-4-4-6-8.2-5.8
		c-5.7,0.3-8.7,3.1-9.4,8.9c-0.2,1.4-0.3,2.8-0.3,4.2c0,8.6,0,17.3,0,25.9c0,0.9-0.2,1.1-1.1,1.1c-4.8,0-9.7,0-14.5,0
		c-0.8,0-1-0.2-1-1c0-17.1,0-34.2,0-51.3c0-0.8,0.3-1,1.1-1c4.6,0,9.2,0,13.8,0c0.8,0,1.1,0.3,1,1.1c0,2,0,4.1,0,6.1
		c1.1-1.2,2-2.5,3.2-3.6c3.5-3.3,7.6-5,12.5-4.9c2.7,0,5.3,0.2,7.8,1c5.9,1.7,9.3,5.7,10.9,11.5c1.2,4.3,1.4,8.7,1.5,13.1
		C108.6,84.6,108.5,94,108.5,103.3z"/>
</g>
</svg>
