<?xml version="1.0" encoding="utf-8"?>
<!-- Generator: Adobe Illustrator 26.3.1, SVG Export Plug-In . SVG Version: 6.00 Build 0)  -->
<svg version="1.1" id="Layer_1" xmlns="http://www.w3.org/2000/svg" xmlns:xlink="http://www.w3.org/1999/xlink" x="0px" y="0px"
	 viewBox="0 0 423.7 321" style="enable-background:new 0 0 423.7 321;" xml:space="preserve">
<style type="text/css">
	.st0{fill:#E1E1E1;}
	.st1{fill:#FFFFFF;}
	.st2{fill:#293657;}
	.st3{fill:#EAEBEC;}
	.st4{fill:#5078F1;}
	.st5{fill:#2A3756;}
	.st6{opacity:0.6;fill:#FFFFFF;enable-background:new    ;}
	.st7{fill:#242F47;}
</style>
<g>
	<g>
		<path class="st0" d="M337.4,160.7c0,0-32.6,24.3-61.5-11.7c-22.2-27.7-15.7,74.9-15.7,74.9s21.9,11.2,66.1-16.8
			C364.9,182.7,337.4,160.7,337.4,160.7L337.4,160.7z"/>
		<g>
			<path class="st1" d="M34.2,161.1c0,72,60.3,130.3,134.7,130.3s134.7-58.3,134.7-130.3S243.4,30.8,169,30.8S34.2,89.2,34.2,161.1z
				"/>
			<g>
				<path class="st1" d="M116.2,151.7c0.7-0.1,1.4-0.3,2.1-0.5c13-5.2,23.1-15.2,28.6-28s5.6-27.1,0.4-40L127,32.8
					c-5.2-13-15.2-23.1-28-28.6S71.9-1.4,59,3.8c-4.3,1.7-6.4,6.6-4.7,10.9c1.7,4.3,6.6,6.4,10.9,4.7c8.8-3.5,18.5-3.4,27.2,0.3
					s15.5,10.6,19,19.4l20.3,50.4c3.5,8.8,3.4,18.5-0.3,27.2s-10.6,15.5-19.4,19c-4.3,1.7-6.4,6.6-4.7,10.9
					C108.9,150,112.6,152.1,116.2,151.7L116.2,151.7z"/>
				<path class="st2" d="M86.8,142.6c3.9,32.4,47.9,53.7,98.3,47.6c50.4-6.1,88.1-37.2,84.2-69.6C265.4,88.2,221.4,66.9,171,73
					C120.6,79.1,82.9,110.2,86.8,142.6z"/>
			</g>
			<path class="st3" d="M30.9,215.7C22,233.2-10.9,313,3.7,320.5c14.6,7.5,60-66,68.9-83.5s6.8-36.4-4.7-42.3
				C56.4,188.8,39.8,198.2,30.9,215.7L30.9,215.7z"/>
		</g>
		<g>
			<path class="st4" d="M156.8,137.5c0-2.5-2-4.5-4.5-4.5s-4.5,2-4.5,4.5s2,4.5,4.5,4.5C154.7,141.9,156.7,139.9,156.8,137.5
				L156.8,137.5z"/>
			<path class="st4" d="M145.7,135.9c0-2.5-2-4.5-4.5-4.5s-4.5,2-4.5,4.5s2,4.5,4.5,4.5S145.7,138.4,145.7,135.9L145.7,135.9z"/>
			<path class="st4" d="M134.7,134.4c0-2.5-2-4.5-4.5-4.5s-4.5,2-4.5,4.5s2,4.5,4.5,4.5C132.6,138.8,134.7,136.8,134.7,134.4
				L134.7,134.4z"/>
			<path class="st4" d="M144.2,146.7c0-2.5-2-4.5-4.5-4.5s-4.5,2-4.5,4.5s2,4.5,4.5,4.5S144.2,149.2,144.2,146.7L144.2,146.7z"/>
			<path class="st4" d="M133.2,145.1c0-2.5-2-4.5-4.5-4.5s-4.5,2-4.5,4.5s2,4.5,4.5,4.5C131.1,149.6,133.1,147.6,133.2,145.1
				L133.2,145.1z"/>
			<path class="st4" d="M123.6,132.8c0-2.5-2-4.5-4.5-4.5s-4.5,2-4.5,4.5s2,4.5,4.5,4.5S123.6,135.3,123.6,132.8L123.6,132.8z"/>
		</g>
		<g>
			<path class="st4" d="M200.9,129c-0.7-2.4,0.6-4.9,3-5.6s4.9,0.6,5.6,3c0.7,2.4-0.6,4.9-3,5.6S201.6,131.4,200.9,129z"/>
			<path class="st4" d="M211.1,124.4c-0.7-2.4,0.6-4.9,3-5.6s4.9,0.6,5.6,3s-0.6,4.9-3,5.6C214.3,128.1,211.8,126.8,211.1,124.4z"/>
			<path class="st4" d="M221.3,119.8c-0.7-2.4,0.6-4.9,3-5.6s4.9,0.6,5.6,3c0.7,2.4-0.6,4.9-3,5.6S222,122.2,221.3,119.8z"/>
			<path class="st4" d="M215.6,134.4c-0.7-2.4,0.6-4.9,3-5.6s4.9,0.6,5.6,3s-0.6,4.9-3,5.6C218.8,138.1,216.3,136.7,215.6,134.4z"/>
			<path class="st4" d="M225.7,129.8c-0.7-2.4,0.6-4.9,3-5.6s4.9,0.6,5.6,3c0.7,2.4-0.6,4.9-3,5.6S226.4,132.1,225.7,129.8z"/>
			<path class="st4" d="M231.4,115.3c-0.7-2.4,0.6-4.9,3-5.6s4.9,0.6,5.6,3c0.7,2.4-0.6,4.9-3,5.6S232.2,117.6,231.4,115.3z"/>
		</g>
	</g>
	<path class="st0" d="M377.4,178.4c-2.3,9.4-13.9,15.3-20.6,13.6s-5.8-10.1-3.4-19.5c2.3-9.4,9.6-15.8,16.2-14.1
		S379.7,169,377.4,178.4L377.4,178.4z"/>
	<g id="_03_Standing">
		<g>
			<path class="st0" d="M362.6,171.4l-7.8-18.4c0,0-37.9,15.9-51.7,14.6c-1.8,1.2-2.3,36-2.3,36l60.4-37.2L362.6,171.4L362.6,171.4z
				"/>
			<g>
				<path class="st5" d="M333.7,275l27.5-122.5l16.8,1L350.4,276c-1.1,4.8-4.1,7.8-7.1,7.7l-16.8-1
					C329.6,282.8,332.6,279.8,333.7,275L333.7,275z"/>
				<path class="st6" d="M378,45.8c-16.2-7.5-34,7.2-39.7,32.7c-5.8,25.6,2.7,52.3,18.9,59.7c16.2,7.5,34-7.2,39.7-32.8
					C402.7,80,394.2,53.3,378,45.8L378,45.8z"/>
				<path class="st7" d="M330.7,75.1c-6.5,28.7,1.3,58.6,17.6,71.4L320.8,269c-1.3,5.7,0.6,11.5,4.2,13.2c3.6,1.7,7.5-1.6,8.8-7.2
					l27.5-122.5c18.4,3.1,36.9-14.7,43.4-43.4c7.2-32.2-3.4-65.9-23.8-75.3C360.3,24.4,337.9,42.9,330.7,75.1L330.7,75.1z
					 M338.3,78.6c5.7-25.5,23.5-40.2,39.7-32.7s24.7,34.2,18.9,59.7s-23.5,40.2-39.7,32.8C341.1,130.9,332.6,104.2,338.3,78.6
					L338.3,78.6z"/>
				<path class="st5" d="M388.3,32.5c3.1,0.2,6.2,1,9.3,2.4c20.4,9.4,31.1,43.1,23.8,75.3c-6.2,27.3-23.2,44.8-40.7,43.7l-16.9-1.1
					c17.5,1.1,34.6-16.3,40.7-43.7c7.2-32.2-3.4-65.9-23.8-75.3c-3.1-1.4-6.2-2.2-9.3-2.4L388.3,32.5L388.3,32.5z"/>
			</g>
			<path class="st0" d="M311.8,179.9c0,0,18.8-3.9,23.3-4.7c4.6-0.9,25.8-17.8,29.8-12.8c3.9,5-0.2,13.1-17.7,25s-22,24.9-35.2,24.5
				C298.8,211.4,311.8,179.9,311.8,179.9L311.8,179.9z"/>
		</g>
	</g>
</g>
</svg>
