<?xml version="1.0" encoding="utf-8"?>
<!-- Generator: Adobe Illustrator 26.3.1, SVG Export Plug-In . SVG Version: 6.00 Build 0)  -->
<svg version="1.1" id="Layer_1" xmlns="http://www.w3.org/2000/svg" xmlns:xlink="http://www.w3.org/1999/xlink" x="0px" y="0px"
	 viewBox="0 0 1117.6 822.9" style="enable-background:new 0 0 1117.6 822.9;" xml:space="preserve">
<style type="text/css">
	.st0{fill:#E2E2E2;}
	.st1{fill:#FFFFFF;}
	.st2{fill:#2A3756;}
	.st3{fill:#EBECED;}
	.st4{fill:#DD5205;}
	.st5{opacity:0.4;fill:#FFFFFF;enable-background:new    ;}
	.st6{fill:#F4E451;}
	.st7{fill:#E2CC2D;}
	.st8{fill:#E6EDED;}
</style>
<g>
	<polygon class="st0" points="84.5,370 159,476.3 98.5,564.9 68.3,423.2 	"/>
	<g>
		<path class="st1" d="M544.5,573.5c0,121.3-101.7,219.7-227.1,219.7S90.3,694.8,90.3,573.5S192,353.8,317.4,353.8
			S544.5,452.1,544.5,573.5z"/>
		<g>
			<path class="st1" d="M406.3,557.5c-1.2-0.1-2.4-0.5-3.6-0.9c-21.8-8.8-39-25.5-48.2-47.2s-9.5-45.6-0.7-67.5l34.2-85
				c8.8-21.8,25.5-39,47.2-48.2c21.7-9.2,45.6-9.5,67.5-0.7c7.2,2.9,10.8,11.2,7.8,18.4c-3,7.2-11.1,10.8-18.4,7.8
				c-14.8-6-31.1-5.8-45.8,0.5s-26.1,17.9-32,32.7l-34.2,85c-6,14.8-5.8,31.1,0.5,45.8s17.9,26.1,32.7,32
				c7.2,2.9,10.8,11.2,7.8,18.4C418.7,554.8,412.5,558.3,406.3,557.5L406.3,557.5z"/>
			<path class="st2" d="M455.9,542.2c-6.6,54.5-80.7,90.5-165.7,80.3c-84.9-10.3-148.4-62.8-141.9-117.3S229,414.7,314,424.9
				C398.9,435.1,462.5,487.6,455.9,542.2z"/>
		</g>
		<path class="st3" d="M550.1,645.4c15,29.4,70.5,164,45.8,176.6c-24.6,12.6-101.2-111.3-116.2-140.7c-15-29.4-11.4-61.3,8-71.2
			C507.1,600.2,535.1,616,550.1,645.4L550.1,645.4z"/>
		<g>
			<path class="st4" d="M338,533.6c0-4.2,3.3-7.6,7.5-7.6s7.6,3.3,7.6,7.5s-3.3,7.6-7.5,7.6S338,537.7,338,533.6L338,533.6z"/>
			<path class="st4" d="M356.6,530.9c0-4.2,3.3-7.6,7.5-7.6s7.6,3.3,7.6,7.5s-3.3,7.6-7.5,7.6C360,538.5,356.6,535.1,356.6,530.9
				L356.6,530.9z"/>
			<path class="st4" d="M375.2,528.3c0-4.2,3.3-7.6,7.5-7.6s7.6,3.3,7.6,7.5s-3.3,7.6-7.5,7.6S375.2,532.5,375.2,528.3L375.2,528.3z
				"/>
			<path class="st4" d="M359.1,549.1c0-4.2,3.3-7.6,7.5-7.6s7.6,3.3,7.6,7.5s-3.3,7.6-7.5,7.6C362.6,556.6,359.2,553.3,359.1,549.1
				L359.1,549.1z"/>
			<path class="st4" d="M377.7,546.5c0-4.2,3.3-7.6,7.5-7.6s7.6,3.3,7.6,7.5s-3.3,7.6-7.5,7.6S377.8,550.7,377.7,546.5L377.7,546.5z
				"/>
			<path class="st4" d="M393.8,525.7c0-4.2,3.3-7.6,7.5-7.6s7.6,3.3,7.6,7.5s-3.3,7.6-7.5,7.6C397.2,533.2,393.8,529.9,393.8,525.7
				L393.8,525.7z"/>
		</g>
		<g>
			<path class="st4" d="M263.5,519.3c1.2-4-1.1-8.2-5.1-9.4c-4-1.2-8.2,1.1-9.4,5.1s1.1,8.2,5.1,9.4
				C258.1,525.6,262.3,523.3,263.5,519.3z"/>
			<path class="st4" d="M246.4,511.6c1.2-4-1.1-8.2-5.1-9.4s-8.2,1.1-9.4,5.1s1.1,8.2,5.1,9.4C241,517.9,245.2,515.6,246.4,511.6z"
				/>
			<path class="st4" d="M229.2,503.9c1.2-4-1.1-8.2-5.1-9.4s-8.2,1.1-9.4,5.1s1.1,8.2,5.1,9.4S228.1,507.9,229.2,503.9z"/>
			<path class="st4" d="M238.8,528.3c1.2-4-1.1-8.2-5.1-9.4s-8.2,1.1-9.4,5.1s1.1,8.2,5.1,9.4S237.6,532.3,238.8,528.3z"/>
			<path class="st4" d="M221.7,520.6c1.2-4-1.1-8.2-5.1-9.4s-8.2,1.1-9.4,5.1s1.1,8.2,5.1,9.4S220.5,524.6,221.7,520.6L221.7,520.6z
				"/>
			<path class="st4" d="M212.1,496.1c1.2-4-1.1-8.2-5.1-9.4s-8.2,1.1-9.4,5.1s1.1,8.2,5.1,9.4C206.7,502.4,210.9,500.1,212.1,496.1z
				"/>
		</g>
	</g>
	<g>
		<path class="st5" d="M105.8,239.1c0,0,40.2-11.9,52.1-65.6C214,89.9,264.7-31.8,408.9,7.7s118.6,56.1,260,128.1
			s311.7,23.2,355.3,100.9c43.6,77.7,135,203.8,71.7,265.2c-63.4,61.4-198.4,103.6-374,24.8S460,353.3,401.3,269.7
			c-58.9-83.6-91-113.8-146.5-78.2c-25.4,16.3-57.5,93.3-146.6,64.7C72.1,268.7,105.8,239.1,105.8,239.1L105.8,239.1z"/>
		<g>
			<path class="st6" d="M208.9,122.8c0,0,26.8,135.6-119.3,133C58.3,174.7,181.3,198.8,208.9,122.8z"/>
			<path class="st6" d="M186.6,125.1c0,0,11.5,34.5-55.8,52.5C127.1,148.8,169.2,146.1,186.6,125.1z"/>
			<path class="st7" d="M181.6,177.6c0,0-25.7,71.6-92,78.2C109.5,188.3,156.3,224.9,181.6,177.6z"/>
		</g>
		<path class="st2" d="M31.3,354.1c3.8-16.4,20.1-23.5,23.3-26.1c3.1-2.6,24.6-63,25.2-64.6c-0.7-1.3-0.9-3-0.5-4.5s1.4-2.8,2.6-3.6
			l0,0c-1.3-0.4-1.4-1.8-0.9-3.4c0.4-1.6,1.2-2.8,2.5-2.5l24.7,6.8c1.3,0.4,1.4,1.8,0.9,3.4c-0.4,1.6-1.2,2.8-2.5,2.5l0,0
			c0.7,1.3,0.8,2.8,0.4,4.4c-0.4,1.6-1.5,2.8-2.8,3.7c-0.3,1.7-12.9,64.6-11.5,68.4c1.4,3.9,11.7,18.3,6.6,34.3
			c-1.8,5.6-31.1,113-31.1,113c-1,3.6-4.7,5.7-8.2,4.7L4.9,475.4c-3.6-1-5.7-4.7-4.7-8.2C0.1,467.1,30,359.7,31.3,354.1L31.3,354.1z
			"/>
		<path class="st8" d="M24.5,334.5c-5.3,14.8-2.7,29.2,5.9,32.3c8.6,3.1,19.8-6.3,25.2-21.1s2.7-29.2-5.9-32.3
			S29.8,319.7,24.5,334.5z"/>
	</g>
</g>
</svg>
